<svg width="570" height="586" viewBox="0 0 570 586" fill="none" xmlns="http://www.w3.org/2000/svg">
    <rect opacity="0.1" width="570" height="586" rx="12" fill="#B1B1B1" />
    <g clip-path="url(#clip0_721_10225)">
        <path d="M105.12 456.533H64.0547V456.81H105.12V456.533Z" fill="#EBEBEB" />
        <path d="M271.978 462.531H193.261V462.808H271.978V462.531Z" fill="#EBEBEB" />
        <path d="M167.395 456.666H111.129V456.943H167.395V456.666Z" fill="#EBEBEB" />
        <path d="M510.843 464.959H456.884V465.236H510.843V464.959Z" fill="#EBEBEB" />
        <path d="M451.95 464.959H416.505V465.236H451.95V464.959Z" fill="#EBEBEB" />
        <path d="M381.981 460.281H313.231V460.558H381.981V460.281Z" fill="#EBEBEB" />
        <path
            d="M508.471 399.536H294.383C292.706 399.533 291.097 398.865 289.911 397.679C288.724 396.492 288.057 394.883 288.054 393.205V92.2752C288.071 90.6067 288.745 89.0124 289.93 87.8377C291.115 86.6631 292.716 86.0028 294.383 86H508.471C510.136 86.0058 511.733 86.6677 512.914 87.8423C514.094 89.017 514.765 90.6096 514.78 92.2752V393.205C514.78 394.88 514.115 396.487 512.933 397.674C511.75 398.86 510.146 399.53 508.471 399.536ZM294.383 86.2217C292.779 86.2247 291.242 86.8634 290.107 87.998C288.972 89.1326 288.333 90.6706 288.33 92.2752V393.205C288.333 394.809 288.972 396.348 290.107 397.482C291.242 398.617 292.779 399.256 294.383 399.259H508.471C510.075 399.256 511.614 398.617 512.748 397.482C513.883 396.348 514.521 394.809 514.524 393.205V92.2752C514.521 90.6706 513.883 89.1326 512.748 87.998C511.614 86.8634 510.075 86.2247 508.471 86.2217H294.383Z"
            fill="#EBEBEB"
        />
        <path d="M136.053 279.775H459.666V100.679H136.053V279.775Z" fill="#EBEBEB" />
        <path d="M136.041 100.679H132.228V279.775H136.041V100.679Z" fill="#E0E0E0" />
        <path d="M147.693 268.124H448.014V112.331H147.693V268.124Z" fill="white" />
        <path d="M361.227 268.124H378.111L403.612 112.331H386.737L361.227 268.124Z" fill="#F5F5F5" />
        <path d="M305.227 268.124H345.317L370.816 112.331H330.726L305.227 268.124Z" fill="#F5F5F5" />
        <path d="M189.347 268.124H206.232L231.732 112.331H214.857L189.347 268.124Z" fill="#F5F5F5" />
        <path d="M269.516 318.945H220.734V440.39H269.516V318.945Z" fill="#F0F0F0" />
        <path d="M482.483 440.39H230.103V448.983H482.483V440.39Z" fill="#DFDFDF" />
        <path d="M269.517 440.401H491.852V318.956H269.517V440.401Z" fill="#F5F5F5" />
        <path d="M268.662 371.619H491.851V327.172H268.662V371.619Z" fill="#DFDFDF" />
        <path d="M268.662 424.182H491.851V379.735H268.662V424.182Z" fill="#DFDFDF" />
        <path d="M269.516 327.172H261.079V371.619H269.516V327.172Z" fill="#E6E6E6" />
        <path d="M269.516 379.724H261.079V424.17H269.516V379.724Z" fill="#E6E6E6" />
        <path d="M498.349 311.473H269.517V318.945H498.349V311.473Z" fill="#DFDFDF" />
        <path d="M213.915 318.956H269.516V311.484H213.915V318.956Z" fill="#E6E6E6" />
        <path
            d="M141.252 303.679H171.464C176.787 303.754 181.935 305.596 186.097 308.916C190.259 312.235 193.2 316.844 194.458 322.017L202.44 355.343H218.838H218.893C222.682 355.343 226.352 356.663 229.272 359.078C232.193 361.492 234.179 364.849 234.892 368.57L237.108 379.99C238.761 380.24 240.301 380.975 241.535 382.103C242.769 383.229 243.64 384.697 244.039 386.32H162.993C157.674 386.248 152.53 384.409 148.37 381.093C144.209 377.778 141.268 373.173 140.01 368.005L128.513 320.099C127.993 318.155 127.93 316.117 128.329 314.144C128.727 312.172 129.576 310.319 130.809 308.728C132.043 307.139 133.628 305.856 135.438 304.98C137.25 304.104 139.24 303.658 141.252 303.679ZM220.612 379.857H232.741L230.701 369.335C230.177 366.586 228.711 364.106 226.557 362.322C224.401 360.537 221.691 359.559 218.893 359.557L203.504 359.612L205.456 367.727C206.284 371.141 208.222 374.183 210.965 376.378C213.707 378.573 217.1 379.797 220.612 379.857Z"
            fill="#181918"
        />
        <path d="M164.989 386.276H161.531L147.905 448.983H151.364L164.989 386.276Z" fill="#494949" />
        <path d="M177.984 386.276H174.513L160.898 448.983H164.358L177.984 386.276Z" fill="#494949" />
        <path d="M228.96 386.276H232.419L246.045 448.983H242.575L228.96 386.276Z" fill="#494949" />
        <path d="M215.967 386.276H219.425L233.051 448.983H229.592L215.967 386.276Z" fill="#494949" />
        <path d="M78.6006 448.983H84.2439V265.363H78.6006V448.983Z" fill="#F0F0F0" />
        <path
            d="M77.4256 447.697L77.2815 446.921C77.8588 446.728 78.3915 446.423 78.8485 446.021C79.3056 445.619 79.6774 445.13 79.9423 444.582C81.4058 441.987 82.3038 436.455 78.2239 424.847C71.9376 406.964 75.6849 392.54 83.1575 363.792C84.4657 358.792 85.9403 353.115 87.4703 346.984C93.2132 324.023 87.9027 309.776 83.6342 298.324C80.3082 289.454 77.7028 282.414 81.051 274.287L81.7938 274.598C78.5565 282.437 81.1286 289.321 84.377 298.047C88.6898 309.599 94.0448 323.968 88.2464 347.184C86.7164 353.315 85.2418 358.992 83.9336 364.002C76.5054 392.585 72.7691 406.931 78.9778 424.581C83.1686 436.51 82.1819 442.32 80.6187 445.015C80.2999 445.657 79.8517 446.227 79.3022 446.689C78.7528 447.15 78.1139 447.494 77.4256 447.697Z"
            fill="#F0F0F0"
        />
        <path d="M71.2061 448.983H91.628L85.9515 445.635H76.8825L71.2061 448.983Z" fill="#F0F0F0" />
        <path d="M55.8066 288.745H107.039L101.396 220.849H61.4388L55.8066 288.745Z" fill="#F5F5F5" />
        <path d="M418.856 273.19H465.753L459.578 311.473H425.032L418.856 273.19Z" fill="#EC615B" />
        <path
            d="M437.67 291.328C450.442 292.859 478.215 291.55 481.463 269.554C484.711 247.557 421.383 243.755 409.963 244.475C395.407 245.395 383.621 256.283 383.621 256.283C383.621 256.283 424.909 289.798 437.67 291.328Z"
            fill="#455A64"
        />
        <path
            d="M456.629 288.49C447.559 289.388 432.138 282.946 438.235 265.208C444.333 247.469 456.829 245.85 465.088 244.375C475.609 242.491 496.652 250.485 496.652 250.485C496.652 250.485 465.698 287.592 456.629 288.49Z"
            fill="#455A64"
        />
        <path
            d="M432.892 259.288C444.323 264.11 453.901 265.751 448.491 250.717C443.081 235.683 436.496 228.466 425.763 225.417C412.092 221.515 395.828 229.852 395.828 229.852C395.828 229.852 421.473 254.52 432.892 259.288Z"
            fill="#455A64"
        />
        <path
            d="M448.402 256.483C439.677 258.888 432.803 258.378 439.311 243.898C445.818 229.419 450.154 227.601 457.615 224.83C471.407 219.696 482.959 228.91 482.959 228.91C482.959 228.91 457.127 254.087 448.402 256.483Z"
            fill="#455A64"
        />
        <path
            d="M429.411 234.375C438.89 242.135 447.616 246.981 447.227 234.985C446.839 222.989 440.132 212.234 429.933 207.39C422.914 204.064 407.393 205.56 407.393 205.56C407.393 205.56 419.932 226.659 429.411 234.375Z"
            fill="#455A64"
        />
        <path
            d="M435.031 219.719C437.249 231.748 440.685 241.138 448.181 231.759C455.675 222.379 456.318 213.587 453.269 202.722C449.366 188.864 437.004 183.564 437.004 183.564C437.004 183.564 432.836 207.701 435.031 219.719Z"
            fill="#455A64"
        />
        <path
            d="M453.857 229.952C447.648 234.542 442.271 236.969 444.222 227.224C446.173 217.479 449.644 214.84 455.576 211.404C460.422 208.808 466.034 208.021 471.407 209.186C471.407 209.186 460.054 225.351 453.857 229.952Z"
            fill="#455A64"
        />
        <path
            d="M283.064 499.051C401.785 499.051 498.027 493.432 498.027 486.501C498.027 479.57 401.785 473.95 283.064 473.95C164.344 473.95 68.1016 479.57 68.1016 486.501C68.1016 493.432 164.344 499.051 283.064 499.051Z"
            fill="#F5F5F5"
        />
        <path
            d="M290.337 191.513C291.102 192.466 292.055 193.598 292.931 194.64C293.807 195.681 294.761 196.735 295.692 197.766C297.565 199.817 299.461 201.835 301.423 203.709C303.315 205.529 305.307 207.243 307.388 208.842C309.082 210.199 310.974 211.287 312.998 212.068L313.275 212.168C313.353 212.168 313.275 212.168 313.331 212.168H313.386C313.386 212.168 313.509 212.168 313.697 212.168C314.364 212.015 314.993 211.719 315.537 211.303C317.396 209.884 319.036 208.2 320.405 206.304C322.055 204.168 323.559 201.923 324.905 199.585C325.604 198.387 326.313 197.19 326.968 195.959C327.622 194.728 328.287 193.432 328.864 192.3L328.974 192.079C329.448 190.905 330.368 189.967 331.533 189.471C332.696 188.975 334.01 188.961 335.185 189.432C336.359 189.904 337.299 190.822 337.797 191.985C338.296 193.148 338.313 194.462 337.844 195.637C336.021 201.714 333.455 207.541 330.205 212.988C328.37 216.046 326.082 218.809 323.42 221.182C321.711 222.675 319.737 223.834 317.599 224.596C316.302 225.036 314.945 225.279 313.575 225.317C312.856 225.341 312.137 225.304 311.424 225.207C311.08 225.207 310.67 225.095 310.393 225.029L309.606 224.852C306.007 223.858 302.601 222.268 299.528 220.151C296.795 218.36 294.201 216.365 291.767 214.186C289.383 212.09 287.132 209.928 284.982 207.678C283.873 206.569 282.853 205.461 281.822 204.263C280.791 203.066 279.815 201.968 278.74 200.626C277.508 199.096 276.934 197.139 277.146 195.185C277.356 193.232 278.335 191.442 279.865 190.211C281.396 188.979 283.353 188.405 285.306 188.616C287.26 188.827 289.049 189.806 290.281 191.336L290.337 191.513Z"
            fill="#263238"
        />
        <path
            d="M333.643 195.061L340.982 196.092L338.82 188.231C338.82 188.231 331.204 187.223 331.06 191.192L331.425 192.932C331.533 193.472 331.802 193.965 332.199 194.346C332.596 194.726 333.1 194.976 333.643 195.061Z"
            fill="#CE7A63"
        />
        <path d="M347.59 192.722V185.615L338.82 188.231L340.982 196.092L347.59 192.722Z" fill="#CE7A63" />
        <path d="M318.255 474.172L326.292 471.567L321.292 452.62L313.254 455.225L318.255 474.172Z" fill="#CE7A63" />
        <path
            d="M326.414 470.503L317.433 473.43C317.357 473.451 317.287 473.488 317.225 473.537C317.164 473.587 317.111 473.647 317.073 473.716C317.035 473.785 317.011 473.861 317.002 473.939C316.994 474.017 317.001 474.097 317.023 474.173L318.896 481.457C319.019 481.832 319.283 482.145 319.634 482.328C319.985 482.51 320.393 482.547 320.77 482.432C323.896 481.323 325.338 480.681 329.307 479.394C334.14 477.519 338.831 475.295 343.343 472.743C346.281 470.902 344.396 467.941 342.955 468.473C336.492 470.836 330.859 471.6 328.01 470.558C327.5 470.356 326.936 470.336 326.414 470.503Z"
            fill="#263238"
        />
        <path
            opacity="0.2"
            d="M313.254 455.236L321.303 452.62L323.864 462.387L315.827 465.004L313.254 455.236Z"
            fill="black"
        />
        <path
            d="M293.674 263.39C293.674 263.39 303.719 333.237 307.1 357.229C310.803 383.504 326.713 459.227 326.713 459.227L311.801 463.351C311.801 463.351 289.129 390.001 283.064 364.457C276.512 336.74 263.451 263.39 263.451 263.39H293.674Z"
            fill="#263238"
        />
        <path
            d="M277.521 338.426C274.45 323.014 271.124 305.376 268.485 291.074C269.849 287.404 271.922 285.53 275.958 293.823C281.956 306.119 280.06 326.408 277.521 338.426Z"
            fill="#263238"
        />
        <path
            opacity="0.3"
            d="M277.521 338.426C274.45 323.014 271.124 305.376 268.485 291.074C269.849 287.404 271.922 285.53 275.958 293.823C281.956 306.119 280.06 326.408 277.521 338.426Z"
            fill="black"
        />
        <path d="M311.424 463.684L327.4 459.283L327.091 452.775L309.107 458.995L311.424 463.684Z" fill="#263238" />
        <path d="M254.993 477.876H263.43L264.528 458.307H256.08L254.993 477.876Z" fill="#CE7A63" />
        <path
            d="M263.873 476.889H254.382C254.304 476.886 254.225 476.898 254.152 476.926C254.078 476.953 254.01 476.995 253.952 477.048C253.895 477.101 253.848 477.166 253.815 477.238C253.783 477.309 253.764 477.387 253.762 477.465L253.296 484.982C253.296 485.377 253.452 485.756 253.73 486.037C254.008 486.316 254.386 486.476 254.781 486.479C258.107 486.423 259.66 486.235 263.84 486.235C266.4 486.235 273.618 486.501 277.144 486.501C280.669 486.501 280.591 482.997 279.084 482.676C272.354 481.245 267.697 479.283 265.314 477.41C264.902 477.085 264.397 476.902 263.873 476.889Z"
            fill="#263238"
        />
        <path opacity="0.2" d="M256.079 458.307H264.538L263.961 468.396H255.514L256.079 458.307Z" fill="black" />
        <path
            d="M277.166 262.957C277.166 262.957 276.556 327.937 275.181 352.129C273.684 378.615 267.543 465.957 267.543 465.957H252.021C252.021 465.957 251.067 380.755 250.136 354.534C249.127 326.063 247.919 262.957 247.919 262.957H277.166Z"
            fill="#263238"
        />
        <path d="M251.489 465.957H268.208L269.14 460.092L250.68 461.012L251.489 465.957Z" fill="#263238" />
        <path
            d="M293.73 263.844L248.008 262.957C247.686 258.921 249.116 246.226 248.407 229.508C247.979 217.117 246.476 204.786 243.917 192.655C243.838 192.303 243.832 191.939 243.899 191.585C243.965 191.232 244.103 190.894 244.305 190.595C244.506 190.297 244.767 190.042 245.069 189.847C245.372 189.652 245.712 189.521 246.067 189.462C246.866 189.318 247.819 189.174 248.873 189.019C251.588 188.619 255.015 188.209 258.363 188.043C264.743 187.669 271.139 187.655 277.521 187.999C279.684 188.172 281.834 188.472 283.962 188.897C285.213 189.126 286.433 189.498 287.599 190.005C288.408 190.3 289.072 190.895 289.451 191.669C291.568 197.455 293.774 221.824 293.73 263.844Z"
            fill="#F0F0F0"
        />
        <path
            d="M253.018 201.37C251.467 203.963 249.814 206.802 248.307 209.563C246.798 212.324 245.269 215.106 243.872 217.978C242.475 220.849 241.155 223.643 239.947 226.481L239.071 228.599L238.284 230.717C238.006 231.426 237.807 232.125 237.585 232.823L237.242 233.865C237.184 234.055 237.135 234.247 237.097 234.442C236.892 235.723 236.771 237.014 236.732 238.311C236.732 239.785 236.732 241.327 236.732 242.879C236.799 246.005 237.009 249.209 237.231 252.413C237.452 255.618 237.73 258.866 238.04 262.103C238.35 265.341 238.661 268.6 238.983 271.793V271.871C239.112 273.08 238.776 274.291 238.042 275.261C237.31 276.231 236.235 276.885 235.037 277.089C233.838 277.295 232.608 277.035 231.593 276.364C230.58 275.693 229.861 274.661 229.581 273.479C227.974 266.937 226.676 260.44 225.578 253.788C225.035 250.462 224.592 247.136 224.237 243.666C224.071 241.936 223.927 240.184 223.86 238.366C223.756 236.372 223.823 234.373 224.06 232.39C224.115 231.869 224.282 231.093 224.403 230.55L224.736 229.219C224.969 228.332 225.179 227.434 225.445 226.592L226.233 224.031L227.087 221.526C228.261 218.237 229.555 215.025 230.967 211.891C232.375 208.764 233.838 205.693 235.402 202.667C236.965 199.64 238.551 196.713 240.38 193.664C241.437 192.079 243.064 190.962 244.924 190.546C246.783 190.13 248.733 190.447 250.364 191.43C251.996 192.414 253.186 193.99 253.686 195.828C254.188 197.667 253.96 199.628 253.052 201.303L253.018 201.37Z"
            fill="#263238"
        />
        <path
            d="M276.645 187.999C271.102 186.68 270.081 183.231 270.458 179.429C270.543 178.478 270.692 177.533 270.902 176.602L263.906 170.792L258.762 166.535C260.192 172.721 261.799 183.985 257.653 188.121C261.78 191.002 266.723 192.483 271.755 192.345C279.949 191.979 276.645 187.999 276.645 187.999Z"
            fill="#CE7A63"
        />
        <path d="M271.4 192.3L270.646 190.438L265.99 193.221L271.4 192.3Z" fill="#E0E0E0" />
        <path d="M271.4 192.3L271.778 190.438L276.434 193.221L271.4 192.3Z" fill="#E0E0E0" />
        <path
            d="M257.975 186.945C262.028 188.658 266.289 189.832 270.647 190.438C269.185 192.208 268.007 194.194 267.154 196.325C265.126 195.782 256.235 190.35 254.271 187.733L257.975 186.945Z"
            fill="white"
        />
        <path
            d="M275.303 187.145C274.467 188.565 273.245 189.718 271.778 190.471C273.493 191.951 274.957 193.7 276.113 195.648C277.555 193.283 278.229 190.53 278.042 187.766L275.303 187.145Z"
            fill="white"
        />
        <path
            opacity="0.3"
            d="M257.565 186.214C257.565 186.214 251.411 187.545 246.201 189.141C244.365 189.703 242.78 190.882 241.711 192.478C240.643 194.073 240.157 195.988 240.336 197.899C241.445 209.142 246.545 229.541 246.644 238.167C246.766 248.932 249.028 269.21 249.028 269.21L272.077 273.967C272.077 273.967 274.893 193.543 257.565 186.214Z"
            fill="black"
        />
        <path
            opacity="0.3"
            d="M275.414 186.945C275.414 186.945 280.536 187.489 285.259 188.487C287.197 188.896 288.948 189.924 290.251 191.415C291.553 192.907 292.334 194.782 292.477 196.758C293.741 215.372 293.142 234.098 293.741 244.198C294.361 254.941 293.541 268.867 293.541 268.867L284.528 271.472C284.528 271.472 282.255 201.026 275.414 186.945Z"
            fill="black"
        />
        <path
            d="M257.565 186.214C257.565 186.214 251.411 187.545 246.201 189.141C244.365 189.703 242.78 190.882 241.711 192.478C240.643 194.073 240.157 195.988 240.336 197.899C241.445 209.142 244.771 229.663 244.848 238.289C244.981 249.054 243.795 267.846 243.795 267.846L269.971 270.363C269.971 270.363 274.893 193.543 257.565 186.214Z"
            fill="#263238"
        />
        <path
            d="M275.414 186.945C275.414 186.945 280.536 187.489 285.259 188.487C287.197 188.896 288.948 189.924 290.251 191.415C291.553 192.907 292.334 194.782 292.477 196.758C293.741 215.372 294.506 234.021 295.093 244.121C295.725 254.864 295.78 268.223 295.78 268.223L285.137 269.243C285.137 269.243 282.255 201.026 275.414 186.945Z"
            fill="#263238"
        />
        <path
            opacity="0.2"
            d="M270.868 176.546C270.659 177.478 270.51 178.422 270.425 179.373C267.809 178.852 264.327 176.047 263.961 173.409C263.837 172.524 263.807 171.628 263.873 170.737L270.868 176.546Z"
            fill="black"
        />
        <path
            d="M277.221 151.124C277.809 155.382 276.113 159.14 273.341 159.517C270.57 159.894 267.931 156.734 267.343 152.477C266.755 148.219 268.452 144.45 271.223 144.073C273.995 143.696 276.634 146.856 277.221 151.124Z"
            fill="#263238"
        />
        <path
            d="M255.204 160.282C258.419 168.043 259.904 172.743 265.348 175.57C267.104 176.509 269.082 176.949 271.069 176.844C273.057 176.739 274.979 176.093 276.625 174.976C278.273 173.858 279.583 172.312 280.415 170.504C281.247 168.696 281.569 166.694 281.347 164.716C280.626 157.067 275.481 145.647 266.567 144.893C264.644 144.689 262.701 144.991 260.931 145.769C259.161 146.548 257.626 147.776 256.476 149.332C255.328 150.887 254.606 152.716 254.383 154.637C254.159 156.558 254.442 158.504 255.204 160.282Z"
            fill="#CE7A63"
        />
        <path
            d="M255.491 166.28C255.957 170.327 261.865 168.808 260.868 160.825C260.344 158.456 259.489 156.172 258.329 154.04C258.329 154.04 272.099 148.496 274.96 145.658C277.576 143.053 277.764 139.494 275.791 138.385C275.482 139.081 275.004 139.689 274.4 140.152C273.795 140.615 273.084 140.918 272.332 141.035C272.332 141.035 275.137 137.243 273.285 134.959C272.79 136.274 271.924 137.417 270.793 138.249C269.661 139.081 268.312 139.568 266.91 139.649C262.066 140.215 256.489 138.108 252.886 143.441C250.014 147.687 245.723 146.102 247.497 152.033C241.954 155.67 246.045 159.24 248.451 160.592C250.856 161.945 255.236 164.051 255.491 166.28Z"
            fill="#263238"
        />
        <path
            d="M248.252 151.967C248.252 151.967 244.515 151.324 245.458 146.834C241.733 151.047 244.548 152.976 248.252 151.967Z"
            fill="#263238"
        />
        <path
            d="M254.86 169.029C256.455 170.371 258.463 171.122 260.547 171.158C263.175 171.158 263.319 168.664 261.655 166.612C260.115 164.772 256.899 162.566 254.737 163.575C252.576 164.584 252.852 167.344 254.86 169.029Z"
            fill="#CE7A63"
        />
        <path
            d="M268.108 158.752C268.33 159.406 268.851 159.861 269.283 159.683C269.716 159.506 269.871 158.929 269.649 158.286C269.427 157.643 268.895 157.178 268.474 157.355C268.052 157.532 267.887 158.064 268.108 158.752Z"
            fill="#263238"
        />
        <path
            d="M275.47 156.501C275.692 157.144 276.213 157.61 276.645 157.433C277.078 157.255 277.232 156.679 277.011 156.036C276.789 155.393 276.268 154.927 275.835 155.104C275.403 155.282 275.303 155.847 275.47 156.501Z"
            fill="#263238"
        />
        <path
            d="M273.241 157.543C274.701 159.278 276.387 160.811 278.252 162.1C277.903 162.554 277.457 162.925 276.947 163.186C276.437 163.446 275.876 163.591 275.303 163.608L273.241 157.543Z"
            fill="#BA4D3C"
        />
        <path
            d="M273.275 166.18C272.498 166.331 271.699 166.324 270.926 166.158C270.152 165.992 269.42 165.671 268.774 165.215C268.738 165.178 268.718 165.129 268.718 165.077C268.718 165.025 268.738 164.975 268.774 164.938C268.812 164.902 268.864 164.881 268.917 164.881C268.971 164.881 269.022 164.902 269.062 164.938C269.77 165.423 270.58 165.739 271.43 165.862C272.279 165.985 273.145 165.912 273.962 165.648C273.987 165.639 274.013 165.636 274.039 165.638C274.065 165.641 274.09 165.648 274.114 165.661C274.137 165.673 274.157 165.69 274.173 165.711C274.189 165.732 274.2 165.756 274.206 165.781C274.215 165.806 274.218 165.832 274.216 165.858C274.213 165.884 274.206 165.909 274.193 165.932C274.181 165.955 274.164 165.975 274.143 165.991C274.123 166.007 274.098 166.018 274.073 166.025C273.811 166.096 273.544 166.148 273.275 166.18Z"
            fill="#263238"
        />
        <path
            d="M265.014 157.1C264.949 157.116 264.88 157.116 264.815 157.1C264.766 157.083 264.72 157.056 264.68 157.021C264.641 156.985 264.609 156.943 264.587 156.896C264.564 156.848 264.551 156.797 264.548 156.744C264.546 156.692 264.553 156.639 264.571 156.59C264.761 155.989 265.095 155.444 265.546 155.003C265.996 154.562 266.55 154.239 267.154 154.062C267.205 154.049 267.258 154.047 267.31 154.055C267.362 154.063 267.412 154.081 267.457 154.109C267.502 154.137 267.54 154.174 267.57 154.218C267.6 154.261 267.621 154.31 267.631 154.362C267.644 154.413 267.647 154.466 267.639 154.518C267.63 154.57 267.612 154.62 267.584 154.664C267.556 154.709 267.519 154.747 267.476 154.777C267.432 154.807 267.383 154.828 267.331 154.838C266.859 154.985 266.43 155.244 266.081 155.594C265.731 155.943 265.471 156.373 265.325 156.845C265.302 156.912 265.26 156.971 265.206 157.016C265.15 157.061 265.084 157.09 265.014 157.1Z"
            fill="#263238"
        />
        <path
            d="M241.245 302.359C240.921 302.357 240.599 302.328 240.28 302.271L225.324 299.532C223.94 299.274 222.715 298.478 221.915 297.319C221.115 296.16 220.807 294.732 221.056 293.346L222.441 285.796C222.567 285.109 222.828 284.452 223.209 283.866C223.589 283.281 224.082 282.776 224.659 282.381C225.231 281.98 225.879 281.698 226.562 281.551C227.247 281.405 227.952 281.397 228.639 281.527L243.595 284.266C244.981 284.522 246.208 285.317 247.009 286.477C247.808 287.636 248.116 289.066 247.863 290.452L246.477 298.003C246.254 299.227 245.607 300.334 244.651 301.131C243.695 301.926 242.49 302.361 241.245 302.359ZM240.691 300.031C241.483 300.174 242.299 299.997 242.962 299.54C243.624 299.084 244.079 298.384 244.227 297.592L245.612 290.032C245.755 289.241 245.578 288.425 245.121 287.765C244.664 287.104 243.964 286.651 243.174 286.506L228.218 283.767C227.826 283.695 227.423 283.701 227.032 283.784C226.642 283.868 226.272 284.028 225.944 284.254C225.616 284.481 225.335 284.769 225.119 285.105C224.901 285.44 224.753 285.813 224.681 286.206L223.295 293.757C223.156 294.548 223.333 295.363 223.79 296.025C224.246 296.686 224.945 297.142 225.734 297.293L240.691 300.031Z"
            fill="#EC615B"
        />
        <path
            d="M264.361 295.192L210.872 285.384C207.535 284.773 204.334 286.982 203.723 290.318L197.956 321.769C197.344 325.105 199.553 328.306 202.89 328.918L256.379 338.725C259.716 339.337 262.917 337.128 263.528 333.792L269.295 302.341C269.907 299.005 267.698 295.804 264.361 295.192Z"
            fill="#263238"
        />
        <path
            opacity="0.8"
            d="M264.361 295.192L210.872 285.384C207.535 284.773 204.334 286.982 203.723 290.318L197.956 321.769C197.344 325.105 199.553 328.306 202.89 328.918L256.379 338.725C259.716 339.337 262.917 337.128 263.528 333.792L269.295 302.341C269.907 299.005 267.698 295.804 264.361 295.192Z"
            fill="#EC615B"
        />
        <path
            d="M261.561 294.684L208.072 284.876C204.735 284.264 201.534 286.473 200.923 289.81L195.157 321.259C194.544 324.597 196.754 327.798 200.09 328.409L253.58 338.216C256.916 338.829 260.117 336.619 260.728 333.283L266.495 301.832C267.107 298.496 264.898 295.295 261.561 294.684Z"
            fill="#EC615B"
        />
        <path
            opacity="0.3"
            d="M262.942 294.909L206.743 284.61C205.5 284.386 204.221 284.663 203.182 285.379C202.144 286.096 201.431 287.194 201.199 288.435L198.117 305.287C197.891 306.528 198.166 307.81 198.883 308.849C199.601 309.889 200.7 310.601 201.942 310.83L225.557 315.154L225.213 317.016C225.178 317.222 225.185 317.431 225.232 317.634C225.279 317.836 225.367 318.026 225.488 318.195C225.61 318.363 225.764 318.505 225.942 318.613C226.119 318.721 226.316 318.793 226.521 318.824L230.723 319.589C231.132 319.663 231.553 319.574 231.896 319.339C232.239 319.105 232.475 318.744 232.553 318.336L232.885 316.484L258.186 321.119C259.428 321.346 260.709 321.07 261.749 320.352C262.788 319.636 263.5 318.536 263.729 317.294L266.822 300.442C267.038 299.193 266.752 297.912 266.024 296.874C265.296 295.838 264.189 295.132 262.942 294.909Z"
            fill="#263238"
        />
        <path
            d="M255.78 319.023L199.292 308.668C198.713 308.575 198.161 308.356 197.674 308.029C197.188 307.7 196.778 307.27 196.475 306.768C196.171 306.266 195.981 305.704 195.916 305.121C195.85 304.538 195.914 303.948 196.099 303.391L200.711 288.201C201.1 286.996 201.908 285.97 202.987 285.306C204.066 284.644 205.347 284.389 206.599 284.588L263.142 294.943C263.721 295.036 264.272 295.255 264.759 295.583C265.245 295.911 265.655 296.341 265.959 296.843C266.262 297.344 266.453 297.907 266.518 298.49C266.583 299.073 266.52 299.663 266.335 300.22L261.723 315.409C261.328 316.623 260.512 317.656 259.422 318.318C258.331 318.981 257.038 319.232 255.78 319.023Z"
            fill="#EC615B"
        />
        <path
            d="M227.94 318.014L223.693 317.238C223.439 317.195 223.197 317.097 222.983 316.952C222.769 316.807 222.59 316.617 222.457 316.397C222.322 316.175 222.238 315.929 222.209 315.672C222.179 315.416 222.206 315.155 222.285 314.91L224.326 308.258C224.496 307.726 224.852 307.274 225.328 306.983C225.805 306.692 226.369 306.581 226.92 306.673L231.167 307.448C231.422 307.489 231.665 307.586 231.879 307.731C232.094 307.875 232.274 308.066 232.407 308.287C232.54 308.509 232.623 308.757 232.65 309.015C232.677 309.272 232.648 309.532 232.564 309.776L230.534 316.429C230.362 316.959 230.005 317.41 229.53 317.701C229.054 317.991 228.491 318.103 227.94 318.014Z"
            fill="white"
        />
        <path
            d="M277.775 153.031C277.712 153.044 277.646 153.04 277.584 153.021C277.523 153.001 277.466 152.967 277.42 152.92C277.076 152.538 276.647 152.239 276.169 152.047C275.691 151.855 275.174 151.774 274.66 151.811C274.608 151.823 274.555 151.823 274.503 151.813C274.451 151.802 274.402 151.782 274.358 151.751C274.315 151.721 274.277 151.683 274.249 151.638C274.221 151.593 274.202 151.542 274.194 151.49C274.178 151.386 274.202 151.279 274.262 151.193C274.322 151.106 274.413 151.046 274.516 151.024C275.154 150.954 275.801 151.034 276.403 151.258C277.005 151.481 277.548 151.841 277.987 152.31C278.024 152.347 278.053 152.391 278.073 152.44C278.093 152.489 278.104 152.541 278.104 152.593C278.104 152.646 278.093 152.698 278.073 152.746C278.053 152.795 278.024 152.839 277.987 152.876C277.933 152.948 277.86 153.002 277.775 153.031Z"
            fill="#263238"
        />
        <path
            d="M239.049 274.066L241.577 282.17L231.145 280.02C231.145 280.02 229.536 272.514 233.484 272.004L237.176 272.48C237.609 272.532 238.019 272.709 238.351 272.991C238.685 273.272 238.928 273.647 239.049 274.066Z"
            fill="#CE7A63"
        />
        <path
            d="M236.577 288.479L232.032 287.625C231.716 287.566 231.415 287.444 231.147 287.266C230.879 287.089 230.65 286.86 230.472 286.592C230.294 286.324 230.172 286.024 230.113 285.708C230.052 285.392 230.056 285.068 230.125 284.754L231.145 280.031L241.578 282.17L239.193 287.148C238.965 287.628 238.585 288.018 238.112 288.259C237.638 288.499 237.099 288.577 236.577 288.479Z"
            fill="#CE7A63"
        />
        <path
            d="M335.272 101.344H342.512V169.251H335.272C326.373 169.09 317.893 165.442 311.657 159.092C305.42 152.742 301.927 144.198 301.927 135.298C301.927 126.397 305.42 117.853 311.657 111.503C317.893 105.153 326.373 101.505 335.272 101.344Z"
            fill="#FFCC33"
        />
        <path
            opacity="0.1"
            d="M335.272 101.344H342.512V169.251H335.272C326.373 169.09 317.893 165.442 311.657 159.092C305.42 152.742 301.927 144.198 301.927 135.298C301.927 126.397 305.42 117.853 311.657 111.503C317.893 105.153 326.373 101.505 335.272 101.344Z"
            fill="black"
        />
        <path
            opacity="0.3"
            d="M342.523 144.173V147.244H303.497C303.106 146.24 302.774 145.214 302.499 144.173H342.523Z"
            fill="#263238"
        />
        <path
            opacity="0.3"
            d="M308.886 156.645H342.523V169.251H335.272C330.211 169.256 325.213 168.126 320.647 165.945C316.08 163.763 312.062 160.585 308.886 156.645Z"
            fill="#263238"
        />
        <path
            d="M357.656 170.083L357.202 169.04C359.25 168.143 361.213 167.063 363.067 165.814L363.699 166.757C361.789 168.045 359.767 169.159 357.656 170.083Z"
            fill="#FFCC33"
        />
        <path
            d="M369.652 161.778L368.844 160.98C374.125 155.589 377.611 148.696 378.821 141.246L379.931 141.434C378.691 149.115 375.1 156.223 369.652 161.778Z"
            fill="#FFCC33"
        />
        <path
            d="M372.711 150.819C381.281 134.143 374.711 113.678 358.035 105.107C341.359 96.5373 320.894 103.108 312.324 119.784C303.753 136.459 310.325 156.925 327 165.495C343.675 174.065 364.142 167.494 372.711 150.819Z"
            fill="#FFCC33"
        />
        <mask
            id="mask0_721_10225"
            style="mask-type: luminance"
            maskUnits="userSpaceOnUse"
            x="318"
            y="112"
            width="46"
            height="47"
        >
            <path d="M363.982 121.341L326.767 112.969L318.395 150.185L355.611 158.556L363.982 121.341Z" fill="white" />
        </mask>
        <g mask="url(#mask0_721_10225)">
            <path
                d="M357.973 141.599L352.893 140.456L353.992 135.573L359.072 136.716C359.835 136.888 360.593 136.409 360.764 135.645C360.937 134.882 360.457 134.124 359.693 133.952L354.613 132.81L356.137 126.035C356.36 125.046 356.328 124.276 356.042 123.747C355.77 123.244 355.333 122.94 354.666 122.79C354.031 122.647 353.524 122.738 353.071 123.075C352.59 123.432 352.233 124.115 352.01 125.107L350.486 131.882L340.93 129.732L338.249 122.67C338.026 122.043 337.814 121.455 337.608 120.891C337.422 120.382 337.224 119.958 337.022 119.628C336.842 119.337 336.618 119.092 336.339 118.88C336.077 118.68 335.719 118.529 335.278 118.429C334.716 118.303 334.17 118.342 333.609 118.549C333.055 118.753 332.634 119.065 332.321 119.503C332.038 119.922 331.785 120.604 331.581 121.513L330.271 127.334L325.241 126.203C324.478 126.031 323.721 126.511 323.549 127.274C323.377 128.038 323.856 128.795 324.62 128.967L329.65 130.098L328.551 134.981L323.521 133.85C322.758 133.678 322.001 134.157 321.829 134.921C321.657 135.684 322.136 136.441 322.9 136.613L327.93 137.744L326.189 145.479C325.974 146.439 326.014 147.203 326.31 147.749C326.592 148.27 327.028 148.58 327.682 148.727C328.314 148.869 328.837 148.774 329.331 148.427C329.838 148.071 330.204 147.399 330.422 146.431L332.162 138.696L340.809 140.642L343.875 148.87C344.093 149.417 344.322 149.971 344.551 150.516C344.759 151.006 345.005 151.451 345.283 151.84C345.533 152.191 345.823 152.472 346.144 152.676C346.474 152.887 346.88 153.047 347.346 153.152C348.612 153.436 349.995 153.34 350.641 150.467L352.271 143.22L357.352 144.363C358.115 144.534 358.873 144.055 359.045 143.291C359.216 142.528 358.737 141.77 357.973 141.599ZM349.865 134.645L348.766 139.527L344.263 138.514L342.136 132.906L349.865 134.645ZM335.145 125.44L336.36 128.704L334.504 128.286L335.145 125.44ZM332.784 135.932L333.882 131.05L337.542 131.873L339.628 137.472L332.784 135.932ZM347.233 146.342L345.468 141.69L348.144 142.292L347.233 146.342Z"
                fill="#F2F2F2"
            />
        </g>
        <path
            opacity="0.1"
            d="M317.19 124.183C320.792 118.142 326.561 113.7 333.322 111.761C340.082 109.821 347.328 110.53 353.585 113.744C359.841 116.957 364.64 122.433 367.002 129.057C369.365 135.682 369.115 142.958 366.304 149.405C368.24 146.159 369.49 142.55 369.977 138.802C370.464 135.053 370.178 131.245 369.136 127.611C368.094 123.978 366.318 120.597 363.918 117.676C361.518 114.756 358.545 112.358 355.183 110.631C351.821 108.905 348.14 107.885 344.369 107.636C340.596 107.388 336.814 107.914 333.253 109.184C329.694 110.454 326.431 112.44 323.669 115.02C320.906 117.599 318.701 120.718 317.19 124.183Z"
            fill="black"
        />
        <path
            opacity="0.3"
            d="M375.362 105.158C374.808 105.302 374.304 105.592 373.9 105.998C373.496 106.403 373.209 106.91 373.068 107.464C373.022 107.574 372.945 107.668 372.847 107.735C372.748 107.801 372.632 107.836 372.513 107.836C372.394 107.836 372.278 107.801 372.179 107.735C372.08 107.668 372.003 107.574 371.958 107.464C371.816 106.908 371.526 106.401 371.121 105.996C370.715 105.59 370.208 105.301 369.652 105.158C369.542 105.113 369.448 105.036 369.382 104.937C369.315 104.839 369.28 104.722 369.28 104.603C369.28 104.485 369.315 104.368 369.382 104.27C369.448 104.171 369.542 104.094 369.652 104.049C370.206 103.907 370.713 103.62 371.118 103.216C371.524 102.813 371.814 102.308 371.958 101.754C371.999 101.639 372.074 101.54 372.174 101.47C372.273 101.399 372.391 101.361 372.513 101.361C372.635 101.361 372.753 101.399 372.853 101.47C372.952 101.54 373.026 101.639 373.068 101.754C373.211 102.306 373.499 102.81 373.902 103.214C374.306 103.617 374.81 103.906 375.362 104.049C375.477 104.089 375.576 104.165 375.647 104.264C375.717 104.363 375.755 104.482 375.755 104.603C375.755 104.725 375.717 104.844 375.647 104.943C375.576 105.042 375.477 105.118 375.362 105.158Z"
            fill="#FFCC33"
        />
        <path
            opacity="0.2"
            d="M317.578 172.023C317.155 172.13 316.768 172.349 316.46 172.657C316.151 172.966 315.932 173.352 315.826 173.775C315.797 173.863 315.74 173.941 315.664 173.995C315.588 174.05 315.498 174.08 315.404 174.08C315.311 174.08 315.219 174.05 315.144 173.995C315.068 173.941 315.012 173.863 314.983 173.775C314.876 173.354 314.658 172.969 314.352 172.661C314.046 172.353 313.663 172.132 313.242 172.023C313.154 171.994 313.077 171.937 313.022 171.862C312.967 171.786 312.938 171.695 312.938 171.602C312.938 171.508 312.967 171.417 313.022 171.341C313.077 171.266 313.154 171.209 313.242 171.18C313.661 171.072 314.044 170.853 314.35 170.547C314.655 170.241 314.875 169.859 314.983 169.44C315.012 169.351 315.068 169.274 315.144 169.219C315.219 169.164 315.311 169.135 315.404 169.135C315.498 169.135 315.588 169.164 315.664 169.219C315.74 169.274 315.797 169.351 315.826 169.44C315.935 169.86 316.155 170.243 316.463 170.549C316.772 170.855 317.157 171.073 317.578 171.18C317.666 171.209 317.743 171.266 317.798 171.341C317.853 171.417 317.882 171.508 317.882 171.602C317.882 171.695 317.853 171.786 317.798 171.862C317.743 171.937 317.666 171.994 317.578 172.023Z"
            fill="#FFCC33"
        />
        <path
            opacity="0.4"
            d="M312.41 100.978C311.665 101.169 310.984 101.557 310.44 102.101C309.896 102.645 309.508 103.326 309.318 104.072C309.264 104.228 309.161 104.364 309.026 104.46C308.891 104.556 308.729 104.607 308.564 104.607C308.398 104.607 308.236 104.556 308.101 104.46C307.966 104.364 307.865 104.228 307.809 104.072C307.62 103.327 307.234 102.648 306.692 102.103C306.15 101.559 305.471 101.171 304.728 100.978C304.569 100.927 304.432 100.827 304.335 100.692C304.238 100.558 304.185 100.396 304.185 100.23C304.185 100.064 304.238 99.902 304.335 99.7676C304.432 99.6332 304.569 99.5331 304.728 99.4816C305.47 99.2869 306.148 98.8976 306.689 98.3538C307.231 97.81 307.618 97.1315 307.809 96.3883C307.865 96.2318 307.966 96.0961 308.101 96C308.236 95.904 308.398 95.8524 308.564 95.8524C308.729 95.8524 308.891 95.904 309.026 96C309.161 96.0961 309.264 96.2318 309.318 96.3883C309.509 97.1335 309.898 97.8134 310.442 98.3575C310.985 98.9015 311.666 99.2897 312.41 99.4816C312.569 99.5331 312.706 99.6332 312.804 99.7676C312.902 99.902 312.954 100.064 312.954 100.23C312.954 100.396 312.902 100.558 312.804 100.692C312.706 100.827 312.569 100.927 312.41 100.978Z"
            fill="#FFCC33"
        />
    </g>
    <defs>
        <clipPath id="clip0_721_10225">
            <rect width="460" height="413.9" fill="white" transform="translate(55 86)" />
        </clipPath>
    </defs>
</svg>
