<svg width="462" height="317" viewBox="0 0 462 317" fill="none" xmlns="http://www.w3.org/2000/svg">
<g clip-path="url(#clip0_493_29818)">
<path d="M101.829 91.8439C147.931 133.981 186.395 183.786 215.515 239.052L145.504 293.169C116.401 237.874 77.9436 188.042 31.8387 145.883L101.829 91.8439Z" fill="#FFCC33"/>
<path opacity="0.2" d="M101.829 91.8439C105.633 95.3114 109.379 98.8398 113.066 102.429C154.233 142.253 188.814 188.369 215.515 239.052L145.504 293.169C116.401 237.874 77.9436 188.042 31.8387 145.883L101.829 91.8439Z" fill="#FFCC33"/>
<path opacity="0.2" d="M48.522 138.961C49.6581 139.96 50.5546 141.203 51.1451 142.596C51.7356 143.989 52.0048 145.498 51.9328 147.009C51.8607 148.521 51.4493 149.997 50.7289 151.327C50.0086 152.657 48.998 153.808 47.772 154.693C84.4445 190.379 115.872 231.09 141.115 275.609C142.276 274.637 143.643 273.941 145.112 273.574C146.581 273.207 148.114 273.179 149.596 273.491C151.078 273.803 152.469 274.448 153.666 275.377C154.863 276.305 155.834 277.493 156.506 278.851L200.143 245.125C198.611 242.16 198.139 238.76 198.805 235.49C199.472 232.22 201.237 229.277 203.807 227.151C178.567 182.63 147.139 141.919 110.464 106.236C105.207 110.3 97.0671 109.795 92.1592 105.235L92.0847 105.163L48.4449 138.899L48.522 138.961ZM149.056 174.276C157.386 185.092 154.941 200.964 144.194 209.27C133.446 217.575 118.424 215.213 110.067 204.379C101.711 193.545 103.264 178.393 114.037 170.073C124.809 161.754 140.742 163.4 149.066 174.237L149.056 174.276Z" fill="black"/>
<g opacity="0.2">
<path d="M151.775 181.841L139.143 190.151L141.664 193.989L138.518 196.059L135.997 192.221L131.967 194.872L134.488 198.711L131.342 200.78L128.821 196.942L116.68 204.929L113.318 199.811L122.388 187.15L118.574 181.344L106.433 189.33L103.88 185.443L116.021 177.456L113.499 173.618L116.645 171.549L119.166 175.387L123.197 172.735L120.676 168.897L123.822 166.828L126.343 170.666L138.975 162.355L142.369 167.522L132.808 180.507L136.622 186.313L149.254 178.003L151.775 181.841ZM133.476 188.383L130.437 183.757L127.377 187.885L129.51 191.133L133.476 188.383ZM134.598 170.802L134.469 170.605L128.864 174.504L130.222 176.57L134.598 170.802ZM126.364 193.202L125.007 191.136L120.269 197.212L120.398 197.409L126.364 193.202ZM127.852 179.821L125.686 176.524L121.72 179.274L124.791 183.949L127.852 179.821Z" fill="black"/>
</g>
<path opacity="0.2" d="M113.05 102.386C154.224 142.221 188.81 188.35 215.513 239.046C215.513 239.046 163.857 256.075 152.489 265.841C152.489 265.841 142.9 163.765 113.05 102.386Z" fill="black"/>
<path d="M190.735 46.0619C218.53 102.015 236.435 162.359 243.655 224.418L158.823 249.628C151.606 187.571 133.7 127.23 105.9 71.2812C134.188 62.8668 162.466 54.4603 190.735 46.0619Z" fill="#FFCC33"/>
<path opacity="0.3" d="M190.734 46.0619C218.53 102.015 236.435 162.359 243.654 224.418L206.994 235.303C190.961 240.039 174.911 244.802 158.843 249.592C151.626 187.534 133.72 127.194 105.92 71.245C134.194 62.8547 162.465 54.4604 190.734 46.0619Z" fill="#FFCC33"/>
<path opacity="0.1" d="M123.993 70.7748C124.705 72.1123 125.104 73.5939 125.161 75.108C125.218 76.622 124.93 78.1291 124.32 79.5157C123.71 80.9023 122.794 82.1321 121.64 83.1126C120.486 84.0932 119.125 84.7988 117.658 85.1763C138.991 131.701 153.621 181.017 161.111 231.649C162.545 231.16 164.07 231.005 165.573 231.193C167.076 231.381 168.516 231.908 169.786 232.735C171.055 233.562 172.12 234.666 172.901 235.965C173.682 237.264 174.157 238.723 174.292 240.232L227.13 224.511C226.772 221.192 227.559 217.851 229.36 215.043C231.162 212.235 233.871 210.129 237.035 209.075C229.553 158.441 214.923 109.125 193.582 62.603C187.216 64.5032 179.803 61.0857 176.841 55.0562L176.794 54.9601L123.953 70.6495L123.993 70.7748ZM205.052 139.97C208.925 153.074 200.939 167.022 187.905 170.825C174.87 174.628 161.722 167.054 157.859 153.952C153.996 140.851 160.835 127.252 173.927 123.392C187.019 119.531 201.21 126.832 205.052 139.97Z" fill="black"/>
<g opacity="0.2">
<path d="M200.689 151.36L187.366 151.639L187.452 155.684L184.135 155.754L184.048 151.709L179.797 151.798L179.884 155.843L176.566 155.912L176.479 151.868L163.674 152.136L163.559 146.743L176.258 141.548L176.126 135.429L163.322 135.697L163.234 131.6L176.038 131.332L175.951 127.287L179.269 127.217L179.356 131.262L183.607 131.173L183.52 127.128L186.838 127.059L186.925 131.104L200.248 130.824L200.365 136.269L187.147 141.475L187.279 147.594L200.602 147.315L200.689 151.36ZM183.961 147.664L183.856 142.789L179.639 144.434L179.712 147.857L183.961 147.664ZM193.026 135.074L193.022 134.867L187.012 135.148L187.058 137.326L193.026 135.074ZM176.394 147.926L176.348 145.748L169.966 148.061L169.971 148.269L176.394 147.926ZM183.767 138.641L183.693 135.166L179.444 135.359L179.55 140.286L183.767 138.641Z" fill="black"/>
</g>
<path opacity="0.2" d="M190.728 46.0504C218.526 102.006 236.431 162.352 243.652 224.414L206.988 235.3L157.295 225.586C157.295 225.586 193.756 120.342 190.728 46.0504Z" fill="black"/>
<path d="M288.629 58.4015C286.742 120.85 274.064 182.495 251.156 240.608C222.269 234.638 193.378 228.674 164.481 222.715C187.407 164.594 200.089 102.933 201.965 40.4694C230.853 46.4606 259.741 52.438 288.629 58.4015Z" fill="#FFCC33"/>
<path opacity="0.4" d="M288.629 58.4015C286.742 120.85 274.064 182.495 251.156 240.608C222.269 234.638 193.378 228.674 164.481 222.715C187.407 164.594 200.089 102.933 201.965 40.4694C230.853 46.4606 259.741 52.438 288.629 58.4015Z" fill="#FFCC33"/>
<path opacity="0.1" d="M218.102 48.636C218.085 50.1489 217.727 51.6383 217.055 52.9935C216.383 54.3488 215.415 55.5351 214.222 56.4644C213.029 57.3936 211.642 58.042 210.164 58.3613C208.686 58.6807 207.155 58.6627 205.685 58.3089C202.541 109.393 192.166 159.769 174.868 207.93C176.362 208.178 177.781 208.762 179.016 209.638C180.252 210.515 181.273 211.66 182.003 212.988C182.732 214.317 183.151 215.793 183.227 217.307C183.304 218.82 183.036 220.331 182.444 221.726C200.455 225.438 218.465 229.158 236.473 232.884C237.719 229.787 239.988 227.212 242.902 225.588C245.815 223.963 249.198 223.387 252.485 223.956C269.783 175.796 280.159 125.419 283.302 74.3351C276.792 72.9952 271.855 66.4773 272.125 59.7816L272.151 59.6843L218.128 48.5387L218.102 48.636ZM256.937 147.927C254.16 161.302 240.538 169.786 227.225 167.07C213.912 164.353 205.92 151.374 208.697 137.999C211.474 124.623 223.988 115.915 237.293 118.661C250.598 121.406 259.73 134.566 256.937 147.927Z" fill="black"/>
<g opacity="0.2">
<path d="M253.98 150.697L238.954 148.972L238.433 153.534L234.692 153.104L235.212 148.542L230.418 147.992L229.897 152.553L226.156 152.124L226.677 147.562L212.236 145.904L212.93 139.822L228.005 135.925L228.793 129.024L214.352 127.366L214.88 122.746L229.321 124.404L229.842 119.843L233.583 120.272L233.062 124.834L237.857 125.384L238.377 120.823L242.119 121.252L241.598 125.814L256.624 127.539L255.923 133.679L240.263 137.51L239.475 144.411L254.501 146.136L253.98 150.697ZM235.733 143.981L236.361 138.484L231.366 139.688L230.926 143.548L235.733 143.981ZM247.853 131.213L247.88 130.979L241.078 130.375L240.797 132.832L247.853 131.213ZM227.184 143.118L227.464 140.662L219.934 142.286L219.908 142.519L227.184 143.118ZM236.895 133.805L237.342 129.887L232.535 129.454L231.901 135.009L236.895 133.805Z" fill="black"/>
</g>
<path d="M28.5771 309.823L82.6981 309.662L136.819 309.602L245.061 309.494L353.303 309.602L407.424 309.662L461.545 309.823L407.424 309.99L353.303 310.051L245.061 310.158L136.819 310.051L82.6981 309.99L28.5771 309.823Z" fill="#263238"/>
<path d="M344.759 201.442L344.23 199.626C344.23 199.626 350.926 192.409 352.874 191.524C354.823 190.639 366.627 192.864 367.27 193.903C367.913 194.942 367.658 199.499 367.497 200.303C367.337 201.107 356.784 202.903 355.05 202.983C353.316 203.064 344.759 201.442 344.759 201.442Z" fill="#EC615B"/>
<path d="M344.23 199.626L344.759 201.442C344.759 201.442 340.28 204.793 340.119 205.014C339.958 205.235 340.226 206.18 340.226 206.18H335.693V199.626C336.364 200.002 337.074 200.305 337.809 200.531C338.465 200.645 344.23 199.626 344.23 199.626Z" fill="#EC615B"/>
<g opacity="0.1">
<path d="M344.759 201.442L344.23 199.626C344.23 199.626 350.926 192.409 352.875 191.524C354.823 190.639 366.627 192.864 367.27 193.903C367.913 194.942 367.659 199.499 367.498 200.303C367.337 201.107 356.785 202.903 355.051 202.983C353.316 203.064 344.759 201.442 344.759 201.442Z" fill="black"/>
<path d="M344.23 199.626L344.759 201.442C344.759 201.442 340.28 204.793 340.119 205.014C339.958 205.235 340.226 206.18 340.226 206.18H335.693V199.626C336.364 200.002 337.074 200.305 337.809 200.531C338.465 200.645 344.23 199.626 344.23 199.626Z" fill="black"/>
</g>
<path d="M261.177 270.788C260.695 288.311 253.732 309.809 238.225 309.809C236.705 309.809 215.942 310.211 214.582 309.756C202.082 305.581 194.676 282.796 196.082 262.692C197.174 247.025 202.149 229.48 215.218 227.376C216.096 227.236 237.937 227.376 238.881 227.376C254.535 227.356 261.693 251.93 261.177 270.788Z" fill="#263238"/>
<path d="M236.283 270.787C235.801 288.311 228.844 309.809 213.337 309.809C197.83 309.809 190.732 284.968 192.293 262.692C193.458 245.979 198.848 227.376 213.993 227.376C229.661 227.356 236.805 251.93 236.283 270.787Z" fill="#37474F"/>
<path d="M229.828 270.278C229.433 283.775 224.244 300.327 212.781 300.327C201.318 300.327 196.129 281.201 197.327 264.033C198.225 251.166 202.249 236.839 213.444 236.839C225.014 236.839 230.25 255.763 229.828 270.278Z" fill="#C7C7C7"/>
<path d="M209.775 239.754C210.009 245.235 210.84 262.712 212.025 262.712C213.029 262.712 215.968 246.22 217.006 240.256C215.757 239.6 214.367 239.257 212.955 239.258C211.876 239.253 210.802 239.42 209.775 239.754Z" fill="#263238"/>
<path d="M214.174 263.751C214.81 264.227 220.421 256.346 224.505 250.435C223.641 247.964 222.399 245.643 220.822 243.553C218.178 250.322 213.317 263.108 214.174 263.751Z" fill="#263238"/>
<path d="M215.238 265.782C215.526 266.492 221.559 263.731 227.003 261.091C226.725 258.892 226.314 256.712 225.771 254.564C220.789 259.167 214.89 264.897 215.238 265.782Z" fill="#263238"/>
<path d="M215.808 268.241C215.747 269.065 221.834 270.251 227.404 271.116C227.404 270.787 227.404 270.446 227.445 270.151C227.498 268.395 227.445 266.572 227.344 264.723C221.793 265.869 215.868 267.316 215.808 268.241Z" fill="#263238"/>
<path d="M225.677 282.555C226.316 280.1 226.783 277.603 227.076 275.083C221.76 272.61 215.553 269.95 215.084 270.808C214.616 271.665 221.03 278.058 225.677 282.555Z" fill="#263238"/>
<path d="M219.082 295.107C221.242 292.983 222.917 290.415 223.989 287.581C220.575 281.737 214.723 272.061 213.819 272.677C212.915 273.294 217.608 289.967 219.082 295.107Z" fill="#263238"/>
<path d="M207.117 296.199C208.586 297.305 210.374 297.905 212.212 297.908C212.92 297.912 213.625 297.834 214.315 297.673C214.127 293.09 213.29 274.078 212.038 274.078C211.06 274.085 208.195 289.987 207.117 296.199Z" fill="#263238"/>
<path d="M200.508 285.108C201.21 287.64 202.256 290.064 203.615 292.312C206.293 285.517 210.538 274.185 209.728 273.548C209.139 273.133 204.398 279.6 200.508 285.108Z" fill="#263238"/>
<path d="M198.673 275.083C198.849 277.092 199.133 279.089 199.524 281.067C203.876 276.953 208.335 272.469 208.027 271.685C207.779 271.049 203.293 272.932 198.673 275.083Z" fill="#263238"/>
<path d="M198.459 266.237C198.379 268.087 198.379 269.95 198.459 271.793C203.066 270.821 207.351 269.709 207.411 268.898C207.451 268.187 203.079 267.142 198.459 266.237Z" fill="#263238"/>
<path d="M198.693 262.692C203.153 264.81 207.625 266.713 208.02 265.962C208.415 265.212 203.769 260.112 199.678 255.83C199.22 258.097 198.892 260.388 198.693 262.692Z" fill="#263238"/>
<path d="M200.963 250.878C204.264 256.587 208.898 264.28 209.708 263.711C210.518 263.141 206.876 248.807 205.269 242.803C203.289 245.166 201.822 247.916 200.963 250.878Z" fill="#263238"/>
<path d="M436.784 270.788C436.295 288.311 429.339 309.809 413.832 309.809C412.312 309.809 391.548 310.211 390.189 309.756C377.688 305.581 370.27 282.796 371.689 262.692C372.78 247.025 377.755 229.48 390.825 227.376C391.696 227.236 413.544 227.376 414.488 227.376C430.142 227.356 437.3 251.93 436.784 270.788Z" fill="#263238"/>
<path d="M411.89 270.787C411.408 288.311 404.451 309.809 388.944 309.809C373.437 309.809 366.339 284.968 367.9 262.692C369.065 245.979 374.455 227.376 389.593 227.376C405.255 227.356 412.412 251.93 411.89 270.787Z" fill="#37474F"/>
<path d="M405.435 270.278C405.04 283.775 399.851 300.327 388.388 300.327C376.925 300.327 371.736 281.201 372.948 264.033C373.845 251.166 377.869 236.839 389.064 236.839C400.621 236.839 405.857 255.763 405.435 270.278Z" fill="#C7C7C7"/>
<path d="M385.382 239.754C385.616 245.235 386.44 262.712 387.632 262.712C388.636 262.712 391.575 246.22 392.613 240.256C391.374 239.605 389.996 239.262 388.596 239.258C387.505 239.249 386.42 239.416 385.382 239.754Z" fill="#263238"/>
<path d="M389.781 263.751C390.45 264.227 396.028 256.346 400.105 250.435C399.246 247.963 398.006 245.641 396.429 243.553C393.785 250.322 388.924 263.108 389.781 263.751Z" fill="#263238"/>
<path d="M390.845 265.782C391.127 266.492 397.166 263.731 402.61 261.091C402.332 258.892 401.921 256.712 401.378 254.564C396.383 259.167 390.497 264.897 390.845 265.782Z" fill="#263238"/>
<path d="M391.408 268.241C391.354 269.065 397.434 270.251 403.011 271.116C403.011 270.787 403.011 270.446 403.051 270.151C403.105 268.395 403.051 266.572 402.951 264.723C397.4 265.869 391.475 267.316 391.408 268.241Z" fill="#263238"/>
<path d="M401.284 282.555C401.923 280.1 402.39 277.603 402.683 275.083C397.367 272.61 391.16 269.95 390.691 270.808C390.223 271.665 396.637 278.058 401.284 282.555Z" fill="#263238"/>
<path d="M394.689 295.107C396.849 292.983 398.524 290.415 399.597 287.581C396.182 281.738 390.357 272.074 389.426 272.677C388.495 273.28 393.202 289.967 394.689 295.107Z" fill="#263238"/>
<path d="M382.724 296.199C384.193 297.305 385.981 297.905 387.819 297.908C388.527 297.912 389.232 297.834 389.921 297.673C389.734 293.09 388.897 274.078 387.645 274.078C386.667 274.085 383.802 289.987 382.724 296.199Z" fill="#263238"/>
<path d="M376.115 285.108C376.817 287.64 377.863 290.064 379.222 292.312C381.9 285.517 386.145 274.185 385.335 273.548C384.745 273.133 380.005 279.6 376.115 285.108Z" fill="#263238"/>
<path d="M374.287 275.083C374.463 277.092 374.747 279.089 375.137 281.067C379.49 276.953 383.949 272.469 383.634 271.685C383.387 271.049 378.9 272.932 374.287 275.083Z" fill="#263238"/>
<path d="M374.066 266.237C373.986 268.087 373.986 269.95 374.066 271.793C378.673 270.821 382.958 269.709 383.018 268.898C383.058 268.187 378.686 267.142 374.066 266.237Z" fill="#263238"/>
<path d="M374.287 262.692C378.746 264.81 383.219 266.713 383.607 265.962C383.996 265.212 379.362 260.112 375.271 255.83C374.814 258.097 374.486 260.388 374.287 262.692Z" fill="#263238"/>
<path d="M376.57 250.878C379.871 256.587 384.511 264.28 385.322 263.711C386.132 263.141 382.489 248.807 380.882 242.803C378.898 245.164 377.429 247.915 376.57 250.878Z" fill="#263238"/>
<path d="M101.425 270.788C100.943 288.311 93.9866 309.809 78.4795 309.809C76.9596 309.809 56.1897 310.211 54.8305 309.756C42.3297 305.581 34.9243 282.796 36.3304 262.692C37.4218 247.025 42.3966 229.48 55.4665 227.376C56.3437 227.236 78.1849 227.376 79.129 227.376C94.7834 227.356 101.941 251.93 101.425 270.788Z" fill="#263238"/>
<path d="M76.5311 270.787C76.049 288.311 69.0922 309.809 53.5851 309.809C38.0779 309.809 30.9805 284.968 32.5406 262.692C33.7057 245.979 39.0957 227.376 54.2412 227.376C69.8957 227.356 77.0533 251.93 76.5311 270.787Z" fill="#37474F"/>
<path d="M70.0767 270.278C69.6816 283.775 64.4925 300.327 53.0295 300.327C41.5666 300.327 36.3775 281.201 37.576 264.033C38.4732 251.166 42.4973 236.839 53.6924 236.839C65.2625 236.839 70.4985 255.763 70.0767 270.278Z" fill="#C7C7C7"/>
<path d="M50.0229 239.754C50.264 245.269 51.0876 262.692 52.2727 262.692C53.277 262.692 56.2164 246.2 57.2543 240.236C56.0048 239.579 54.6146 239.237 53.2034 239.238C52.1225 239.239 51.0489 239.413 50.0229 239.754Z" fill="#263238"/>
<path d="M54.4222 263.751C55.0918 264.227 60.6693 256.346 64.7536 250.435C63.8889 247.966 62.649 245.645 61.0777 243.553C58.4262 250.322 53.5652 263.108 54.4222 263.751Z" fill="#263238"/>
<path d="M55.4869 265.782C55.7748 266.492 61.8076 263.731 67.2511 261.091C66.974 258.892 66.5626 256.712 66.0191 254.564C61.0376 259.167 55.1387 264.897 55.4869 265.782Z" fill="#263238"/>
<path d="M56.0561 268.241C55.9958 269.065 62.0822 270.251 67.653 271.116C67.653 270.787 67.653 270.446 67.6932 270.151C67.7467 268.395 67.6931 266.572 67.5927 264.723C62.042 265.869 56.1164 267.316 56.0561 268.241Z" fill="#263238"/>
<path d="M65.9254 282.555C66.5641 280.1 67.0317 277.603 67.3248 275.083C62.0085 272.61 55.8016 269.95 55.3396 270.808C54.8776 271.665 61.2786 278.058 65.9254 282.555Z" fill="#263238"/>
<path d="M59.3303 295.107C61.491 292.983 63.1655 290.415 64.2382 287.581C60.8235 281.738 54.9715 272.074 54.0675 272.677C53.1636 273.28 57.8439 289.967 59.3303 295.107Z" fill="#263238"/>
<path d="M47.3652 296.199C48.8343 297.305 50.6222 297.905 52.4606 297.908C53.1682 297.912 53.8738 297.834 54.5631 297.673C54.3756 293.096 53.5654 274.085 52.2865 274.085C51.309 274.085 48.4499 289.987 47.3652 296.199Z" fill="#263238"/>
<path d="M40.7563 285.108C41.4589 287.64 42.5042 290.064 43.8631 292.312C46.5414 285.517 50.7864 274.185 49.9763 273.548C49.387 273.133 44.6465 279.6 40.7563 285.108Z" fill="#263238"/>
<path d="M38.9219 275.083C39.0978 277.092 39.3817 279.089 39.7722 281.067C44.1244 276.953 48.5904 272.469 48.2757 271.685C48.028 271.049 43.5218 272.932 38.9219 275.083Z" fill="#263238"/>
<path d="M38.7077 266.237C38.6274 268.087 38.6274 269.95 38.7077 271.793C43.3143 270.821 47.6062 269.709 47.6598 268.898C47.7 268.187 43.3277 267.142 38.7077 266.237Z" fill="#263238"/>
<path d="M38.9419 262.692C43.4012 264.81 47.8739 266.713 48.2689 265.962C48.664 265.212 44.0172 260.112 39.9262 255.83C39.4722 258.098 39.1436 260.388 38.9419 262.692Z" fill="#263238"/>
<path d="M41.2119 250.878C44.5129 256.587 49.1463 264.28 49.9564 263.711C50.7666 263.141 47.1242 248.807 45.5172 242.803C43.5371 245.166 42.0709 247.916 41.2119 250.878Z" fill="#263238"/>
<path d="M192.078 296.903H87.5121C87.5121 296.903 77.9574 281.329 77.4151 278.869C76.8727 276.41 79.2363 226.813 53.6388 226.813C31.3423 226.813 32.3266 276.598 32.3266 276.598L29.6014 272.409L28.9854 265.138L30.7263 260.829C30.7263 260.829 27.4521 230.298 28.9854 226.096C30.5187 221.895 44.1377 204.27 45.055 203.345C45.9723 202.42 61.0241 199.861 62.0486 198.942C63.073 198.024 105.148 163.278 123.89 159.183C142.631 155.089 183.481 151.812 209.768 151.812C236.055 151.812 296.095 158.915 301.01 160.557C305.924 162.199 350.973 204.552 350.973 204.552C350.973 204.552 398.987 210.73 405.442 212.164C411.896 213.598 436.362 229.896 437.387 231.94C438.411 233.984 441.585 256.842 441.585 256.842C441.585 256.842 444.042 262.478 444.143 263.811C444.243 265.145 441.17 286.864 440.761 287.997C440.353 289.129 435.847 294.242 434.822 294.651C433.798 295.06 263.286 297.331 261.197 296.909C259.108 296.487 249.272 293.632 247.632 292.533C245.992 291.434 242.838 227.363 213.484 227.363C187.987 227.356 190.036 276.309 192.078 296.903Z" fill="#EC615B"/>
<path opacity="0.1" d="M334.783 296.246C381.873 295.656 434.3 294.865 434.863 294.644C435.887 294.242 440.393 289.109 440.802 287.99C441.21 286.871 444.283 265.138 444.15 263.805C444.016 262.471 441.598 256.829 441.598 256.829C441.598 256.829 438.425 233.977 437.4 231.933C436.376 229.889 411.91 213.592 405.455 212.164C399.001 210.737 350.986 204.545 350.986 204.545C350.986 204.545 394.508 214.282 396.724 216.225C398.94 218.169 415.8 236.557 417.735 239.238C419.67 241.918 419.978 262.592 420.594 264.294C421.21 265.996 425.315 276.665 425.716 278.507C426.118 280.35 424.29 287.735 423.708 288.338C423.125 288.941 338.7 295.931 334.783 296.246Z" fill="black"/>
<path opacity="0.1" d="M192.085 296.903C190.217 278.206 188.369 236.148 207.123 228.549C197.542 230.285 184.171 245.972 183.615 287.058L87.519 296.903H192.085Z" fill="black"/>
<g opacity="0.6">
<path d="M89.9696 270.359C89.1178 260.424 86.9935 250.64 83.6489 241.248C82.7923 238.901 81.8065 236.604 80.6962 234.366C79.6006 232.113 78.3312 229.948 76.8997 227.892C75.4883 225.809 73.839 223.897 71.9851 222.196C71.0563 221.339 70.0721 220.545 69.039 219.817C67.9735 219.119 66.854 218.507 65.6912 217.988C63.3753 216.925 60.872 216.333 58.326 216.245C55.7925 216.092 53.2557 216.485 50.8871 217.398C46.093 219.248 42.4506 223.148 39.8728 227.396C37.3463 231.711 35.4203 236.351 34.148 241.188C32.8331 245.991 31.937 250.899 31.4697 255.857C32.0888 250.929 33.1305 246.064 34.5832 241.315C35.9345 236.554 37.9233 231.999 40.4955 227.772C43.1135 223.657 46.6354 219.904 51.2085 218.182C53.4733 217.323 55.8961 216.962 58.3126 217.123C60.7434 217.219 63.131 217.798 65.3363 218.825C66.4478 219.317 67.518 219.898 68.5369 220.561C69.5381 221.258 70.4931 222.019 71.3959 222.839C73.2095 224.492 74.825 226.349 76.2101 228.375C79.0758 232.396 81.1582 236.906 82.9861 241.489C84.7492 246.121 86.1944 250.868 87.3115 255.696C88.476 260.529 89.3635 265.424 89.9696 270.359Z" fill="white"/>
<path d="M248.556 270.359C247.715 260.655 245.668 251.095 242.463 241.898C240.858 237.278 238.711 232.865 236.069 228.75C234.713 226.701 233.168 224.782 231.456 223.02C229.696 221.279 227.71 219.785 225.55 218.577C223.333 217.456 220.946 216.707 218.486 216.359C216.024 216.088 213.535 216.233 211.121 216.788C206.267 217.934 202.088 221.057 199.029 224.863C196.016 228.711 193.623 233.007 191.938 237.596C190.229 242.151 188.978 246.865 188.202 251.669C189.123 246.905 190.516 242.244 192.36 237.757C194.101 233.248 196.536 229.04 199.578 225.285C202.651 221.633 206.662 218.631 211.322 217.572C213.641 217.051 216.032 216.927 218.392 217.204C220.743 217.55 223.02 218.279 225.135 219.361C227.221 220.517 229.142 221.948 230.846 223.617C232.527 225.327 234.047 227.189 235.386 229.179C238.002 233.238 240.158 237.576 241.814 242.113C243.507 246.648 244.898 251.291 245.978 256.011C247.106 260.741 247.967 265.531 248.556 270.359Z" fill="white"/>
<path d="M190.646 234.158C183.95 232.228 177.315 230.238 170.626 228.361L133.244 224.79L95.862 221.439H95.9089L83.696 217.251L71.4028 213.102L83.5822 217.512L95.7817 221.814H95.8219L133.184 225.352L170.565 228.663H170.532C177.221 230.566 183.943 232.335 190.646 234.158Z" fill="white"/>
<path d="M345.65 204.558L365.938 213.223L386.246 221.814L386.159 221.734L394.254 236.932L394.448 236.604C374.863 236.772 355.278 236.845 335.693 237.113L335.834 237.154L312.493 223.416L283.36 214.744L254.248 206.18L283.267 215.053L312.319 223.825H312.265L335.553 237.656L335.62 237.696H335.693C355.285 237.582 374.87 237.281 394.455 237.073H394.823L394.649 236.745L386.487 221.58L386.453 221.519H386.393L366.038 213.022L345.65 204.558Z" fill="white"/>
</g>
<g opacity="0.3">
<path d="M347.156 204.545L388.1 214.275L393.202 215.528C394.059 215.736 394.896 215.971 395.74 216.198L396.322 216.393C396.421 216.42 396.518 216.456 396.61 216.5L396.831 216.694C397.151 216.97 397.449 217.27 397.722 217.592C400.005 220.219 402.094 223.054 404.237 225.822C408.468 231.415 412.664 237.04 416.825 242.695C412.807 236.919 408.79 231.183 404.618 225.54C402.523 222.712 400.434 219.904 398.137 217.217C397.844 216.864 397.524 216.535 397.179 216.232L396.892 215.997C396.787 215.948 396.68 215.906 396.57 215.87L395.901 215.649C395.05 215.414 394.2 215.166 393.35 214.979L388.241 213.699C381.411 212.082 374.575 210.518 367.732 209.008C360.889 207.498 354.03 206.01 347.156 204.545Z" fill="black"/>
<path d="M215.064 206.18L227.518 210.114L239.992 213.974L264.907 221.814C269.058 223.114 273.209 224.414 277.321 225.835C279.363 226.56 281.341 227.456 283.233 228.515L289.051 231.471L300.695 237.388L312.379 243.211L300.829 237.113L289.232 231.082L283.434 228.08C281.537 226.992 279.55 226.071 277.495 225.326C273.377 223.878 269.232 222.545 265.088 221.218L240.113 213.572L227.605 209.812L215.064 206.18Z" fill="black"/>
<path d="M183.615 283.862L171.563 283.607L159.51 283.433L135.466 283.064L111.422 282.836L99.3701 282.655L96.3704 282.602L94.8706 282.548C94.6295 282.548 94.3483 282.548 94.1475 282.495C93.9466 282.441 93.7658 282.233 93.5917 282.079C92.2526 280.598 91.0742 278.963 89.8823 277.355C91.034 278.997 92.1722 280.652 93.4779 282.186C93.6587 282.347 93.7926 282.609 94.0805 282.655C94.3372 282.7 94.5967 282.727 94.8572 282.736L96.4173 282.796L99.4236 282.93L111.476 283.225L135.52 283.654L159.571 283.815L171.589 283.882L183.615 283.862Z" fill="black"/>
<path d="M99.3232 203.258C98.0599 209.374 96.8235 215.493 95.6138 221.613V221.694L98.0108 236.229L100.475 250.757C102.122 260.434 103.854 270.102 105.671 279.761C104.191 270.05 102.664 260.327 101.031 250.663L98.5866 236.135L96.0691 221.62V221.7C97.1939 215.562 98.2786 209.414 99.3232 203.258Z" fill="black"/>
<path d="M165.664 204.471C167.164 212.513 168.715 220.554 170.318 228.596V228.515C170.416 237.276 170.552 246.033 170.726 254.785L171.021 267.919L171.409 281.054V267.913L171.295 254.778C171.201 246.022 171.063 237.265 170.88 228.509V228.455C169.179 220.454 167.441 212.459 165.664 204.471Z" fill="black"/>
<path d="M75.7546 197.234C74.8909 199.84 74.1075 202.467 73.3308 205.094C72.5541 207.721 71.8109 210.355 71.1279 213.009V213.082V213.143C71.5565 215.079 71.9649 217.009 72.4671 218.933C72.9692 220.856 73.3844 222.779 73.8932 224.696C73.5852 222.739 73.246 220.789 72.8755 218.845C72.5273 216.902 72.1189 214.965 71.7305 213.022V213.163C72.5005 210.529 73.1634 207.875 73.8798 205.228C74.5963 202.581 75.1721 199.914 75.7546 197.234Z" fill="black"/>
<path d="M185.804 251.702L173.391 250.757L160.97 249.906L136.129 248.204L111.282 246.716L98.8547 245.972L86.4209 245.329L98.8346 246.274L111.255 247.125L136.089 248.82L160.943 250.308L173.371 251.052L185.804 251.702Z" fill="black"/>
<path d="M114.985 206.904C114.743 207.916 114.543 208.914 114.315 209.953L114.482 209.825C112.541 209.598 110.599 209.356 108.657 209.189C106.715 209.021 104.767 208.807 102.819 208.673L103.073 209.015L103.655 206.2L103.388 206.394C105.544 206.522 107.7 206.649 109.862 206.696C107.72 206.374 105.577 206.14 103.435 205.898H103.22L103.167 206.12L102.497 208.921L102.43 209.229L102.752 209.262C104.693 209.464 106.642 209.624 108.59 209.772C110.539 209.919 112.487 210.04 114.435 210.154H114.583V210.013C114.743 208.968 114.884 207.936 114.985 206.904Z" fill="black"/>
<path d="M430.838 248.512C431.582 252.533 432.559 256.554 433.517 260.521L433.878 262.022L433.972 262.391L434.019 262.578C434.019 262.665 434.019 262.578 434.092 262.578C434.092 262.799 434.059 263.088 434.046 263.336C433.959 264.381 433.858 265.406 433.805 266.458C433.664 268.542 433.543 270.62 433.503 272.677C433.805 270.667 434.032 268.656 434.24 266.646C434.354 265.654 434.427 264.636 434.521 263.637L434.595 262.866C434.623 262.736 434.623 262.601 434.595 262.471L434.554 262.283L434.467 261.908L434.113 260.407C433.081 256.406 432.077 252.432 430.838 248.512Z" fill="black"/>
<path d="M278.084 248.512C277.26 250.523 276.524 252.613 275.787 254.677C275.051 256.741 274.354 258.819 273.711 260.91V260.963V261.004C273.711 262.565 273.711 264.12 273.792 265.694C273.872 267.269 273.899 268.817 273.999 270.385C274.102 268.831 274.171 267.267 274.207 265.694C274.267 264.133 274.274 262.578 274.287 261.004V261.091C275.01 259.027 275.626 256.922 276.296 254.838C276.966 252.754 277.541 250.63 278.084 248.512Z" fill="black"/>
<path d="M444.096 264.703L432.539 276.236H432.599L391.227 277.616C384.33 277.837 377.434 278.125 370.537 278.286L349.834 278.239L267.036 278.447L250.223 274.373L266.962 278.648L349.774 278.849L370.537 278.775C377.434 278.581 384.324 278.259 391.22 278.011L432.593 276.383H432.633L444.096 264.703Z" fill="black"/>
</g>
<path d="M155.085 202.903C153.746 204.304 99.7987 201.127 98.5734 200.986C97.3481 200.846 76.7322 196.892 75.8082 195.934C74.8842 194.975 108.57 170.656 111.436 169.43C114.302 168.203 145.53 166.153 149.829 167.889C153.156 169.256 156.678 201.295 155.085 202.903Z" fill="#263238"/>
<path d="M151.583 201.422C150.337 202.695 101.071 199.8 99.9457 199.673C98.8208 199.546 79.9927 195.927 79.1155 195.056C78.2384 194.185 109.052 171.963 111.67 170.837C114.288 169.711 142.818 167.842 146.748 169.43C149.822 170.676 153.015 199.954 151.583 201.422Z" fill="#37474F"/>
<g opacity="0.1">
<path d="M117.355 169.959L151.503 190.968C150.92 184.796 149.822 177.384 148.577 173.049L141.747 168.874C133.603 168.788 125.46 169.15 117.355 169.959Z" fill="white"/>
<path d="M90.646 185.587L114.938 200.537C119.377 200.772 124.312 201.02 129.139 201.208L96.6118 181.204C94.6031 182.652 92.5743 184.139 90.646 185.587Z" fill="white"/>
<path d="M80.6626 193.374L86.6284 197.039C88.0546 197.354 89.5544 197.669 91.0275 197.971L81.8812 192.328C81.4259 192.724 81.0175 193.065 80.6626 193.374Z" fill="white"/>
</g>
<path d="M114 170.355C113.036 170.509 101.888 199.304 102.095 199.84C102.303 200.377 99.8991 199.934 100.087 199.8C100.274 199.666 112.286 171.876 111.938 170.703C111.771 170.12 114 170.355 114 170.355Z" fill="#263238"/>
<path d="M347.156 204.545C345.817 204.545 218.392 206.18 215.064 206.18C211.736 206.18 165.771 203.962 165.208 203.653C164.646 203.345 160.14 169.939 161.499 167.218C161.874 166.474 223.614 163.278 231.194 163.278C238.773 163.278 300.882 165.958 304.177 166.562C307.471 167.165 349.419 204.511 347.156 204.545Z" fill="#263238"/>
<path d="M343.192 202.93C341.907 202.93 222.195 204.471 219.068 204.471C215.942 204.471 171.469 202.387 170.94 202.099C170.411 201.811 167.391 172.265 168.731 169.705C169.079 169.001 228.369 166.005 235.493 166.005C242.617 166.005 300.976 168.552 304.056 169.088C307.136 169.624 345.315 202.903 343.192 202.93Z" fill="#37474F"/>
<path opacity="0.1" d="M280.789 167.775L338.01 202.997L312.359 203.318L252.634 166.555C261.211 166.897 271.589 167.352 280.789 167.775ZM201.994 167.466L261.305 203.968L274.133 203.808L214.094 166.863L201.994 167.466ZM169.454 190.318C169.768 193.669 170.123 196.771 170.384 198.942L176.136 202.481C179.765 202.695 184.934 202.963 190.444 203.231L169.454 190.318ZM181.271 168.652L239.108 204.243H241.941L183.896 168.518L181.271 168.652ZM289.855 168.203L339.563 198.795C337.983 197.281 335.981 195.444 333.752 193.434L293.015 168.364C292.011 168.324 290.953 168.264 289.855 168.203Z" fill="white"/>
<path d="M296.785 237.897C298.566 239.68 295.446 250.744 292.687 251.561C289.928 252.379 271.261 249.786 269.212 249.236C267.163 248.686 246.139 242.407 244.364 240.524C242.59 238.641 240.95 222.9 242.865 221.801C244.78 220.702 276.309 228.911 279.691 229.842C283.072 230.774 295.278 236.376 296.785 237.897Z" fill="white"/>
<path d="M438.927 243.553C438.197 244.981 433.088 250.255 432.064 250.985C431.039 251.715 424.899 252.734 424.183 252.325C423.466 251.917 419.576 243.413 419.677 241.978C419.777 240.544 427.865 224.97 429.298 225.272C430.731 225.574 438.518 230.399 438.927 231.933C439.335 233.468 439.717 242.012 438.927 243.553Z" fill="white"/>
<path d="M438.465 243.057C438.538 244.083 435.827 247.252 435.499 247.641C436.765 246.389 437.911 245.021 438.92 243.553C439.724 242.012 439.342 233.468 438.92 231.94C438.498 230.412 430.731 225.58 429.305 225.272C430.865 225.942 437.059 231.042 437.394 232.302C437.728 233.562 438.391 241.965 438.465 243.057Z" fill="#DBDBDB"/>
<path d="M418.713 242.22C416.845 241.55 378.492 240.417 370.959 240.417C363.427 240.417 313.872 241.583 310.478 242.756C307.083 243.929 314.723 264.1 317.696 265.587C320.668 267.075 368.415 270.895 371.703 270.895C374.99 270.895 412.265 265.628 414.495 264.14C416.724 262.652 421.786 243.258 418.713 242.22Z" fill="#455A64"/>
<path d="M416.811 244.063C415.01 243.473 377.976 242.407 370.738 242.407C363.5 242.407 315.66 243.48 312.379 244.552C309.098 245.624 316.477 262.759 319.343 264.12C322.208 265.48 368.281 268.992 371.455 268.992C374.629 268.992 410.598 264.16 412.747 262.8C414.896 261.439 419.818 245.034 416.811 244.063Z" fill="#263238"/>
<path d="M418.411 244.351H310.886V245.349H418.411V244.351Z" fill="#455A64"/>
<path d="M418.411 247.668H310.886V248.666H418.411V247.668Z" fill="#455A64"/>
<path d="M418.411 250.985H310.886V251.984H418.411V250.985Z" fill="#455A64"/>
<path d="M417.146 254.302H312.151V255.301H417.146V254.302Z" fill="#455A64"/>
<path d="M415.867 257.619H313.437V258.618H415.867V257.619Z" fill="#455A64"/>
<path d="M414.28 260.943H315.017V261.942H414.28V260.943Z" fill="#455A64"/>
<path d="M406.828 264.26H318.867V265.259H406.828V264.26Z" fill="#455A64"/>
<path d="M386.734 267.578H342.569V268.576H386.734V267.578Z" fill="#455A64"/>
<path d="M313.946 255.2C314.093 255.596 314.24 255.991 314.401 256.38L416.356 254.537C416.47 254.141 416.557 253.733 416.644 253.324L313.946 255.2Z" fill="#EC615B"/>
<path d="M411.896 287.065H315.553C313.544 287.065 323.956 280.813 325.596 280.712C327.236 280.612 402.79 280.712 404.33 280.712C405.87 280.712 413.637 287.065 411.896 287.065Z" fill="#263238"/>
<path d="M436.295 282.937C435.258 283.105 424.558 283.312 422.784 282.937C421.009 282.562 416.911 273.193 417.186 271.793C417.461 270.392 425.415 265.648 426.433 265.339C427.45 265.031 434.675 264.622 435.445 265.339C436.215 266.056 437.26 282.796 436.295 282.937Z" fill="#455A64"/>
<path d="M297.742 270.359C299.021 272.021 290.23 282.012 286.889 283.239C283.548 284.465 263.032 284.505 262.316 284.297C261.599 284.09 261.532 273.81 261.941 272.235C262.349 270.66 266.172 264.924 267.023 264.415C267.873 263.905 286.239 265.473 288.73 266.117C291.221 266.76 297.16 269.608 297.742 270.359Z" fill="#455A64"/>
<path d="M146.909 199.733L147.438 197.917C147.438 197.917 140.743 190.7 138.787 189.815C136.832 188.931 125.035 191.156 124.392 192.194C123.749 193.233 124.003 197.79 124.164 198.594C124.325 199.398 134.877 201.194 136.618 201.275C138.359 201.355 146.909 199.733 146.909 199.733Z" fill="#EC615B"/>
<path d="M147.438 197.917L146.909 199.733C146.909 199.733 151.382 203.084 151.549 203.305C151.717 203.526 151.442 204.471 151.442 204.471H156.009V197.917C155.336 198.294 154.624 198.598 153.886 198.822C153.203 198.929 147.438 197.917 147.438 197.917Z" fill="#EC615B"/>
<path d="M2.02227 251.796H55.1724V242.139H2.02227V251.796Z" fill="#EC615B"/>
<path d="M49.9631 251.876C50.0836 251.876 50.1841 249.732 50.1841 247.085C50.1841 244.438 50.0836 242.293 49.9631 242.293C49.8426 242.293 49.7422 244.438 49.7422 247.085C49.7422 249.732 49.8426 251.876 49.9631 251.876Z" fill="#263238"/>
<path d="M52.8689 251.876C52.9961 251.876 53.0899 249.732 53.0899 247.085C53.0899 244.438 52.9961 242.293 52.8689 242.293C52.7417 242.293 52.6479 244.438 52.6479 247.085C52.6479 249.732 52.7484 251.876 52.8689 251.876Z" fill="#263238"/>
<path d="M43.5755 251.876C43.7027 251.876 43.7964 249.732 43.7964 247.085C43.7964 244.438 43.7027 242.293 43.5755 242.293C43.4482 242.293 43.3545 244.438 43.3545 247.085C43.3545 249.732 43.4549 251.876 43.5755 251.876Z" fill="#263238"/>
<path d="M46.488 251.876C46.6085 251.876 46.709 249.732 46.709 247.085C46.709 244.438 46.6085 242.293 46.488 242.293C46.3675 242.293 46.2671 244.438 46.2671 247.085C46.2671 249.732 46.3608 251.876 46.488 251.876Z" fill="#263238"/>
<path d="M37.1941 251.876C37.3146 251.876 37.415 249.732 37.415 247.085C37.415 244.438 37.3146 242.293 37.1941 242.293C37.0736 242.293 36.9731 244.438 36.9731 247.085C36.9731 249.732 37.0669 251.876 37.1941 251.876Z" fill="#263238"/>
<path d="M40.1004 251.876C40.2209 251.876 40.3213 249.732 40.3213 247.085C40.3213 244.438 40.2209 242.293 40.1004 242.293C39.9798 242.293 39.8794 244.438 39.8794 247.085C39.8794 249.732 39.9798 251.876 40.1004 251.876Z" fill="#263238"/>
<path d="M30.8133 251.876C30.9338 251.876 31.0342 249.732 31.0342 247.085C31.0342 244.438 30.9338 242.293 30.8133 242.293C30.6927 242.293 30.5923 244.438 30.5923 247.085C30.5923 249.732 30.686 251.876 30.8133 251.876Z" fill="#263238"/>
<path d="M33.7127 251.876C33.8332 251.876 33.9336 249.732 33.9336 247.085C33.9336 244.438 33.8332 242.293 33.7127 242.293C33.5921 242.293 33.4917 244.438 33.4917 247.085C33.4917 249.732 33.5921 251.876 33.7127 251.876Z" fill="#263238"/>
<path d="M24.4192 251.876C24.5397 251.876 24.6402 249.732 24.6402 247.085C24.6402 244.438 24.5397 242.293 24.4192 242.293C24.2987 242.293 24.1982 244.438 24.1982 247.085C24.1982 249.732 24.2987 251.876 24.4192 251.876Z" fill="#263238"/>
<path d="M27.3249 251.876C27.4521 251.876 27.5459 249.732 27.5459 247.085C27.5459 244.438 27.4521 242.293 27.3249 242.293C27.1977 242.293 27.104 244.438 27.104 247.085C27.104 249.732 27.2044 251.876 27.3249 251.876Z" fill="#263238"/>
<path d="M18.0315 251.876C18.1587 251.876 18.2591 249.732 18.2591 247.085C18.2591 244.438 18.1587 242.293 18.0315 242.293C17.9043 242.293 17.8105 244.438 17.8105 247.085C17.8105 249.732 17.911 251.876 18.0315 251.876Z" fill="#263238"/>
<path d="M20.9441 251.876C21.0646 251.876 21.1651 249.732 21.1651 247.085C21.1651 244.438 21.0646 242.293 20.9441 242.293C20.8236 242.293 20.7231 244.438 20.7231 247.085C20.7231 249.732 20.8169 251.876 20.9441 251.876Z" fill="#263238"/>
<path d="M11.6502 251.876C11.7707 251.876 11.8711 249.732 11.8711 247.085C11.8711 244.438 11.7707 242.293 11.6502 242.293C11.5296 242.293 11.4292 244.438 11.4292 247.085C11.4292 249.732 11.5229 251.876 11.6502 251.876Z" fill="#263238"/>
<path d="M14.5564 251.876C14.6769 251.876 14.7773 249.732 14.7773 247.085C14.7773 244.438 14.6769 242.293 14.5564 242.293C14.4359 242.293 14.3354 244.438 14.3354 247.085C14.3354 249.732 14.4359 251.876 14.5564 251.876Z" fill="#263238"/>
<path d="M5.26296 251.876C5.38348 251.876 5.48389 249.732 5.48389 247.085C5.48389 244.438 5.38348 242.293 5.26296 242.293C5.14244 242.293 5.04199 244.438 5.04199 247.085C5.04199 249.732 5.14244 251.876 5.26296 251.876Z" fill="#263238"/>
<path d="M8.16872 251.876C8.28924 251.876 8.38969 249.732 8.38969 247.085C8.38969 244.438 8.28924 242.293 8.16872 242.293C8.0482 242.293 7.94775 244.438 7.94775 247.085C7.94775 249.732 8.0482 251.876 8.16872 251.876Z" fill="#263238"/>
<path d="M2.02197 242.139C2.02197 242.26 13.9804 242.36 28.7175 242.36C43.4547 242.36 55.4198 242.26 55.4198 242.139C55.4198 242.019 43.4681 241.918 28.7175 241.918C13.967 241.918 2.02197 242.012 2.02197 242.139Z" fill="#263238"/>
<path d="M5.50372 261.607H58.6538V251.95H5.50372V261.607Z" fill="#EC615B"/>
<path d="M53.4446 261.674C53.5651 261.674 53.6656 259.529 53.6656 256.882C53.6656 254.235 53.5651 252.091 53.4446 252.091C53.3241 252.091 53.2236 254.235 53.2236 256.882C53.2236 259.529 53.3241 261.674 53.4446 261.674Z" fill="#263238"/>
<path d="M56.3504 261.674C56.4709 261.674 56.5713 259.529 56.5713 256.882C56.5713 254.235 56.4709 252.091 56.3504 252.091C56.2298 252.091 56.1294 254.235 56.1294 256.882C56.1294 259.529 56.2566 261.674 56.3504 261.674Z" fill="#263238"/>
<path d="M47.0569 261.674C47.1774 261.674 47.2779 259.529 47.2779 256.882C47.2779 254.235 47.1774 252.091 47.0569 252.091C46.9364 252.091 46.8359 254.235 46.8359 256.882C46.8359 259.529 46.9364 261.674 47.0569 261.674Z" fill="#263238"/>
<path d="M49.9631 261.674C50.0836 261.674 50.1841 259.529 50.1841 256.882C50.1841 254.235 50.0836 252.091 49.9631 252.091C49.8426 252.091 49.7422 254.235 49.7422 256.882C49.7422 259.529 49.8426 261.674 49.9631 261.674Z" fill="#263238"/>
<path d="M40.6692 261.674C40.7964 261.674 40.8901 259.529 40.8901 256.882C40.8901 254.235 40.7964 252.091 40.6692 252.091C40.542 252.091 40.4482 254.235 40.4482 256.882C40.4482 259.529 40.5486 261.674 40.6692 261.674Z" fill="#263238"/>
<path d="M43.5755 261.674C43.7027 261.674 43.7964 259.529 43.7964 256.882C43.7964 254.235 43.7027 252.091 43.5755 252.091C43.4482 252.091 43.3545 254.235 43.3545 256.882C43.3545 259.529 43.4549 261.674 43.5755 261.674Z" fill="#263238"/>
<path d="M34.2884 261.674C34.4089 261.674 34.5093 259.529 34.5093 256.882C34.5093 254.235 34.4089 252.091 34.2884 252.091C34.1678 252.091 34.0674 254.235 34.0674 256.882C34.0674 259.529 34.1611 261.674 34.2884 261.674Z" fill="#263238"/>
<path d="M37.1941 261.674C37.3146 261.674 37.415 259.529 37.415 256.882C37.415 254.235 37.3146 252.091 37.1941 252.091C37.0736 252.091 36.9731 254.235 36.9731 256.882C36.9731 259.529 37.0669 261.674 37.1941 261.674Z" fill="#263238"/>
<path d="M27.9007 261.674C28.0212 261.674 28.1216 259.529 28.1216 256.882C28.1216 254.235 28.0212 252.091 27.9007 252.091C27.7801 252.091 27.6797 254.235 27.6797 256.882C27.6797 259.529 27.7801 261.674 27.9007 261.674Z" fill="#263238"/>
<path d="M30.8133 261.674C30.9338 261.674 31.0342 259.529 31.0342 256.882C31.0342 254.235 30.9338 252.091 30.8133 252.091C30.6927 252.091 30.5923 254.235 30.5923 256.882C30.5923 259.529 30.686 261.674 30.8133 261.674Z" fill="#263238"/>
<path d="M21.5129 261.674C21.6334 261.674 21.7339 259.529 21.7339 256.882C21.7339 254.235 21.6334 252.091 21.5129 252.091C21.3924 252.091 21.292 254.235 21.292 256.882C21.292 259.529 21.3924 261.674 21.5129 261.674Z" fill="#263238"/>
<path d="M24.4192 261.674C24.5397 261.674 24.6402 259.529 24.6402 256.882C24.6402 254.235 24.5397 252.091 24.4192 252.091C24.2987 252.091 24.1982 254.235 24.1982 256.882C24.1982 259.529 24.2987 261.674 24.4192 261.674Z" fill="#263238"/>
<path d="M15.1253 261.674C15.2525 261.674 15.3462 259.529 15.3462 256.882C15.3462 254.235 15.2525 252.091 15.1253 252.091C14.998 252.091 14.9043 254.235 14.9043 256.882C14.9043 259.529 15.0047 261.674 15.1253 261.674Z" fill="#263238"/>
<path d="M18.0315 261.674C18.1587 261.674 18.2591 259.529 18.2591 256.882C18.2591 254.235 18.1587 252.091 18.0315 252.091C17.9043 252.091 17.8105 254.235 17.8105 256.882C17.8105 259.529 17.911 261.674 18.0315 261.674Z" fill="#263238"/>
<path d="M8.71755 261.674C8.83807 261.674 8.93852 259.529 8.93852 256.882C8.93852 254.235 8.83807 252.091 8.71755 252.091C8.59703 252.091 8.49658 254.235 8.49658 256.882C8.49658 259.529 8.61712 261.674 8.71755 261.674Z" fill="#263238"/>
<path d="M11.6502 261.674C11.7707 261.674 11.8711 259.529 11.8711 256.882C11.8711 254.235 11.7707 252.091 11.6502 252.091C11.5296 252.091 11.4292 254.235 11.4292 256.882C11.4292 259.529 11.5229 261.674 11.6502 261.674Z" fill="#263238"/>
<path d="M5.50391 251.95C5.50391 252.071 17.4556 252.171 32.1995 252.171C46.9433 252.171 58.895 252.071 58.895 251.95C58.895 251.829 46.95 251.729 32.1995 251.729C17.4489 251.729 5.50391 251.829 5.50391 251.95Z" fill="#263238"/>
<path d="M1.1585 271.337H54.3086V261.68H1.1585V271.337Z" fill="#EC615B"/>
<path d="M49.0992 271.404C49.2197 271.404 49.3201 269.253 49.3201 266.612C49.3201 263.972 49.2197 261.821 49.0992 261.821C48.9786 261.821 48.8916 263.939 48.8916 266.619C48.8916 269.3 48.9786 271.404 49.0992 271.404Z" fill="#263238"/>
<path d="M52.0051 271.404C52.1324 271.404 52.2261 269.253 52.2261 266.612C52.2261 263.972 52.1324 261.821 52.0051 261.821C51.8779 261.821 51.7842 263.965 51.7842 266.612C51.7842 269.26 51.8846 271.404 52.0051 271.404Z" fill="#263238"/>
<path d="M42.7117 271.404C42.8389 271.404 42.9326 269.253 42.9326 266.612C42.9326 263.972 42.8389 261.821 42.7117 261.821C42.5845 261.821 42.4907 263.965 42.4907 266.612C42.4907 269.26 42.5912 271.404 42.7117 271.404Z" fill="#263238"/>
<path d="M45.6241 271.404C45.7446 271.404 45.8451 269.253 45.8451 266.612C45.8451 263.972 45.7446 261.821 45.6241 261.821C45.5036 261.821 45.3965 263.965 45.3965 266.612C45.3965 269.26 45.4969 271.404 45.6241 271.404Z" fill="#263238"/>
<path d="M36.3303 271.404C36.4509 271.404 36.5513 269.253 36.5513 266.612C36.5513 263.972 36.4509 261.821 36.3303 261.821C36.2098 261.821 36.1094 263.965 36.1094 266.612C36.1094 269.26 36.2031 271.404 36.3303 271.404Z" fill="#263238"/>
<path d="M39.2366 271.404C39.3571 271.404 39.4575 269.253 39.4575 266.612C39.4575 263.972 39.3571 261.821 39.2366 261.821C39.1161 261.821 39.0156 263.965 39.0156 266.612C39.0156 269.26 39.1161 271.404 39.2366 271.404Z" fill="#263238"/>
<path d="M29.9431 271.404C30.0637 271.404 30.1641 269.253 30.1641 266.612C30.1641 263.972 30.0637 261.821 29.9431 261.821C29.8226 261.821 29.7222 263.965 29.7222 266.612C29.7222 269.26 29.8226 271.404 29.9431 271.404Z" fill="#263238"/>
<path d="M32.822 271.404C32.9426 271.404 33.043 269.253 33.043 266.612C33.043 263.972 32.9426 261.821 32.822 261.821C32.7015 261.821 32.6011 263.965 32.6011 266.612C32.6011 269.26 32.7283 271.404 32.822 271.404Z" fill="#263238"/>
<path d="M23.5554 271.404C23.6759 271.404 23.7764 269.253 23.7764 266.612C23.7764 263.972 23.6759 261.821 23.5554 261.821C23.4349 261.821 23.3345 263.965 23.3345 266.612C23.3345 269.26 23.4483 271.404 23.5554 271.404Z" fill="#263238"/>
<path d="M26.4612 271.404C26.5884 271.404 26.6822 269.253 26.6822 266.612C26.6822 263.972 26.5884 261.821 26.4612 261.821C26.334 261.821 26.2402 263.965 26.2402 266.612C26.2402 269.26 26.3407 271.404 26.4612 271.404Z" fill="#263238"/>
<path d="M17.1677 271.404C17.295 271.404 17.3887 269.253 17.3887 266.612C17.3887 263.972 17.295 261.821 17.1677 261.821C17.0405 261.821 16.9468 263.965 16.9468 266.612C16.9468 269.26 17.0472 271.404 17.1677 271.404Z" fill="#263238"/>
<path d="M20.1004 271.404C20.2209 271.404 20.3213 269.253 20.3213 266.612C20.3213 263.972 20.2209 261.821 20.1004 261.821C19.9798 261.821 19.8794 263.965 19.8794 266.612C19.8794 269.26 19.9531 271.404 20.1004 271.404Z" fill="#263238"/>
<path d="M10.7869 271.404C10.9074 271.404 11.0078 269.253 11.0078 266.612C11.0078 263.972 10.9074 261.821 10.7869 261.821C10.6664 261.821 10.5659 263.965 10.5659 266.612C10.5659 269.26 10.6597 271.404 10.7869 271.404Z" fill="#263238"/>
<path d="M13.6926 271.404C13.8132 271.404 13.9136 269.253 13.9136 266.612C13.9136 263.972 13.8132 261.821 13.6926 261.821C13.5721 261.821 13.4717 263.965 13.4717 266.612C13.4717 269.26 13.5721 271.404 13.6926 271.404Z" fill="#263238"/>
<path d="M4.39919 271.404C4.51971 271.404 4.62016 269.253 4.62016 266.612C4.62016 263.972 4.51971 261.821 4.39919 261.821C4.27867 261.821 4.17822 263.965 4.17822 266.612C4.17822 269.26 4.27867 271.404 4.39919 271.404Z" fill="#263238"/>
<path d="M7.30495 271.404C7.42547 271.404 7.52588 269.253 7.52588 266.612C7.52588 263.972 7.42547 261.821 7.30495 261.821C7.18443 261.821 7.08398 263.965 7.08398 266.612C7.08398 269.26 7.18443 271.404 7.30495 271.404Z" fill="#263238"/>
<path d="M1.1582 261.674C1.1582 261.794 13.1434 261.895 27.9408 261.895C42.7382 261.895 54.7234 261.794 54.7234 261.674C54.7234 261.553 42.7449 261.453 27.9408 261.453C13.1367 261.453 1.1582 261.553 1.1582 261.674Z" fill="#263238"/>
<path d="M5.32306 280.92H58.4731V271.263H5.32306V280.92Z" fill="#EC615B"/>
<path d="M53.2639 280.98C53.3912 280.98 53.4849 278.836 53.4849 276.195C53.4849 273.555 53.3912 271.404 53.2639 271.404C53.1367 271.404 53.043 273.548 53.043 276.195C53.043 278.842 53.1434 280.98 53.2639 280.98Z" fill="#263238"/>
<path d="M56.1764 280.98C56.2969 280.98 56.3974 278.836 56.3974 276.195C56.3974 273.555 56.2969 271.404 56.1764 271.404C56.0559 271.404 55.9487 273.548 55.9487 276.195C55.9487 278.842 56.0492 280.98 56.1764 280.98Z" fill="#263238"/>
<path d="M46.8831 280.98C47.0036 280.98 47.104 278.836 47.104 276.195C47.104 273.555 47.0036 271.404 46.8831 271.404C46.7626 271.404 46.6621 273.548 46.6621 276.195C46.6621 278.842 46.7559 280.98 46.8831 280.98Z" fill="#263238"/>
<path d="M49.7888 280.98C49.9094 280.98 50.0098 278.836 50.0098 276.195C50.0098 273.555 49.9094 271.404 49.7888 271.404C49.6683 271.404 49.5679 273.548 49.5679 276.195C49.5679 278.842 49.6683 280.98 49.7888 280.98Z" fill="#263238"/>
<path d="M40.4954 280.98C40.6159 280.98 40.7163 278.836 40.7163 276.195C40.7163 273.555 40.6159 271.404 40.4954 271.404C40.3749 271.404 40.2744 273.548 40.2744 276.195C40.2744 278.842 40.3749 280.98 40.4954 280.98Z" fill="#263238"/>
<path d="M43.4011 280.98C43.5217 280.98 43.6221 278.836 43.6221 276.195C43.6221 273.555 43.5217 271.404 43.4011 271.404C43.2806 271.404 43.1802 273.548 43.1802 276.195C43.1802 278.842 43.2806 280.98 43.4011 280.98Z" fill="#263238"/>
<path d="M34.1076 280.98C34.2282 280.98 34.3286 278.836 34.3286 276.195C34.3286 273.555 34.2282 271.404 34.1076 271.404C33.9871 271.404 33.8867 273.548 33.8867 276.195C33.8867 278.842 33.9871 280.98 34.1076 280.98Z" fill="#263238"/>
<path d="M37.0134 280.98C37.1407 280.98 37.2344 278.836 37.2344 276.195C37.2344 273.555 37.1407 271.404 37.0134 271.404C36.8862 271.404 36.7925 273.548 36.7925 276.195C36.7925 278.842 36.8929 280.98 37.0134 280.98Z" fill="#263238"/>
<path d="M27.72 280.98C27.8472 280.98 27.941 278.836 27.941 276.195C27.941 273.555 27.8472 271.404 27.72 271.404C27.5928 271.404 27.499 273.548 27.499 276.195C27.499 278.842 27.5995 280.98 27.72 280.98Z" fill="#263238"/>
<path d="M30.6324 280.98C30.7529 280.98 30.8534 278.836 30.8534 276.195C30.8534 273.555 30.7529 271.404 30.6324 271.404C30.5119 271.404 30.4048 273.548 30.4048 276.195C30.4048 278.842 30.5052 280.98 30.6324 280.98Z" fill="#263238"/>
<path d="M21.3391 280.98C21.4596 280.98 21.5601 278.836 21.5601 276.195C21.5601 273.555 21.4596 271.404 21.3391 271.404C21.2186 271.404 21.1182 273.548 21.1182 276.195C21.1182 278.842 21.2119 280.98 21.3391 280.98Z" fill="#263238"/>
<path d="M24.2449 280.98C24.3654 280.98 24.4659 278.836 24.4659 276.195C24.4659 273.555 24.3654 271.404 24.2449 271.404C24.1244 271.404 24.0239 273.548 24.0239 276.195C24.0239 278.842 24.1177 280.98 24.2449 280.98Z" fill="#263238"/>
<path d="M14.9514 280.98C15.072 280.98 15.1724 278.836 15.1724 276.195C15.1724 273.555 15.072 271.404 14.9514 271.404C14.8309 271.404 14.7305 273.548 14.7305 276.195C14.7305 278.842 14.8309 280.98 14.9514 280.98Z" fill="#263238"/>
<path d="M17.8572 280.98C17.9777 280.98 18.0781 278.836 18.0781 276.195C18.0781 273.555 17.9777 271.404 17.8572 271.404C17.7367 271.404 17.6362 273.548 17.6362 276.195C17.6362 278.842 17.7367 280.98 17.8572 280.98Z" fill="#263238"/>
<path d="M8.56374 280.98C8.68426 280.98 8.78467 278.836 8.78467 276.195C8.78467 273.555 8.68426 271.404 8.56374 271.404C8.44322 271.404 8.34277 273.548 8.34277 276.195C8.34277 278.842 8.44322 280.98 8.56374 280.98Z" fill="#263238"/>
<path d="M11.4695 280.98C11.5967 280.98 11.6904 278.836 11.6904 276.195C11.6904 273.555 11.5967 271.404 11.4695 271.404C11.3422 271.404 11.2485 273.548 11.2485 276.195C11.2485 278.842 11.3489 280.98 11.4695 280.98Z" fill="#263238"/>
<path d="M5.32959 271.257C5.32959 271.377 17.2813 271.478 32.0252 271.478C46.769 271.478 58.7207 271.377 58.7207 271.257C58.7207 271.136 46.769 271.035 32.0252 271.035C17.2813 271.035 5.32959 271.136 5.32959 271.257Z" fill="#263238"/>
<path d="M-0.00018692 290.717H53.1499V281.061H-0.00018692V290.717Z" fill="#EC615B"/>
<path d="M47.9407 290.784C48.0612 290.784 48.1616 288.633 48.1616 285.993C48.1616 283.352 48.0612 281.201 47.9407 281.201C47.8202 281.201 47.7197 283.346 47.7197 285.993C47.7197 288.64 47.8202 290.784 47.9407 290.784Z" fill="#263238"/>
<path d="M50.8469 290.784C50.9674 290.784 51.0679 288.633 51.0679 285.993C51.0679 283.352 50.9674 281.201 50.8469 281.201C50.7264 281.201 50.626 283.346 50.626 285.993C50.626 288.64 50.7264 290.784 50.8469 290.784Z" fill="#263238"/>
<path d="M41.5266 290.784C41.6472 290.784 41.7476 288.633 41.7476 285.993C41.7476 283.352 41.6472 281.201 41.5266 281.201C41.4061 281.201 41.3057 283.346 41.3057 285.993C41.3057 288.64 41.4329 290.784 41.5266 290.784Z" fill="#263238"/>
<path d="M44.4592 290.784C44.5865 290.784 44.6802 288.633 44.6802 285.993C44.6802 283.352 44.5865 281.201 44.4592 281.201C44.332 281.201 44.2383 283.346 44.2383 285.993C44.2383 288.64 44.3387 290.784 44.4592 290.784Z" fill="#263238"/>
<path d="M35.1653 290.784C35.2925 290.784 35.3863 288.633 35.3863 285.993C35.3863 283.352 35.2925 281.201 35.1653 281.201C35.0381 281.201 34.9443 283.346 34.9443 285.993C34.9443 288.64 35.0448 290.784 35.1653 290.784Z" fill="#263238"/>
<path d="M38.0783 290.784C38.1989 290.784 38.2993 288.633 38.2993 285.993C38.2993 283.352 38.1989 281.201 38.0783 281.201C37.9578 281.201 37.8574 283.346 37.8574 285.993C37.8574 288.64 37.9511 290.784 38.0783 290.784Z" fill="#263238"/>
<path d="M28.8045 290.784C28.925 290.784 29.0254 288.633 29.0254 285.993C29.0254 283.352 28.925 281.201 28.8045 281.201C28.6839 281.201 28.5835 283.346 28.5835 285.993C28.5835 288.64 28.6572 290.784 28.8045 290.784Z" fill="#263238"/>
<path d="M31.6907 290.784C31.8112 290.784 31.9117 288.633 31.9117 285.993C31.9117 283.352 31.8112 281.201 31.6907 281.201C31.5702 281.201 31.4697 283.346 31.4697 285.993C31.4697 288.64 31.5702 290.784 31.6907 290.784Z" fill="#263238"/>
<path d="M22.3967 290.784C22.5173 290.784 22.6177 288.633 22.6177 285.993C22.6177 283.352 22.5173 281.201 22.3967 281.201C22.2762 281.201 22.1758 283.346 22.1758 285.993C22.1758 288.64 22.2762 290.784 22.3967 290.784Z" fill="#263238"/>
<path d="M25.303 290.784C25.4235 290.784 25.5239 288.633 25.5239 285.993C25.5239 283.352 25.4235 281.201 25.303 281.201C25.1825 281.201 25.082 283.346 25.082 285.993C25.082 288.64 25.1825 290.784 25.303 290.784Z" fill="#263238"/>
<path d="M16.0091 290.784C16.1296 290.784 16.23 288.633 16.23 285.993C16.23 283.352 16.1296 281.201 16.0091 281.201C15.8885 281.201 15.7881 283.346 15.7881 285.993C15.7881 288.64 15.8885 290.784 16.0091 290.784Z" fill="#263238"/>
<path d="M18.9153 290.784C19.0425 290.784 19.1362 288.633 19.1362 285.993C19.1362 283.352 19.0425 281.201 18.9153 281.201C18.788 281.201 18.6943 283.346 18.6943 285.993C18.6943 288.64 18.7947 290.784 18.9153 290.784Z" fill="#263238"/>
<path d="M9.62181 290.784C9.74902 290.784 9.84277 288.633 9.84277 285.993C9.84277 283.352 9.74902 281.201 9.62181 281.201C9.49459 281.201 9.40088 283.346 9.40088 285.993C9.40088 288.64 9.50128 290.784 9.62181 290.784Z" fill="#263238"/>
<path d="M12.5344 290.784C12.655 290.784 12.7554 288.633 12.7554 285.993C12.7554 283.352 12.655 281.201 12.5344 281.201C12.4139 281.201 12.3135 283.346 12.3135 285.993C12.3135 288.64 12.4072 290.784 12.5344 290.784Z" fill="#263238"/>
<path d="M3.2405 290.784C3.36102 290.784 3.46147 288.633 3.46147 285.993C3.46147 283.352 3.36102 281.201 3.2405 281.201C3.11998 281.201 3.01953 283.346 3.01953 285.993C3.01953 288.64 3.11328 290.784 3.2405 290.784Z" fill="#263238"/>
<path d="M6.14671 290.784C6.26723 290.784 6.36768 288.633 6.36768 285.993C6.36768 283.352 6.26723 281.201 6.14671 281.201C6.02619 281.201 5.92578 283.346 5.92578 285.993C5.92578 288.64 6.03958 290.784 6.14671 290.784Z" fill="#263238"/>
<path d="M0.0131836 281.054C0.0131836 281.175 11.9649 281.275 26.7087 281.275C41.4526 281.275 53.411 281.175 53.411 281.054C53.411 280.933 41.4593 280.833 26.7087 280.833C11.9582 280.833 0.0131836 280.933 0.0131836 281.054Z" fill="#263238"/>
<path d="M3.32745 300.488H56.4775V290.831H3.32745V300.488Z" fill="#EC615B"/>
<path d="M51.2752 300.555C51.3957 300.555 51.4961 298.404 51.4961 295.763C51.4961 293.123 51.3957 290.972 51.2752 290.972C51.1546 290.972 51.0542 293.116 51.0542 295.763C51.0542 298.41 51.1479 300.555 51.2752 300.555Z" fill="#263238"/>
<path d="M54.1814 300.555C54.3019 300.555 54.4023 298.404 54.4023 295.763C54.4023 293.123 54.3019 290.972 54.1814 290.972C54.0609 290.972 53.9604 293.116 53.9604 295.763C53.9604 298.41 54.0542 300.555 54.1814 300.555Z" fill="#263238"/>
<path d="M44.8743 300.555C44.9948 300.555 45.0953 298.404 45.0953 295.763C45.0953 293.123 44.9948 290.972 44.8743 290.972C44.7538 290.972 44.6533 293.116 44.6533 295.763C44.6533 298.41 44.7672 300.555 44.8743 300.555Z" fill="#263238"/>
<path d="M47.7937 300.555C47.9142 300.555 48.0146 298.404 48.0146 295.763C48.0146 293.123 47.9142 290.972 47.7937 290.972C47.6732 290.972 47.5728 293.116 47.5728 295.763C47.5728 298.41 47.6732 300.555 47.7937 300.555Z" fill="#263238"/>
<path d="M38.4997 300.555C38.6203 300.555 38.7207 298.404 38.7207 295.763C38.7207 293.123 38.6203 290.972 38.4997 290.972C38.3792 290.972 38.2788 293.116 38.2788 295.763C38.2788 298.41 38.3792 300.555 38.4997 300.555Z" fill="#263238"/>
<path d="M41.406 300.555C41.5265 300.555 41.627 298.404 41.627 295.763C41.627 293.123 41.5265 290.972 41.406 290.972C41.2855 290.972 41.1851 293.116 41.1851 295.763C41.1851 298.41 41.2855 300.555 41.406 300.555Z" fill="#263238"/>
<path d="M32.1121 300.555C32.2393 300.555 32.333 298.404 32.333 295.763C32.333 293.123 32.2393 290.972 32.1121 290.972C31.9849 290.972 31.8911 293.116 31.8911 295.763C31.8911 298.41 31.9916 300.555 32.1121 300.555Z" fill="#263238"/>
<path d="M35.0183 300.555C35.1455 300.555 35.246 298.404 35.246 295.763C35.246 293.123 35.1455 290.972 35.0183 290.972C34.8911 290.972 34.7974 293.116 34.7974 295.763C34.7974 298.41 34.8978 300.555 35.0183 300.555Z" fill="#263238"/>
<path d="M25.7312 300.555C25.8517 300.555 25.9521 298.404 25.9521 295.763C25.9521 293.123 25.8517 290.972 25.7312 290.972C25.6107 290.972 25.5103 293.116 25.5103 295.763C25.5103 298.41 25.604 300.555 25.7312 300.555Z" fill="#263238"/>
<path d="M28.6375 300.555C28.758 300.555 28.8584 298.404 28.8584 295.763C28.8584 293.123 28.758 290.972 28.6375 290.972C28.517 290.972 28.4165 293.116 28.4165 295.763C28.4165 298.41 28.5103 300.555 28.6375 300.555Z" fill="#263238"/>
<path d="M19.3435 300.555C19.464 300.555 19.5645 298.404 19.5645 295.763C19.5645 293.123 19.464 290.972 19.3435 290.972C19.223 290.972 19.1226 293.116 19.1226 295.763C19.1226 298.41 19.223 300.555 19.3435 300.555Z" fill="#263238"/>
<path d="M22.2498 300.555C22.3703 300.555 22.4707 298.404 22.4707 295.763C22.4707 293.123 22.3703 290.972 22.2498 290.972C22.1293 290.972 22.0288 293.116 22.0288 295.763C22.0288 298.41 22.1092 300.555 22.2498 300.555Z" fill="#263238"/>
<path d="M12.9558 300.555C13.0764 300.555 13.1768 298.404 13.1768 295.763C13.1768 293.123 13.0764 290.972 12.9558 290.972C12.8353 290.972 12.7349 293.116 12.7349 295.763C12.7349 298.41 12.8353 300.555 12.9558 300.555Z" fill="#263238"/>
<path d="M15.862 300.555C15.9826 300.555 16.083 298.404 16.083 295.763C16.083 293.123 15.9826 290.972 15.862 290.972C15.7415 290.972 15.6411 293.116 15.6411 295.763C15.6411 298.41 15.7415 300.555 15.862 300.555Z" fill="#263238"/>
<path d="M6.56858 300.555C6.6958 300.555 6.78955 298.404 6.78955 295.763C6.78955 293.123 6.6958 290.972 6.56858 290.972C6.44137 290.972 6.34766 293.116 6.34766 295.763C6.34766 298.41 6.44806 300.555 6.56858 300.555Z" fill="#263238"/>
<path d="M9.47439 300.555C9.6016 300.555 9.70202 298.404 9.70202 295.763C9.70202 293.123 9.6016 290.972 9.47439 290.972C9.34717 290.972 9.25342 293.116 9.25342 295.763C9.25342 298.41 9.38734 300.555 9.47439 300.555Z" fill="#263238"/>
<path d="M3.36133 290.824C3.36133 290.945 15.3399 291.046 30.1439 291.046C44.948 291.046 56.9265 290.945 56.9265 290.824C56.9265 290.704 44.948 290.603 30.1439 290.603C15.3399 290.603 3.36133 290.704 3.36133 290.824Z" fill="#263238"/>
<path d="M7.49932 310.071H60.6494V300.414H7.49932V310.071Z" fill="#EC615B"/>
<path d="M55.4402 310.131C55.5607 310.131 55.6611 307.987 55.6611 305.346C55.6611 302.706 55.5607 300.555 55.4402 300.555C55.3197 300.555 55.2192 302.699 55.2192 305.346C55.2192 307.993 55.3197 310.131 55.4402 310.131Z" fill="#263238"/>
<path d="M58.346 310.131C58.4665 310.131 58.5669 307.987 58.5669 305.346C58.5669 302.706 58.4665 300.555 58.346 300.555C58.2254 300.555 58.125 302.699 58.125 305.346C58.125 307.993 58.2254 310.131 58.346 310.131Z" fill="#263238"/>
<path d="M49.0525 310.131C49.173 310.131 49.2735 307.987 49.2735 305.346C49.2735 302.706 49.173 300.555 49.0525 300.555C48.932 300.555 48.8315 302.699 48.8315 305.346C48.8315 307.993 48.932 310.131 49.0525 310.131Z" fill="#263238"/>
<path d="M51.9583 310.131C52.0788 310.131 52.1792 307.987 52.1792 305.346C52.1792 302.706 52.0788 300.555 51.9583 300.555C51.8378 300.555 51.7373 302.699 51.7373 305.346C51.7373 307.993 51.8378 310.131 51.9583 310.131Z" fill="#263238"/>
<path d="M42.6648 310.131C42.792 310.131 42.8858 307.987 42.8858 305.346C42.8858 302.706 42.792 300.555 42.6648 300.555C42.5376 300.555 42.4438 302.699 42.4438 305.346C42.4438 307.993 42.5443 310.131 42.6648 310.131Z" fill="#263238"/>
<path d="M45.5437 310.131C45.6709 310.131 45.7647 307.987 45.7647 305.346C45.7647 302.706 45.6709 300.555 45.5437 300.555C45.4165 300.555 45.3228 302.699 45.3228 305.346C45.3228 307.993 45.45 310.131 45.5437 310.131Z" fill="#263238"/>
<path d="M36.2839 310.131C36.4044 310.131 36.5049 307.987 36.5049 305.346C36.5049 302.706 36.4044 300.555 36.2839 300.555C36.1634 300.555 36.063 302.699 36.063 305.346C36.063 307.993 36.1701 310.131 36.2839 310.131Z" fill="#263238"/>
<path d="M39.1897 310.131C39.3102 310.131 39.4107 307.987 39.4107 305.346C39.4107 302.706 39.3102 300.555 39.1897 300.555C39.0692 300.555 38.9688 302.699 38.9688 305.346C38.9688 307.993 39.0625 310.131 39.1897 310.131Z" fill="#263238"/>
<path d="M29.8963 310.131C30.0168 310.131 30.1172 307.987 30.1172 305.346C30.1172 302.706 30.0168 300.555 29.8963 300.555C29.7757 300.555 29.6753 302.699 29.6753 305.346C29.6753 307.993 29.7757 310.131 29.8963 310.131Z" fill="#263238"/>
<path d="M32.822 310.131C32.9426 310.131 33.043 307.987 33.043 305.346C33.043 302.706 32.9426 300.555 32.822 300.555C32.7015 300.555 32.6011 302.699 32.6011 305.346C32.6011 307.993 32.6814 310.131 32.822 310.131Z" fill="#263238"/>
<path d="M23.5086 310.131C23.6291 310.131 23.7295 307.987 23.7295 305.346C23.7295 302.706 23.6291 300.555 23.5086 300.555C23.388 300.555 23.2876 302.699 23.2876 305.346C23.2876 307.993 23.388 310.131 23.5086 310.131Z" fill="#263238"/>
<path d="M26.4143 310.131C26.5348 310.131 26.6353 307.987 26.6353 305.346C26.6353 302.706 26.5348 300.555 26.4143 300.555C26.2938 300.555 26.1934 302.699 26.1934 305.346C26.1934 307.993 26.2938 310.131 26.4143 310.131Z" fill="#263238"/>
<path d="M17.1209 310.131C17.2481 310.131 17.3418 307.987 17.3418 305.346C17.3418 302.706 17.2481 300.555 17.1209 300.555C16.9937 300.555 16.8999 302.699 16.8999 305.346C16.8999 307.993 17.0003 310.131 17.1209 310.131Z" fill="#263238"/>
<path d="M20.0266 310.131C20.1538 310.131 20.2543 307.987 20.2543 305.346C20.2543 302.706 20.1538 300.555 20.0266 300.555C19.8994 300.555 19.8057 302.699 19.8057 305.346C19.8057 307.993 19.9061 310.131 20.0266 310.131Z" fill="#263238"/>
<path d="M10.7263 310.131C10.8469 310.131 10.9473 307.987 10.9473 305.346C10.9473 302.706 10.8469 300.555 10.7263 300.555C10.6058 300.555 10.5054 302.699 10.5054 305.346C10.5054 307.993 10.6125 310.131 10.7263 310.131Z" fill="#263238"/>
<path d="M13.6457 310.131C13.7663 310.131 13.8667 307.987 13.8667 305.346C13.8667 302.706 13.7663 300.555 13.6457 300.555C13.5252 300.555 13.4248 302.699 13.4248 305.346C13.4248 307.993 13.5185 310.131 13.6457 310.131Z" fill="#263238"/>
<path d="M7.49902 300.407C7.49902 300.528 19.4508 300.628 34.1946 300.628C48.9384 300.628 60.8901 300.528 60.8901 300.407C60.8901 300.287 48.9451 300.186 34.1946 300.186C19.4441 300.186 7.49902 300.287 7.49902 300.407Z" fill="#263238"/>
<g opacity="0.3">
<path d="M54.3083 261.674C46.3673 263.63 37.9106 264.006 29.7553 263.463C21.6 262.92 13.3644 261.72 5.18896 261.821L54.3083 261.674Z" fill="black"/>
</g>
<g opacity="0.3">
<path d="M53.8265 252.057C45.8921 254.014 37.4355 254.389 29.2802 253.847C21.1249 253.304 12.8893 252.104 4.71387 252.205L53.8265 252.057Z" fill="black"/>
</g>
<g opacity="0.3">
<path d="M51.2552 271.357C43.3209 273.307 34.8575 273.682 26.7022 273.14C18.5469 272.597 10.3113 271.397 2.14258 271.498L51.2552 271.357Z" fill="black"/>
</g>
<g opacity="0.3">
<path d="M53.3377 281C45.4034 282.95 36.9468 283.326 28.7914 282.783C20.6361 282.24 12.4005 281.04 4.2251 281.141L53.3377 281Z" fill="black"/>
</g>
<g opacity="0.3">
<path d="M52.7082 290.603C44.7671 292.553 36.3105 292.929 28.1552 292.386C19.9999 291.843 11.7643 290.643 3.58887 290.744L52.7082 290.603Z" fill="black"/>
</g>
<g opacity="0.3">
<path d="M55.3059 300.387C47.3648 302.344 38.9082 302.719 30.7529 302.176C22.5976 301.634 14.3619 300.434 6.18652 300.535L55.3059 300.387Z" fill="black"/>
</g>
<path d="M54.1946 248.747C54.3218 248.747 54.4155 247.561 54.4155 246.1C54.4155 244.639 54.3218 243.453 54.1946 243.453C54.0673 243.453 53.9736 244.639 53.9736 246.1C53.9736 247.561 54.074 248.747 54.1946 248.747Z" fill="white"/>
<path d="M57.5491 259.067C57.6696 259.067 57.7701 257.794 57.7701 256.225C57.7701 254.657 57.6696 253.391 57.5491 253.391C57.4286 253.391 57.3281 254.657 57.3281 256.225C57.3281 257.794 57.4286 259.067 57.5491 259.067Z" fill="white"/>
<path d="M52.782 268.998C52.9025 268.998 53.003 267.872 53.003 266.485C53.003 265.098 52.9092 263.939 52.782 263.939C52.6548 263.939 52.561 265.065 52.561 266.458C52.561 267.852 52.6548 268.998 52.782 268.998Z" fill="white"/>
<path d="M57.6765 278.159C57.7971 278.159 57.8975 277.147 57.8975 275.901C57.8975 274.654 57.7971 273.642 57.6765 273.642C57.556 273.642 57.4556 274.654 57.4556 275.901C57.4556 277.147 57.556 278.159 57.6765 278.159Z" fill="white"/>
<path d="M38.2119 252.741C38.2119 252.868 42.1356 252.962 46.9765 252.962C51.8175 252.962 55.7411 252.868 55.7411 252.741C55.7411 252.613 51.8175 252.52 46.9765 252.52C42.1356 252.52 38.2119 252.62 38.2119 252.741Z" fill="white"/>
<path d="M32.541 243.453C32.541 243.573 36.4981 243.674 41.3726 243.674C46.247 243.674 50.2042 243.573 50.2042 243.453C50.2042 243.332 46.247 243.232 41.3726 243.232C36.4981 243.232 32.541 243.332 32.541 243.453Z" fill="white"/>
<path d="M24.0376 243.58C24.0376 243.707 25.3299 243.808 26.9368 243.808C28.5438 243.808 29.836 243.707 29.836 243.58C29.836 243.453 28.5371 243.359 26.9368 243.359C25.3366 243.359 24.0376 243.459 24.0376 243.58Z" fill="white"/>
<path d="M52.3937 290.369C52.6068 287.916 52.6068 285.45 52.3937 282.997C52.1806 285.45 52.1806 287.916 52.3937 290.369Z" fill="white"/>
<path d="M12.0054 279.915C12.0054 280.002 21.6739 280.075 33.5922 280.075C45.5105 280.075 55.179 280.002 55.179 279.915C55.179 279.827 45.5171 279.754 33.5922 279.754C21.6672 279.754 12.0054 279.821 12.0054 279.915Z" fill="white"/>
<path d="M20.6426 299.456C20.6426 299.543 28.2823 299.617 37.6964 299.617C47.1105 299.617 54.7569 299.543 54.7569 299.456C54.7569 299.369 47.1239 299.288 37.6964 299.288C28.2689 299.288 20.6426 299.335 20.6426 299.456Z" fill="white"/>
<path d="M59.9126 308.208C60.1269 306.822 60.1269 305.412 59.9126 304.026C59.6984 305.412 59.6984 306.822 59.9126 308.208Z" fill="white"/>
<path d="M22.3101 309.045C22.3101 309.132 30.231 309.206 40 309.206C49.7689 309.206 57.6832 309.132 57.6832 309.045C57.6832 308.958 49.7689 308.885 40 308.885C30.231 308.885 22.3101 308.952 22.3101 309.045Z" fill="white"/>
<path d="M60.6491 310.071C60.6591 310.013 60.6591 309.954 60.6491 309.896C60.6491 309.756 60.6491 309.588 60.6491 309.38C60.6491 308.905 60.6491 308.255 60.6491 307.43C60.6491 305.708 60.6826 303.276 60.7094 300.32V300.193H60.5755H56.7857L56.9331 300.334C56.9331 297.432 56.9331 294.162 56.9331 290.69V290.53H53.2504L53.4178 290.697C53.4178 287.192 53.4178 283.882 53.4178 280.9L53.2705 281.047H58.4061H58.5333V280.927C58.5333 277.985 58.4931 275.566 58.4797 273.877C58.4797 273.059 58.4797 272.416 58.4797 271.94C58.4797 271.739 58.4797 271.572 58.4797 271.438C58.5005 271.433 58.5187 271.42 58.531 271.403C58.5432 271.385 58.5486 271.364 58.5461 271.343C58.5436 271.321 58.5334 271.302 58.5175 271.288C58.5016 271.273 58.481 271.266 58.4596 271.266C58.4383 271.266 58.4177 271.273 58.4018 271.288C58.3858 271.302 58.3757 271.321 58.3732 271.343C58.3707 271.364 58.3761 271.385 58.3883 271.403C58.4006 271.42 58.4188 271.433 58.4396 271.438C58.4396 271.572 58.4396 271.739 58.4396 271.94C58.4396 272.416 58.4396 273.059 58.4396 273.877C58.4396 275.579 58.4061 277.985 58.3793 280.927L58.5065 280.799H53.371H53.2236V280.953C53.2236 283.936 53.2236 287.246 53.2236 290.751V290.912H56.8996L56.7389 290.751C56.7389 294.222 56.7389 297.492 56.7389 300.394V300.541H56.8862L60.6759 300.481L60.5487 300.354C60.5487 303.309 60.5889 305.715 60.6023 307.464C60.6023 308.288 60.6023 308.938 60.6023 309.414C60.6023 309.622 60.6023 309.789 60.6023 309.93C60.612 309.979 60.6278 310.026 60.6491 310.071Z" fill="#263238"/>
</g>
<defs>
<clipPath id="clip0_493_29818">
<rect width="462" height="317" fill="white"/>
</clipPath>
</defs>
</svg>
