<svg width="136" height="46" viewBox="0 0 136 46" fill="none" xmlns="http://www.w3.org/2000/svg">
    <g clip-path="url(#clip0_429_6656)">
        <path
            d="M73.1269 5.79539L73.0332 5.8735C72.5506 6.27008 71.9567 6.50677 71.3337 6.55085C70.7107 6.59493 70.0895 6.4442 69.5558 6.11953C68.6673 5.64183 67.668 5.40869 66.66 5.44392C65.4891 5.44392 64.6422 5.65871 64.0646 6.08438C63.7896 6.27872 63.5666 6.53788 63.4155 6.83895C63.2644 7.14001 63.1897 7.47371 63.1982 7.81051C63.1814 8.13514 63.2437 8.459 63.3796 8.75423C63.5156 9.04946 63.7212 9.30724 63.9787 9.50539C64.4991 9.90112 65.4358 10.1615 66.7888 10.2864C71.1521 10.69 73.3324 12.446 73.3298 15.5546C73.3558 16.2806 73.2173 17.0031 72.9246 17.6679C72.6319 18.3327 72.1928 18.9226 71.6399 19.3935C70.5107 20.362 68.8689 20.8462 66.7146 20.8462C63.6392 20.8462 61.3404 19.7593 59.8184 17.5854L61.8244 15.6327C62.3723 16.4142 63.1066 17.0464 63.9605 17.472C64.8145 17.8975 65.7612 18.1029 66.7146 18.0696C69.1838 18.0696 70.4196 17.2326 70.4223 15.5585C70.4362 15.2161 70.3616 14.8759 70.2058 14.5708C70.0499 14.2657 69.8179 14.006 69.5324 13.8168C68.9392 13.408 67.8984 13.1477 66.4102 13.0357C62.3331 12.6869 60.2932 10.9647 60.2906 7.86908C60.2643 7.1425 60.4104 6.42002 60.717 5.76087C61.0237 5.10173 61.4821 4.52469 62.0547 4.07708C63.2125 3.14763 64.7736 2.68291 66.738 2.68291C68.087 2.65476 69.4237 2.94368 70.6408 3.52644C71.6774 4.01732 72.5433 4.80759 73.1269 5.79539Z"
            fill="#181918"
        />
        <path
            d="M75.96 2.98752C76.7373 2.98752 77.4828 3.29651 78.0325 3.84653C78.5822 4.39654 78.891 5.14253 78.891 5.92036V9.78266C79.2792 9.13841 79.8331 8.61016 80.4949 8.25299C81.1566 7.89581 81.9019 7.72278 82.6532 7.75193C84.3236 7.75193 85.6246 8.27263 86.556 9.31403C87.4875 10.3554 87.9467 11.8524 87.9337 13.8051V20.5455H84.9988V14.1487C84.9988 11.6572 84.0296 10.4114 82.0912 10.4114C81.6502 10.3884 81.2098 10.4669 80.8038 10.6409C80.3979 10.8149 80.0372 11.0798 79.7496 11.4151C79.151 12.1961 78.8519 13.166 78.9066 14.1487V20.5455H75.9756L75.96 2.98752Z"
            fill="#181918"
        />
        <path
            d="M102.05 17.6361L102.206 17.7377C101.106 19.7762 99.2337 20.7955 96.5902 20.7955C94.6857 20.7955 93.1818 20.198 92.0786 19.003C90.9754 17.808 90.4238 16.2315 90.4238 14.2737C90.4238 12.3523 90.9793 10.7902 92.0903 9.5874C92.649 8.98358 93.3319 8.50818 94.0919 8.194C94.8519 7.87982 95.671 7.73432 96.4927 7.76755C98.2437 7.76755 99.6474 8.31559 100.704 9.41166C101.76 10.5077 102.287 11.9501 102.284 13.7387C102.292 14.2509 102.259 14.7629 102.183 15.2695H93.2338C93.3101 16.1237 93.6927 16.9213 94.311 17.5151C94.9656 18.0608 95.8017 18.3397 96.6527 18.2961C97.4748 18.3207 98.287 18.1107 98.9944 17.6908C99.4426 17.3838 99.971 17.215 100.514 17.2053C101.057 17.1956 101.591 17.3454 102.05 17.6361ZM96.5161 10.2357C95.7372 10.201 94.9721 10.4493 94.3617 10.9347C93.7596 11.4715 93.3681 12.2052 93.2573 13.0045H99.4237C99.4362 12.6345 99.3735 12.2657 99.2393 11.9207C99.1051 11.5756 98.9023 11.2614 98.6431 10.9972C98.3582 10.7334 98.0229 10.5299 97.6573 10.3991C97.2918 10.2682 96.9036 10.2126 96.5161 10.2357Z"
            fill="#181918"
        />
        <path
            d="M104.864 2.98752H107.799V14.3987L110.945 10.6848C111.655 9.84405 112.539 9.16842 113.537 8.70504C114.534 8.24166 115.621 8.00169 116.721 8.00187L112.26 13.0787L116.943 20.5534H113.661L110.449 15.1758L107.819 18.1868V20.5299H104.884L104.864 2.98752Z"
            fill="#181918"
        />
        <path
            d="M129.573 17.6361L129.729 17.7377C128.628 19.7762 126.756 20.7955 124.113 20.7955C122.208 20.7955 120.704 20.198 119.601 19.003C118.498 17.808 117.946 16.2315 117.946 14.2737C117.946 12.3523 118.502 10.7902 119.613 9.5874C120.171 8.98358 120.854 8.50818 121.614 8.194C122.374 7.87982 123.193 7.73432 124.015 7.76755C125.769 7.76755 127.172 8.31559 128.226 9.41166C129.28 10.5077 129.807 11.9501 129.807 13.7387C129.815 14.2509 129.781 14.7629 129.705 15.2695H120.76C120.836 16.1237 121.219 16.9213 121.837 17.5151C122.492 18.0608 123.328 18.3397 124.179 18.2961C125.001 18.3207 125.813 18.1107 126.521 17.6908C126.969 17.3846 127.496 17.2163 128.039 17.2066C128.581 17.1969 129.114 17.3462 129.573 17.6361ZM124.042 10.2357C123.264 10.201 122.498 10.4493 121.888 10.9347C121.286 11.4715 120.894 12.2052 120.784 13.0045H126.95C126.963 12.6345 126.9 12.2657 126.766 11.9207C126.631 11.5756 126.429 11.2614 126.169 10.9972C125.885 10.7334 125.549 10.5299 125.184 10.3991C124.818 10.2682 124.43 10.2126 124.042 10.2357Z"
            fill="#181918"
        />
        <path d="M132.391 2.98752H135.326V20.5612H132.391V2.98752Z" fill="#181918" />
        <path
            d="M38.6377 1.26846e-07L27.6396 15.0743L23.9358 15.4453C22.7618 15.5676 21.6475 16.0245 20.7253 16.7617C19.8032 17.499 19.1118 18.4856 18.7334 19.6044L15.1663 30.1486H0L6.79477 4.58086C7.14483 3.26691 7.91888 2.10547 8.9966 1.27707C10.0743 0.448675 11.3953 -0.00027551 12.7543 1.26846e-07H38.6377Z"
            fill="#FCBD31"
        />
        <path
            d="M4.96387 46L15.9619 30.9257L19.6657 30.5352C20.8412 30.4172 21.9581 29.9641 22.8838 29.2296C23.8095 28.4951 24.505 27.5101 24.8876 26.3917L28.4548 15.8475H43.6015L36.8068 41.4191C36.4569 42.7325 35.6834 43.8934 34.6065 44.7217C33.5295 45.5501 32.2094 45.9994 30.8511 46H4.96387Z"
            fill="#F96058"
        />
        <path d="M41.9355 40.3335H44.328V40.8099H43.3913V43.3483H42.8722V40.8099H41.9355V40.3335Z" fill="#F96058" />
        <path
            d="M44.835 40.3335H45.4555L46.361 42.6259L47.2703 40.3335H47.8909V43.3483H47.3874V41.2121L46.5327 43.3483H46.1892L45.3345 41.2121V43.3483H44.835V40.3335Z"
            fill="#F96058"
        />
        <path
            d="M59.8145 26.4698H62.8352L67.261 37.6584L71.7063 26.4698H74.727V41.1653H74.0284C73.5633 41.1643 73.1176 40.9787 72.7891 40.6492C72.4606 40.3197 72.2761 39.8733 72.2761 39.4079V30.7305L68.1001 41.1653H66.4219L62.2498 30.7305V39.4079C62.2488 39.8737 62.0634 40.3201 61.7343 40.6494C61.4051 40.9788 60.959 41.1643 60.4935 41.1653H59.8145V26.4698Z"
            fill="#181918"
        />
        <path
            d="M78.7745 31.9801C79.8008 31.0047 81.1623 30.4608 82.5778 30.4608C83.9933 30.4608 85.3547 31.0047 86.381 31.9801C86.8723 32.5094 87.2539 33.1308 87.5037 33.8085C87.7536 34.4861 87.8668 35.2066 87.8368 35.9283C87.8652 36.6481 87.7513 37.3664 87.5015 38.0419C87.2516 38.7175 86.8709 39.337 86.381 39.8648C85.3547 40.8403 83.9933 41.3842 82.5778 41.3842C81.1623 41.3842 79.8008 40.8403 78.7745 39.8648C78.2867 39.3361 77.9081 38.7161 77.6603 38.0406C77.4125 37.3651 77.3004 36.6473 77.3304 35.9283C77.2988 35.2074 77.4102 34.4874 77.658 33.8098C77.9059 33.1322 78.2853 32.5103 78.7745 31.9801ZM84.6287 33.5422C84.3712 33.2512 84.0516 33.0219 83.6935 32.8711C83.3355 32.7204 82.9481 32.6521 82.5602 32.6714C82.1744 32.6511 81.789 32.7189 81.4333 32.8698C81.0777 33.0207 80.761 33.2507 80.5073 33.5422C79.99 34.2102 79.7283 35.0413 79.7697 35.8854C79.7283 36.7295 79.99 37.5605 80.5073 38.2285C80.761 38.5201 81.0777 38.7501 81.4333 38.9009C81.789 39.0518 82.1744 39.1197 82.5602 39.0994C82.9481 39.1186 83.3355 39.0504 83.6935 38.8996C84.0516 38.7489 84.3712 38.5195 84.6287 38.2285C85.1496 37.5622 85.4129 36.7303 85.3702 35.8854C85.4134 35.0459 85.1544 34.2188 84.6404 33.5539L84.6287 33.5422Z"
            fill="#181918"
        />
        <path
            d="M95.4308 30.461C96.0539 30.4461 96.6723 30.5734 97.2389 30.8333C97.8056 31.0931 98.3057 31.4786 98.7013 31.9606C99.5547 32.9604 99.9814 34.279 99.9814 35.9166C99.9814 37.5542 99.5677 38.8794 98.7403 39.8922C98.3405 40.373 97.8364 40.7563 97.2663 41.0127C96.6961 41.2692 96.0751 41.3922 95.4503 41.3723C93.9386 41.3723 92.8549 40.7709 92.1993 39.568L92.2812 41.1653H90.0371V28.2272C90.0371 27.7618 90.2216 27.3154 90.5501 26.9859C90.8786 26.6565 91.3244 26.4709 91.7895 26.4698H92.492V31.8435C93.1346 30.9218 94.1142 30.461 95.4308 30.461ZM94.8375 32.6831C94.473 32.6647 94.1094 32.7342 93.7772 32.8858C93.4451 33.0373 93.1543 33.2665 92.9291 33.554C92.4524 34.2392 92.2163 35.0632 92.2578 35.8971C92.2163 36.731 92.4524 37.5551 92.9291 38.2403C93.1543 38.5277 93.4451 38.7569 93.7772 38.9084C94.1094 39.06 94.473 39.1295 94.8375 39.1111C95.2146 39.1361 95.5922 39.072 95.94 38.9242C96.2877 38.7763 96.5959 38.5487 96.8397 38.2598C97.3344 37.568 97.5756 36.7266 97.5227 35.8776C97.5722 35.0326 97.3312 34.196 96.8397 33.5071C96.594 33.2222 96.2847 32.9991 95.9369 32.856C95.5891 32.7128 95.2125 32.6536 94.8375 32.6831Z"
            fill="#181918"
        />
        <path
            d="M102.058 26.2199H104.7V28.8208H102.058V26.2199ZM102.163 30.668H104.618V41.1653H102.163V30.668Z"
            fill="#181918"
        />
        <path d="M107.237 26.4698H109.692V41.1653H107.237V26.4698Z" fill="#181918" />
        <path
            d="M112.209 26.2199H114.851V28.8208H112.209V26.2199ZM112.314 30.668H114.769V41.1653H112.314V30.668Z"
            fill="#181918"
        />
        <path
            d="M116.592 30.668H118.461V27.9343H120.955L120.83 30.668H123.39V32.894H120.912V37.385C120.912 38.5175 121.412 39.0838 122.403 39.0838H123.39V41.3957H122.22C121.002 41.3957 120.069 41.0625 119.421 40.396C118.773 39.7295 118.453 38.761 118.461 37.4905V32.894H116.592V30.668Z"
            fill="#181918"
        />
        <path
            d="M124.187 30.668H126.954L129.963 38.416L132.628 30.668H135.313L130.771 42.1768C130.429 43.163 129.841 44.0451 129.061 44.7386C128.361 45.2903 127.489 45.5791 126.598 45.5548H125.74V44.2114C125.74 43.9504 125.843 43.7001 126.028 43.5155C126.212 43.331 126.462 43.2273 126.723 43.2273C127.504 43.2273 128.074 42.7977 128.464 41.9463L128.854 41.1262L124.187 30.668Z"
            fill="#181918"
        />
    </g>
    <defs>
        <clipPath id="clip0_429_6656">
            <rect width="135.326" height="46" fill="white" />
        </clipPath>
    </defs>
</svg>
