<svg width="356" height="317" viewBox="0 0 356 317" fill="none" xmlns="http://www.w3.org/2000/svg">
<path d="M51.5063 182.863L51.5955 9.76937C51.6084 7.19754 52.6391 4.73543 54.4622 2.92142C56.2853 1.1074 58.7526 0.0890792 61.3244 0.0891113L318.159 0.218827C320.731 0.231686 323.193 1.26237 325.007 3.0855C326.821 4.90863 327.84 7.37587 327.84 9.94773L327.75 183.041C327.75 184.316 327.498 185.579 327.009 186.757C326.519 187.934 325.802 189.004 324.898 189.903C323.994 190.803 322.921 191.515 321.741 191.998C320.561 192.482 319.297 192.728 318.021 192.721L61.1947 192.592C58.6215 192.581 56.1573 191.551 54.3415 189.728C52.5258 187.904 51.5063 185.436 51.5063 182.863Z" fill="#3F3F3F"/>
<path d="M308.625 186.26L308.72 5.927L78.0475 5.80622L77.9531 186.139L308.625 186.26Z" fill="white"/>
<path d="M65.4266 103.71C63.9661 103.708 62.539 103.274 61.3254 102.461C60.1119 101.649 59.1665 100.495 58.6087 99.1449C58.0509 97.7952 57.9058 96.3104 58.1917 94.8782C58.4776 93.446 59.1817 92.1308 60.215 91.0986C61.2482 90.0665 62.5643 89.3639 63.9968 89.0796C65.4293 88.7952 66.9139 88.942 68.263 89.5012C69.6121 90.0605 70.7652 91.0071 71.5764 92.2216C72.3876 93.436 72.8205 94.8636 72.8205 96.3241C72.8205 97.2947 72.6292 98.2558 72.2576 99.1524C71.8859 100.049 71.3411 100.864 70.6544 101.55C69.9677 102.235 69.1525 102.779 68.2555 103.15C67.3585 103.521 66.3972 103.711 65.4266 103.71Z" fill="#181918"/>
<path d="M319.797 124.446L319.827 68.4564C319.827 67.9101 319.384 67.4671 318.838 67.4668L317.768 67.4662C317.222 67.4659 316.779 67.9085 316.778 68.4548L316.749 124.445C316.749 124.991 317.191 125.434 317.738 125.434L318.808 125.435C319.354 125.435 319.797 124.992 319.797 124.446Z" fill="#181918"/>
<path d="M95.2539 11.1802H291.802C294.511 11.1802 297.11 12.2564 299.025 14.1722C300.941 16.0879 302.017 18.6862 302.017 21.3955V151.187H85.0386V21.3955C85.0386 18.6862 86.1148 16.0879 88.0306 14.1722C89.9463 12.2564 92.5446 11.1802 95.2539 11.1802Z" fill="#E0E0E0"/>
<path d="M285.422 161.443C285.422 164.013 243.628 166.088 192.073 166.088C140.518 166.088 98.7158 164.013 98.7158 161.443C98.7158 158.873 140.51 156.797 192.073 156.797C243.636 156.797 285.422 158.905 285.422 161.443Z" fill="#EBEBEB"/>
<path d="M284.497 25.8789C284.484 25.864 284.468 25.852 284.45 25.8436C284.432 25.8353 284.412 25.8307 284.392 25.8302L276.463 25.7816H273.455L273.39 25.3276L273.269 24.4358C273.265 24.4043 273.249 24.3753 273.225 24.3544C273.201 24.3334 273.171 24.322 273.139 24.3223H270.934C270.763 24.3223 270.65 24.3223 270.65 24.4682C270.65 24.6141 270.763 24.606 270.934 24.6141L272.952 24.6547L274.079 33.3458C274.083 33.3781 274.098 33.4081 274.122 33.4303C274.146 33.4526 274.177 33.4657 274.209 33.4674H280.695H283.127C283.33 33.4674 283.435 33.4674 283.435 33.3296C283.435 33.1918 283.33 33.1837 283.127 33.1756L274.444 33.0621L274.233 31.5217L283.362 31.6514C283.394 31.6516 283.425 31.6402 283.449 31.6193C283.473 31.5984 283.488 31.5694 283.492 31.5379L284.173 27.9057L284.53 25.9519C284.528 25.9244 284.517 25.8985 284.497 25.8789ZM273.487 26.0735L284.084 26.2113L283.152 31.2946H276.666H274.233L273.487 26.0735Z" fill="#263238"/>
<path d="M276.625 35.5023C276.581 35.2641 276.451 35.0504 276.26 34.9023C276.12 34.7864 275.952 34.7084 275.774 34.6757C275.595 34.6431 275.41 34.6569 275.238 34.7158C275.027 34.7922 274.844 34.9321 274.714 35.1163C274.585 35.3006 274.515 35.5203 274.515 35.7455C274.515 35.9707 274.585 36.1904 274.714 36.3746C274.844 36.5589 275.027 36.6988 275.238 36.7751C275.359 36.8156 275.485 36.8374 275.611 36.84C275.849 36.8376 276.08 36.758 276.268 36.613C276.461 36.4602 276.596 36.2454 276.649 36.0049C276.662 35.9217 276.662 35.8369 276.649 35.7536C276.653 35.6691 276.645 35.5844 276.625 35.5023ZM275.344 36.4184C275.208 36.3658 275.091 36.2734 275.009 36.1534C274.927 36.0333 274.883 35.8911 274.883 35.7455C274.883 35.5999 274.927 35.4577 275.009 35.3376C275.091 35.2175 275.208 35.1251 275.344 35.0726C275.423 35.0485 275.505 35.0349 275.587 35.032C275.745 35.0289 275.9 35.0804 276.025 35.178C276.158 35.2781 276.257 35.4168 276.309 35.5752V35.7293V35.7779C276.299 35.8302 276.285 35.8816 276.268 35.9319C276.222 36.093 276.122 36.2333 275.984 36.3292C275.891 36.3912 275.785 36.4314 275.674 36.4468C275.563 36.4623 275.45 36.4525 275.344 36.4184Z" fill="#263238"/>
<path d="M282.438 35.5509C282.392 35.3117 282.263 35.0964 282.073 34.9428C281.95 34.8453 281.807 34.7756 281.654 34.7388C281.501 34.7019 281.342 34.6987 281.188 34.7293C281.033 34.76 280.888 34.8238 280.76 34.9163C280.633 35.0088 280.528 35.1279 280.451 35.2652C280.374 35.4025 280.328 35.5549 280.316 35.7117C280.304 35.8686 280.326 36.0262 280.381 36.1736C280.436 36.321 280.522 36.4548 280.634 36.5657C280.745 36.6765 280.88 36.7618 281.028 36.8157C281.144 36.8593 281.268 36.8813 281.392 36.8805C281.633 36.8837 281.867 36.8052 282.057 36.6579C282.247 36.5107 282.381 36.3033 282.438 36.0698C282.447 35.9862 282.447 35.902 282.438 35.8184C282.453 35.7299 282.453 35.6395 282.438 35.5509ZM281.157 36.4833C281.022 36.4305 280.906 36.3379 280.825 36.2177C280.744 36.0974 280.702 35.9554 280.703 35.8103C280.708 35.6656 280.755 35.5254 280.838 35.4072C280.922 35.289 281.038 35.198 281.173 35.1455C281.254 35.1306 281.336 35.1306 281.417 35.1455C281.575 35.1424 281.73 35.194 281.854 35.2915C281.988 35.3916 282.087 35.5303 282.138 35.6887C282.138 35.7536 282.138 35.8103 282.138 35.8428V35.8914C282.127 35.9434 282.114 35.9949 282.098 36.0455C282.05 36.2057 281.95 36.3454 281.814 36.4427C281.716 36.501 281.605 36.5351 281.49 36.5422C281.376 36.5492 281.262 36.529 281.157 36.4833Z" fill="#263238"/>
<path d="M101.683 39.2316L101.967 38.6803C102.585 39.2163 103.379 39.505 104.196 39.4911C105.461 39.4911 106.012 38.9641 106.012 38.2912C106.012 36.4427 101.853 37.5777 101.853 35.0482C101.853 34.0591 102.664 33.1997 104.342 33.1997C105.082 33.1911 105.808 33.3967 106.434 33.7916L106.191 34.3672C105.641 34.0067 105 33.8124 104.342 33.8078C103.102 33.8078 102.559 34.351 102.559 35.032C102.559 36.8805 106.718 35.7617 106.718 38.2263C106.718 39.2154 105.907 40.0667 104.196 40.0667C103.284 40.109 102.389 39.8115 101.683 39.2316Z" fill="#263238"/>
<path d="M108.209 37.1644V33.2971H108.923V37.1319C108.923 38.7534 109.677 39.4669 110.99 39.4669C112.304 39.4669 113.066 38.7372 113.066 37.1319V33.2971H113.763V37.1644C113.763 39.102 112.717 40.1074 110.99 40.1074C109.263 40.1074 108.209 39.102 108.209 37.1644Z" fill="#263238"/>
<path d="M121.198 35.6077C121.198 37.0509 120.16 37.9183 118.441 37.9183H116.625V40.0506H115.936V33.2971H118.466C120.16 33.2971 121.198 34.1646 121.198 35.6077ZM120.484 35.6077C120.484 34.5294 119.771 33.9133 118.425 33.9133H116.625V37.2941H118.425C119.771 37.2941 120.484 36.6698 120.484 35.6077Z" fill="#263238"/>
<path d="M127.521 39.4344V40.0506H122.746V33.2971H127.375V33.9133H123.46V36.3455H126.954V36.9536H123.46V39.4669L127.521 39.4344Z" fill="#263238"/>
<path d="M133.821 40.0506L132.273 37.8778C132.102 37.8778 131.924 37.8778 131.729 37.8778H129.921V40.0181H129.208V33.2646H131.729C133.448 33.2646 134.494 34.1321 134.494 35.5753C134.518 36.053 134.377 36.5244 134.095 36.911C133.813 37.2975 133.408 37.5758 132.946 37.6994L134.567 40.0181L133.821 40.0506ZM133.781 35.6077C133.781 34.5294 133.067 33.9132 131.713 33.9132H129.921V37.294H131.713C133.067 37.294 133.772 36.6698 133.772 35.6077H133.781Z" fill="#263238"/>
<path d="M144.474 35.7456C144.474 37.2536 143.347 38.1778 141.539 38.1778H140.177V40.0425H138.637V33.2891H141.563C143.347 33.2972 144.474 34.2295 144.474 35.7456ZM142.893 35.7456C142.893 34.9997 142.407 34.57 141.45 34.57H140.177V36.9131H141.45C142.407 36.9131 142.893 36.4834 142.893 35.7456Z" fill="#263238"/>
<path d="M149.89 40.0506L148.585 38.1697H147.15V40.0506H145.585V33.2971H148.512C150.312 33.2971 151.439 34.2295 151.439 35.7293C151.457 36.1846 151.334 36.6344 151.085 37.0165C150.837 37.3985 150.476 37.6938 150.052 37.8616L151.609 40.0506H149.89ZM148.423 34.57H147.15V36.9211H148.423C149.379 36.9211 149.858 36.4752 149.858 35.7456C149.858 35.0159 149.379 34.57 148.423 34.57Z" fill="#263238"/>
<path d="M152.679 33.2971H154.243V40.0506H152.679V33.2971Z" fill="#263238"/>
<path d="M155.419 36.6697C155.453 35.9319 155.706 35.221 156.146 34.6278C156.587 34.0347 157.194 33.5863 157.89 33.34C158.586 33.0937 159.34 33.0606 160.055 33.2451C160.771 33.4295 161.414 33.823 161.905 34.3753L160.9 35.2995C160.696 35.0462 160.438 34.8419 160.144 34.7016C159.851 34.5613 159.53 34.4886 159.205 34.4888C158.91 34.4707 158.615 34.5132 158.337 34.6136C158.059 34.714 157.805 34.8702 157.59 35.0726C157.374 35.2751 157.203 35.5194 157.086 35.7905C156.968 36.0617 156.908 36.354 156.908 36.6494C156.908 36.9449 156.968 37.2371 157.086 37.5083C157.203 37.7795 157.374 38.0238 157.59 38.2262C157.805 38.4286 158.059 38.5848 158.337 38.6852C158.615 38.7856 158.91 38.8281 159.205 38.8101C159.531 38.8127 159.852 38.741 160.146 38.6005C160.44 38.46 160.697 38.2544 160.9 37.9993L161.905 38.9236C161.415 39.4755 160.772 39.8689 160.057 40.0536C159.343 40.2383 158.589 40.206 157.893 39.9606C157.197 39.7153 156.59 39.2681 156.15 38.6762C155.709 38.0842 155.454 37.3744 155.419 36.6373V36.6697Z" fill="#263238"/>
<path d="M168.148 38.7939V40.0506H162.959V33.2971H168.067V34.5457H164.516V36.0131H167.645V37.2292H164.516V38.7939H168.148Z" fill="#263238"/>
<path d="M125.6 59.8003V62.2325H114.112V60.2948L120.306 54.417C121.814 52.9738 122.081 52.0577 122.081 51.174C122.081 49.7471 121.1 48.9282 119.187 48.9282C118.494 48.8912 117.802 49.0189 117.168 49.3007C116.534 49.5826 115.975 50.0106 115.539 50.5497L113.512 48.9931C114.228 48.1299 115.136 47.4464 116.164 46.9973C117.192 46.5481 118.31 46.3459 119.43 46.4068C122.819 46.4068 125 48.1256 125 50.8821C125 52.3982 124.578 53.7765 122.414 55.8033L118.255 59.7679L125.6 59.8003Z" fill="#263238"/>
<path d="M139.65 57.4166C139.65 60.5136 137.137 62.4756 133.975 62.4756C129.727 62.4756 127.229 59.7353 127.229 54.7249C127.229 49.3821 130.343 46.4392 134.867 46.4392C136.298 46.3899 137.715 46.7379 138.961 47.4445L137.899 49.6254C137.005 49.0877 135.973 48.8255 134.932 48.8714C131.997 48.8714 130.148 50.6955 130.148 54.2304C130.683 53.6753 131.332 53.2429 132.05 52.9629C132.768 52.683 133.538 52.5622 134.307 52.6089C137.356 52.6332 139.65 54.4979 139.65 57.4166ZM136.845 57.5544C136.845 55.9329 135.621 54.9033 133.732 54.9033C131.843 54.9033 130.57 56.0383 130.57 57.5787C130.57 59.1192 131.729 60.2055 133.813 60.2055C135.596 60.2055 136.845 59.184 136.845 57.5625V57.5544Z" fill="#263238"/>
<path d="M141.304 60.5624C141.304 60.0787 141.496 59.6147 141.838 59.2726C142.181 58.9305 142.645 58.7383 143.128 58.7383C143.612 58.7383 144.076 58.9305 144.418 59.2726C144.76 59.6147 144.953 60.0787 144.953 60.5624C144.953 61.0462 144.76 61.5102 144.418 61.8523C144.076 62.1944 143.612 62.3866 143.128 62.3866C142.645 62.3866 142.181 62.1944 141.838 61.8523C141.496 61.5102 141.304 61.0462 141.304 60.5624Z" fill="#263238"/>
<path d="M146.558 54.4574C146.558 49.3336 149.363 46.4392 153.044 46.4392C156.724 46.4392 159.529 49.3336 159.529 54.4574C159.529 59.5813 156.724 62.4757 153.044 62.4757C149.363 62.4757 146.558 59.5813 146.558 54.4574ZM156.668 54.4574C156.668 50.6956 155.192 48.9606 153.06 48.9606C150.928 48.9606 149.476 50.6956 149.476 54.4574C149.476 58.2193 150.944 59.9543 153.06 59.9543C155.176 59.9543 156.668 58.2193 156.668 54.4574Z" fill="#263238"/>
<path d="M161.54 54.4574C161.54 49.3336 164.345 46.4392 168.026 46.4392C171.707 46.4392 174.512 49.3336 174.512 54.4574C174.512 59.5813 171.707 62.4757 168.026 62.4757C164.345 62.4757 161.54 59.5813 161.54 54.4574ZM171.65 54.4574C171.65 50.6956 170.183 48.9606 168.042 48.9606C165.902 48.9606 164.459 50.6956 164.459 54.4574C164.459 58.2193 165.926 59.9543 168.042 59.9543C170.158 59.9543 171.65 58.2193 171.65 54.4574Z" fill="#263238"/>
<path d="M176.531 54.4574C176.531 49.3336 179.336 46.4392 183.017 46.4392C186.697 46.4392 189.503 49.3336 189.503 54.4574C189.503 59.5813 186.697 62.4757 183.017 62.4757C179.336 62.4757 176.531 59.5813 176.531 54.4574ZM186.633 54.4574C186.633 50.6956 185.165 48.9606 183.033 48.9606C180.901 48.9606 179.441 50.6956 179.441 54.4574C179.441 58.2193 180.917 59.9543 183.033 59.9543C185.149 59.9543 186.633 58.2193 186.633 54.4574Z" fill="#263238"/>
<path d="M258.894 143.444C258.894 143.558 224.681 143.655 182.482 143.655C140.283 143.655 106.053 143.558 106.053 143.444C106.053 143.331 140.267 143.234 182.482 143.234C224.697 143.234 258.894 143.323 258.894 143.444Z" fill="#E0E0E0"/>
<path d="M282.471 116.844H102.081V143.315H282.471V116.844Z" fill="#FF725E"/>
<g opacity="0.5">
<path d="M282.471 116.844H102.081V143.315H282.471V116.844Z" fill="black"/>
</g>
<path d="M108.923 142.885C108.872 146.326 109.843 149.705 111.713 152.595C113.583 155.484 116.267 157.754 119.427 159.118C122.587 160.481 126.081 160.877 129.466 160.255C132.851 159.632 135.975 158.02 138.443 155.622C140.912 153.224 142.614 150.147 143.334 146.782C144.053 143.416 143.759 139.913 142.487 136.715C141.216 133.517 139.024 130.767 136.19 128.815C133.356 126.863 130.006 125.794 126.565 125.746C121.954 125.683 117.506 127.453 114.199 130.666C110.891 133.879 108.994 138.274 108.923 142.885Z" fill="#263238"/>
<path d="M108.931 142.844C108.932 142.858 108.932 142.872 108.931 142.885C108.861 145.192 109.25 147.49 110.077 149.646C110.903 151.801 112.15 153.77 113.745 155.438C115.341 157.107 117.252 158.441 119.368 159.364C121.484 160.286 123.762 160.779 126.07 160.812C128.378 160.845 130.67 160.419 132.811 159.558C134.953 158.697 136.902 157.418 138.545 155.797C140.187 154.175 141.491 152.243 142.379 150.112C143.268 147.982 143.724 145.696 143.72 143.388V143.347L108.931 142.844Z" fill="#263238"/>
<path d="M114.104 142.966C114.069 145.383 114.751 147.757 116.066 149.786C117.38 151.815 119.266 153.408 121.487 154.364C123.707 155.321 126.161 155.597 128.538 155.158C130.915 154.72 133.109 153.586 134.841 151.9C136.574 150.214 137.767 148.052 138.271 145.687C138.774 143.323 138.564 140.862 137.669 138.617C136.773 136.372 135.232 134.442 133.239 133.073C131.247 131.704 128.893 130.957 126.476 130.927C123.239 130.883 120.117 132.127 117.797 134.385C115.477 136.643 114.149 139.729 114.104 142.966Z" fill="#FAFAFA"/>
<path d="M126.476 130.926C123.236 130.881 120.112 132.124 117.789 134.381C115.466 136.639 114.134 139.727 114.087 142.966L138.515 143.315C138.561 140.076 137.318 136.951 135.06 134.628C132.802 132.305 129.715 130.973 126.476 130.926Z" fill="#E0E0E0"/>
<path d="M118.879 143.031C118.85 144.504 119.259 145.953 120.055 147.194C120.85 148.434 121.996 149.411 123.347 149.999C124.698 150.588 126.193 150.762 127.644 150.5C129.094 150.238 130.433 149.551 131.493 148.527C132.552 147.503 133.284 146.187 133.595 144.747C133.906 143.306 133.782 141.806 133.24 140.436C132.697 139.066 131.76 137.888 130.547 137.051C129.334 136.214 127.9 135.755 126.427 135.734C124.46 135.708 122.563 136.461 121.149 137.827C119.736 139.194 118.919 141.065 118.879 143.031Z" fill="#263238"/>
<path d="M241.934 142.885C241.883 146.326 242.853 149.705 244.723 152.594C246.592 155.483 249.276 157.753 252.436 159.117C255.595 160.48 259.088 160.876 262.473 160.255C265.858 159.633 268.982 158.022 271.451 155.624C273.92 153.227 275.622 150.151 276.343 146.786C277.064 143.421 276.77 139.918 275.5 136.72C274.23 133.522 272.039 130.772 269.206 128.819C266.373 126.865 263.024 125.796 259.583 125.746C254.971 125.681 250.521 127.449 247.212 130.663C243.902 133.877 242.004 138.273 241.934 142.885Z" fill="#263238"/>
<path d="M241.942 142.844C241.942 142.858 241.942 142.872 241.942 142.885C241.871 145.192 242.261 147.49 243.087 149.646C243.914 151.801 245.161 153.77 246.756 155.438C248.351 157.107 250.263 158.441 252.378 159.364C254.494 160.286 256.773 160.779 259.081 160.812C261.389 160.845 263.68 160.419 265.822 159.558C267.964 158.697 269.913 157.418 271.555 155.797C273.198 154.175 274.502 152.243 275.39 150.112C276.279 147.982 276.734 145.696 276.731 143.388V143.347L241.942 142.844Z" fill="#263238"/>
<path d="M247.122 142.966C247.089 145.381 247.772 147.751 249.086 149.777C250.399 151.803 252.284 153.394 254.502 154.349C256.72 155.304 259.171 155.58 261.546 155.142C263.921 154.704 266.112 153.572 267.843 151.888C269.574 150.205 270.767 148.046 271.272 145.684C271.776 143.323 271.568 140.865 270.675 138.621C269.783 136.377 268.245 134.449 266.256 133.079C264.267 131.709 261.917 130.96 259.502 130.926C257.899 130.904 256.307 131.198 254.817 131.79C253.327 132.383 251.968 133.264 250.818 134.382C249.669 135.5 248.751 136.833 248.117 138.306C247.482 139.779 247.144 141.363 247.122 142.966Z" fill="#FAFAFA"/>
<path d="M259.502 130.926C257.899 130.904 256.306 131.198 254.816 131.79C253.326 132.383 251.968 133.264 250.818 134.382C249.669 135.5 248.751 136.833 248.116 138.306C247.482 139.779 247.144 141.363 247.122 142.966L271.542 143.315C271.587 140.076 270.344 136.951 268.087 134.628C265.829 132.305 262.741 130.973 259.502 130.926Z" fill="#E0E0E0"/>
<path d="M251.889 143.031C251.86 144.504 252.27 145.953 253.065 147.194C253.861 148.434 255.006 149.411 256.357 149.999C257.708 150.588 259.204 150.762 260.654 150.5C262.104 150.238 263.444 149.551 264.503 148.527C265.563 147.503 266.294 146.187 266.605 144.747C266.916 143.306 266.793 141.806 266.25 140.436C265.708 139.066 264.77 137.888 263.558 137.051C262.345 136.214 260.911 135.755 259.437 135.734C257.471 135.708 255.574 136.461 254.16 137.827C252.746 139.194 251.93 141.065 251.889 143.031Z" fill="#263238"/>
<path d="M149.119 101.959C149.119 101.959 123.508 103.848 114.014 106.012C107.318 107.512 94.4187 110.066 94.5565 118.222L95.578 124.043C94.1446 124.772 92.9398 125.882 92.096 127.251C91.2521 128.619 90.8019 130.194 90.7947 131.802C90.7947 137.38 89.6272 146.031 100.799 146.396C102.64 146.452 106.134 146.396 106.134 146.396C106.134 146.396 103.994 122.608 125.843 121.911C148.082 121.198 146.606 146.177 146.606 146.177H239.42C239.42 146.177 235.609 121.854 259.551 121.806C283.492 121.757 279.819 146.339 279.819 146.339C279.819 146.339 288.624 147.101 292.726 139.699C296.828 132.297 295.75 127.027 295.75 127.027L295.62 122.357C295.598 121.589 295.286 120.858 294.745 120.312C294.205 119.765 293.478 119.445 292.71 119.414C292.71 119.414 294.331 107.634 291.85 105.631C289.37 103.629 275.944 91.2975 275.944 91.2975L276.584 90.8921C276.827 90.7415 277.021 90.5252 277.146 90.2682C277.27 90.0113 277.319 89.7244 277.287 89.4407C277.255 89.1571 277.142 88.8885 276.964 88.6661C276.785 88.4437 276.546 88.2766 276.276 88.1843C271.168 86.4331 261.067 82.955 258.699 82.128C258.343 82.0026 257.973 81.9236 257.597 81.8929C256.178 81.7875 252.165 81.5281 244.803 81.4551C235.828 81.3578 200.212 81.4551 200.212 81.4551C200.212 81.4551 187.962 82.4604 181.127 85.4683C173.977 88.541 149.119 101.959 149.119 101.959Z" fill="#FF725E"/>
<g opacity="0.4">
<path d="M97.2891 131.121C96.3568 130.927 94.938 130.91 94.2245 131.543C93.7518 132.072 93.4868 132.755 93.4787 133.464C93.3339 134.423 93.3558 135.399 93.5435 136.35C93.6426 136.823 93.8376 137.271 94.1165 137.666C94.3954 138.06 94.7523 138.393 95.165 138.645C95.5863 138.885 96.0733 138.983 96.5547 138.926C97.0361 138.87 97.4867 138.66 97.8404 138.329C98.3686 137.61 98.6034 136.717 98.4972 135.832C98.5476 134.646 98.496 133.458 98.3431 132.28C98.2935 132.022 98.1854 131.778 98.0269 131.567C97.9461 131.44 97.8366 131.333 97.707 131.255C97.5775 131.178 97.4316 131.132 97.281 131.121" fill="black"/>
</g>
<path d="M95.5947 124.043C98.3188 124.043 100.954 123.889 103.702 123.711C103.993 123.718 104.277 123.63 104.513 123.46C104.734 123.18 104.836 122.825 104.797 122.47C104.797 121.011 104.732 119.357 103.629 118.417C102.903 117.897 102.034 117.613 101.14 117.606C98.9346 117.368 96.7038 117.592 94.5894 118.263L95.5947 124.043Z" fill="#FAFAFA"/>
<path d="M152.062 145.374C152.057 145.298 152.057 145.223 152.062 145.147L152.014 144.466C152.014 143.858 151.933 142.974 151.876 141.839C151.819 140.704 151.738 139.302 151.568 137.696C151.405 135.87 151.085 134.06 150.611 132.289C150.022 130.143 149.141 128.089 147.993 126.184C146.703 123.973 144.982 122.043 142.934 120.509C138.547 117.387 132.621 115.644 126.419 115.547C120.533 115.422 114.77 117.237 110.017 120.711C107.97 122.231 106.175 124.064 104.699 126.143C103.413 127.956 102.364 129.926 101.578 132.005C100.938 133.725 100.498 135.512 100.264 137.331C100.085 138.702 100.031 140.086 100.102 141.466C100.155 142.34 100.263 143.209 100.426 144.069C100.475 144.361 100.515 144.588 100.548 144.742C100.58 144.896 100.548 144.977 100.548 144.977L100.499 144.75C100.499 144.596 100.418 144.369 100.361 144.077C100.184 143.218 100.065 142.349 100.005 141.474C99.9197 140.087 99.9659 138.694 100.143 137.315C100.364 135.487 100.799 133.691 101.44 131.964C102.215 129.869 103.261 127.885 104.553 126.062C106.03 123.964 107.833 122.116 109.896 120.59C114.667 117.082 120.466 115.252 126.386 115.385C132.621 115.458 138.547 117.233 142.99 120.387C145.049 121.92 146.78 123.85 148.082 126.062C149.231 127.978 150.109 130.043 150.692 132.199C151.161 133.977 151.475 135.792 151.633 137.623C151.787 139.245 151.852 140.639 151.908 141.774C151.965 142.909 151.989 143.801 152.022 144.401C152.022 144.701 152.022 144.928 152.022 145.09C152.022 145.252 152.062 145.374 152.062 145.374Z" fill="white"/>
<path d="M153.044 145.779C153.04 145.715 153.04 145.65 153.044 145.585V145.009C153.044 144.498 153.044 143.744 152.979 142.763C152.922 140.793 152.841 137.899 152.736 134.234C152.63 130.57 152.509 126.127 152.371 121.003C152.371 119.722 152.298 118.409 152.265 117.055C152.239 116.364 152.268 115.673 152.354 114.987L152.5 113.942L152.719 112.888C153.417 109.948 154.72 107.187 156.546 104.78L172.615 94.6541L176.96 91.9219C178.421 90.9495 179.955 90.0929 181.549 89.3599C183.173 88.5957 184.84 87.9297 186.543 87.3655C187.395 87.0655 188.27 86.8223 189.146 86.5547C190.022 86.2872 190.905 86.0845 191.813 85.9062C195.22 85.173 198.684 84.7336 202.166 84.5928C205.588 84.4414 208.931 84.4414 212.195 84.5928H212.293V84.69C210.752 91.5732 209.309 98.0592 207.979 104.002C207.188 105.313 206.539 106.704 206.042 108.153C205.551 109.53 205.331 110.989 205.393 112.45C205.499 113.877 205.539 115.271 205.58 116.625C205.62 117.979 205.628 119.301 205.653 120.573C205.726 125.681 205.75 130.132 205.758 133.797C205.766 137.461 205.758 140.347 205.758 142.318C205.758 143.299 205.758 144.053 205.758 144.563V145.139C205.762 145.204 205.762 145.269 205.758 145.334C205.758 145.334 205.758 145.269 205.758 145.139V144.563C205.758 144.053 205.758 143.299 205.758 142.318C205.758 140.347 205.758 137.453 205.709 133.797C205.661 130.14 205.653 125.689 205.563 120.573C205.563 119.301 205.507 117.987 205.482 116.633C205.458 115.279 205.401 113.885 205.288 112.458C205.226 110.981 205.449 109.505 205.944 108.112C206.437 106.651 207.09 105.248 207.89 103.929C209.212 97.9862 210.655 91.4922 212.195 84.609L212.268 84.7144C208.933 84.5398 205.591 84.5398 202.256 84.7144C198.782 84.8564 195.327 85.2931 191.927 86.0197C191.027 86.198 190.151 86.4494 189.268 86.6764C188.384 86.9034 187.524 87.179 186.673 87.4871C184.98 88.0509 183.321 88.7114 181.703 89.4653C180.115 90.1956 178.586 91.0495 177.131 92.0191L172.688 94.7676L156.611 104.878C154.796 107.271 153.499 110.015 152.8 112.936C152.071 115.725 152.436 118.474 152.444 121.044C152.565 126.151 152.679 130.602 152.768 134.275C152.857 137.948 152.922 140.834 152.971 142.804C152.971 143.785 153.011 144.539 153.019 145.05V145.82L153.044 145.779Z" fill="#263238"/>
<path d="M212.074 85.1279H212.22H212.666L214.392 85.0873L220.797 84.9576L242.379 84.5928H242.412L245.436 88.2898L254.111 98.9105C254.435 99.3158 254.767 99.7212 255.092 100.11C255.41 100.511 255.682 100.946 255.902 101.408C256.308 102.262 256.528 103.193 256.549 104.139C256.57 105.085 256.391 106.024 256.024 106.896C255.684 107.707 255.359 108.461 255.043 109.191L252.06 116.09L251.249 117.963C251.151 118.174 251.087 118.336 251.03 118.449C251.007 118.506 250.98 118.56 250.949 118.611L251.014 118.441L251.216 117.955C251.403 117.517 251.662 116.877 252.027 116.066L254.954 109.142C255.521 107.666 256.502 106.126 256.438 104.278C256.422 103.321 256.204 102.379 255.797 101.513C255.574 101.063 255.302 100.639 254.986 100.248L253.997 99.0402L245.355 88.5006L242.331 84.7955H242.395L220.814 85.1035L214.409 85.1765H212.682H212.09L212.074 85.1279Z" fill="#263238"/>
<path d="M201.177 113.852C201.177 113.852 201.266 113.852 201.437 113.852C201.68 113.807 201.911 113.713 202.118 113.577C202.447 113.363 202.693 113.042 202.815 112.669C202.887 112.438 202.918 112.196 202.904 111.955C202.9 111.673 202.831 111.395 202.701 111.144C202.556 110.872 202.34 110.644 202.076 110.482C201.812 110.321 201.51 110.234 201.202 110.228H193.986C193.569 110.23 193.167 110.384 192.856 110.662C192.545 110.94 192.347 111.322 192.3 111.736C192.245 112.132 192.316 112.534 192.502 112.888C192.687 113.214 192.971 113.473 193.313 113.625C193.659 113.745 194.027 113.79 194.391 113.755H197.367H200.131H200.885H201.153C201.064 113.767 200.974 113.767 200.885 113.755H200.131H197.367H193.832C193.635 113.74 193.441 113.696 193.256 113.625C192.87 113.463 192.549 113.178 192.34 112.815C192.134 112.433 192.052 111.997 192.105 111.566C192.16 111.111 192.379 110.691 192.72 110.386C193.062 110.08 193.503 109.909 193.962 109.904H201.177C201.513 109.908 201.841 110.002 202.126 110.178C202.412 110.354 202.644 110.604 202.799 110.901C202.928 111.152 202.997 111.43 203.001 111.712C203.013 111.965 202.977 112.218 202.896 112.458C202.759 112.846 202.493 113.175 202.142 113.39C201.924 113.521 201.681 113.607 201.429 113.642C201.356 113.725 201.271 113.796 201.177 113.852Z" fill="#263238"/>
<path d="M249.271 113.852C249.271 113.852 249.36 113.852 249.53 113.852C249.773 113.807 250.005 113.713 250.211 113.577C250.541 113.363 250.787 113.042 250.908 112.669C250.981 112.438 251.011 112.196 250.998 111.955C250.994 111.673 250.925 111.395 250.795 111.144C250.649 110.872 250.433 110.644 250.17 110.482C249.906 110.321 249.604 110.234 249.295 110.228H242.079C241.656 110.23 241.249 110.389 240.936 110.674C240.631 110.949 240.437 111.328 240.393 111.736C240.341 112.133 240.415 112.535 240.604 112.888C240.787 113.215 241.072 113.474 241.415 113.625C241.763 113.746 242.134 113.79 242.501 113.755H245.476H248.241H248.995H249.255C249.168 113.767 249.081 113.767 248.995 113.755H248.241H245.476H241.942C241.742 113.741 241.545 113.697 241.358 113.625C240.972 113.463 240.65 113.178 240.442 112.815C240.238 112.432 240.159 111.996 240.215 111.566C240.265 111.118 240.475 110.704 240.807 110.399C241.148 110.08 241.597 109.904 242.063 109.904H249.287C249.766 109.913 250.222 110.108 250.559 110.449C250.895 110.79 251.085 111.249 251.087 111.728C251.099 111.981 251.063 112.234 250.981 112.474C250.844 112.86 250.582 113.188 250.235 113.406C250.017 113.538 249.774 113.623 249.522 113.658C249.448 113.734 249.363 113.8 249.271 113.852Z" fill="#263238"/>
<path d="M291.445 106.004H281.822C281.176 106.004 280.542 106.181 279.989 106.516C279.436 106.85 278.985 107.329 278.684 107.902C278.437 108.375 278.298 108.899 278.278 109.433C278.259 109.968 278.359 110.5 278.571 110.99L282.349 119.56L291.989 119.463C291.989 119.463 294.032 108.639 291.445 106.004Z" fill="#FAFAFA"/>
<path d="M157.787 104.796L207.445 103.88L239.769 103.288L250.422 97.1348C250.63 97.0217 250.81 96.8646 250.951 96.6744C251.091 96.4842 251.188 96.2656 251.236 96.0339C251.283 95.8021 251.279 95.5629 251.223 95.3329C251.168 95.103 251.064 94.8878 250.917 94.7026L244.277 85.979C243.936 85.531 243.498 85.1671 242.994 84.9155C242.491 84.6638 241.937 84.5312 241.374 84.5278L205.223 84.2359C205.223 84.2359 191.611 83.4252 180.901 89.449C172.892 94.0915 165.173 99.2167 157.787 104.796Z" fill="#263238"/>
<path d="M180.925 85.4602C180.925 85.4602 183.033 86.2709 181.42 87.3168C179.806 88.3627 154.665 104.229 154.665 104.229L149.144 101.959C159.367 96.2512 169.826 90.6895 180.925 85.4602Z" fill="#455A64"/>
<path d="M155.451 104.626H155.297L154.835 104.731L153.076 105.096C151.535 105.396 149.314 105.826 146.59 106.304C141.077 107.253 133.415 108.355 124.903 109.093C122.778 109.28 120.695 109.426 118.684 109.563C116.674 109.701 114.744 109.815 112.904 109.985C109.637 110.208 106.4 110.751 103.24 111.607C101.116 112.205 99.0713 113.057 97.1509 114.144C96.4618 114.509 95.9672 114.866 95.6186 115.085L95.2213 115.336L95.0835 115.417L95.2132 115.32L95.5943 115.052C95.9429 114.833 96.405 114.46 97.1185 114.087C99.0316 112.972 101.077 112.1 103.207 111.493C106.368 110.603 109.612 110.035 112.887 109.799C114.728 109.62 116.665 109.499 118.676 109.361C120.687 109.223 122.73 109.077 124.886 108.891C133.391 108.153 141.053 107.066 146.566 106.15C149.33 105.688 151.552 105.283 153.052 104.999L154.827 104.658L155.281 104.577L155.451 104.626Z" fill="#263238"/>
<path d="M295.296 126.865C295.296 126.913 291.988 126.954 287.902 126.954C283.816 126.954 280.508 126.913 280.508 126.865C280.508 126.816 283.816 126.784 287.902 126.784C291.988 126.784 295.296 126.816 295.296 126.865Z" fill="#263238"/>
<path d="M234.742 135.313C234.742 135.361 216.095 135.394 193.021 135.394C169.948 135.394 151.292 135.394 151.292 135.313C151.292 135.232 169.94 135.232 193.021 135.232C216.103 135.232 234.742 135.264 234.742 135.313Z" fill="#263238"/>
<path d="M103.929 127.149C103.929 127.149 101.286 127.23 98.035 127.23C94.7839 127.23 92.1328 127.189 92.1328 127.149C92.1328 127.108 94.7758 127.059 98.035 127.059C101.294 127.059 103.929 127.1 103.929 127.149Z" fill="#263238"/>
<path d="M275.709 90.8679C275.709 90.8679 273.487 93.3488 274.363 95.173C275.239 96.9971 284.238 103.37 284.238 103.37L290.781 104.594L275.709 90.8679Z" fill="#455A64"/>
<path d="M213.541 86.425L212.065 102.299L238.382 101.553L248.987 95.3837L242.12 86.425H213.541Z" fill="#455A64"/>
<path d="M164.021 103.11C164.021 103.11 179.887 91.6461 186.154 89.3274C192.194 87.1303 195.348 86.579 201.023 86.4169C206.455 86.2628 209.755 86.4169 209.755 86.4169L205.563 102.559L164.021 103.11Z" fill="#455A64"/>
<path d="M161.694 103.167C161.692 102.672 161.823 102.185 162.072 101.757C162.322 101.329 162.681 100.976 163.113 100.735L166.761 98.6833C167.801 98.099 168.974 97.7919 170.167 97.7915C170.902 97.7925 171.633 97.9102 172.331 98.1401C173.091 98.4035 173.753 98.8922 174.228 99.5411C174.703 100.19 174.969 100.968 174.991 101.772C175.006 102.314 174.912 102.853 174.715 103.358C174.518 103.863 174.222 104.324 173.844 104.712C173.466 105.101 173.014 105.41 172.515 105.62C172.015 105.831 171.479 105.94 170.937 105.939H164.451C163.72 105.931 163.021 105.636 162.505 105.117C161.99 104.598 161.699 103.898 161.694 103.167Z" fill="#FF725E"/>
<path d="M161.694 103.167C161.694 103.167 161.694 103.288 161.743 103.515C161.786 103.852 161.893 104.176 162.059 104.472C162.318 104.938 162.706 105.318 163.178 105.567C163.47 105.724 163.789 105.826 164.118 105.867C164.459 105.867 164.84 105.867 165.237 105.867H170.799C171.326 105.884 171.852 105.799 172.347 105.615C172.86 105.422 173.327 105.124 173.717 104.74C174.13 104.345 174.449 103.863 174.65 103.329C174.854 102.78 174.937 102.194 174.893 101.61C174.853 101.036 174.687 100.477 174.407 99.9738C174.127 99.4707 173.739 99.0356 173.271 98.6996C172.818 98.3917 172.308 98.1767 171.772 98.0672C171.241 97.9385 170.696 97.8759 170.15 97.8807C169.167 97.8798 168.194 98.0871 167.296 98.4888C166.883 98.6752 166.486 98.9185 166.113 99.1211L165.026 99.7211L163.162 100.759C162.691 101.012 162.303 101.395 162.043 101.861C161.882 102.157 161.772 102.478 161.718 102.81C161.712 102.93 161.698 103.049 161.678 103.167C161.665 103.048 161.665 102.929 161.678 102.81C161.713 102.467 161.815 102.133 161.978 101.829C162.235 101.345 162.627 100.946 163.105 100.678L164.961 99.6238L166.04 99.0076C166.421 98.7968 166.802 98.5617 167.231 98.3672C168.144 97.9454 169.137 97.7269 170.142 97.7267C170.688 97.7212 171.232 97.7811 171.763 97.905C172.323 98.0206 172.854 98.2436 173.328 98.5617C173.82 98.912 174.228 99.3658 174.525 99.8911C174.822 100.416 175 101 175.047 101.602C175.092 102.211 175.003 102.822 174.788 103.394C174.576 103.947 174.247 104.448 173.823 104.861C173.411 105.258 172.923 105.567 172.388 105.769C171.867 105.952 171.318 106.04 170.766 106.029H165.205C164.827 106.049 164.448 106.049 164.07 106.029C163.729 105.984 163.399 105.877 163.097 105.712C162.62 105.442 162.23 105.043 161.97 104.561C161.811 104.255 161.71 103.923 161.67 103.58C161.668 103.442 161.676 103.304 161.694 103.167Z" fill="#263238"/>
<path d="M283.987 145.528C283.987 145.528 283.987 145.447 283.987 145.301C283.987 145.155 283.987 144.928 283.987 144.636C283.987 144.344 284.043 143.988 284.06 143.566C284.076 143.144 284.06 142.65 284.108 142.099C284.157 141.547 284.108 140.931 284.108 140.258C284.108 139.585 284.068 138.864 283.97 138.085C283.826 136.316 283.511 134.565 283.03 132.856C282.753 131.861 282.409 130.886 282 129.937C280.584 126.626 278.281 123.769 275.344 121.684C273.134 120.078 270.667 118.86 268.047 118.084C265.246 117.295 262.347 116.907 259.437 116.933C256.506 116.903 253.588 117.327 250.787 118.19C249.459 118.62 248.171 119.163 246.936 119.811C245.758 120.437 244.639 121.17 243.595 122C241.646 123.522 239.912 125.3 238.439 127.286C237.79 128.195 237.215 129.155 236.72 130.156C236.266 131.137 235.861 132.086 235.537 133.018C234.498 135.958 233.867 139.027 233.664 142.139C233.615 143.242 233.615 144.101 233.664 144.677C233.664 144.969 233.664 145.187 233.664 145.341C233.664 145.496 233.664 145.569 233.664 145.569V145.341C233.664 145.187 233.664 144.969 233.607 144.685C233.607 144.101 233.558 143.242 233.607 142.139C233.786 139.015 234.402 135.931 235.439 132.978C235.775 131.996 236.168 131.035 236.615 130.1C237.105 129.088 237.68 128.12 238.334 127.205C239.809 125.206 241.546 123.415 243.498 121.879C244.551 121.044 245.677 120.306 246.863 119.673C248.106 119.025 249.403 118.482 250.738 118.052C253.553 117.168 256.487 116.728 259.437 116.747C262.384 116.713 265.319 117.106 268.153 117.914C270.774 118.698 273.241 119.923 275.449 121.538C276.479 122.295 277.442 123.138 278.328 124.06C279.166 124.927 279.913 125.878 280.557 126.897C281.169 127.84 281.696 128.836 282.13 129.873C282.54 130.826 282.884 131.807 283.16 132.807C283.635 134.525 283.945 136.284 284.084 138.061C284.173 138.872 284.165 139.569 284.205 140.242C284.246 140.915 284.205 141.531 284.205 142.082C284.205 142.634 284.157 143.128 284.132 143.55C284.108 143.971 284.068 144.361 284.051 144.628C284.035 144.896 284.003 145.131 283.987 145.285V145.528Z" fill="white"/>
<path d="M204.574 104.796H203.723L200.61 104.853C197.975 104.902 194.335 104.999 190.322 105.113C186.308 105.226 182.66 105.299 180.025 105.315H175.842H176.061H176.912L180.025 105.259C182.66 105.21 186.3 105.113 190.314 105.007C194.327 104.902 197.975 104.821 200.61 104.796H203.723H204.574Z" fill="white"/>
<path d="M200.561 109.685C198.671 109.792 196.776 109.792 194.886 109.685C196.776 109.567 198.672 109.567 200.561 109.685Z" fill="white"/>
<path d="M201.607 92.2867C201.607 92.2867 198.089 93.8027 193.711 95.5296C189.333 97.2565 185.765 98.7077 185.749 98.6591C185.733 98.6104 189.26 97.143 193.646 95.3756C198.032 93.6082 201.583 92.238 201.607 92.2867Z" fill="white"/>
<path d="M194.44 93.3975C194.44 93.438 191.092 94.9217 186.916 96.7053C182.741 98.4889 179.352 99.9077 179.336 99.8672C179.32 99.8266 182.684 98.3349 186.852 96.5512C191.019 94.7676 194.424 93.3488 194.44 93.3975Z" fill="white"/>
<path d="M239.882 91.6706C239.882 91.7111 236.363 93.1867 231.985 94.9541C227.607 96.7215 224.04 98.1322 224.024 98.0917C224.008 98.0511 227.534 96.5756 231.921 94.8001C236.307 93.0245 239.866 91.6138 239.882 91.6706Z" fill="white"/>
<path d="M232.683 92.7812C232.683 92.8218 229.334 94.3054 225.159 96.0891C220.984 97.8727 217.595 99.2915 217.579 99.251C217.562 99.2104 220.927 97.7187 225.094 95.935C229.261 94.1514 232.683 92.7326 232.683 92.7812Z" fill="white"/>
<path d="M240.572 104.788C240.572 104.837 233.542 104.918 224.867 104.967C216.192 105.015 209.155 105.023 209.155 104.967C209.155 104.91 216.184 104.845 224.867 104.788C233.55 104.731 240.572 104.748 240.572 104.788Z" fill="white"/>
<path d="M248.354 109.45C248.354 109.499 246.384 109.555 243.952 109.58C241.52 109.604 239.55 109.58 239.55 109.531C239.55 109.482 241.52 109.434 243.952 109.409C246.384 109.385 248.354 109.361 248.354 109.45Z" fill="white"/>
<path d="M113.707 107.018H113.512L112.961 107.091C112.726 107.091 112.434 107.156 112.093 107.213C111.753 107.269 111.364 107.31 110.942 107.399C110.131 107.545 109.094 107.772 107.991 108.064C106.801 108.389 105.63 108.776 104.48 109.223C103.331 109.68 102.205 110.194 101.108 110.764C100.102 111.299 99.2187 111.818 98.489 112.28C98.1242 112.507 97.808 112.734 97.5242 112.928C97.2405 113.123 96.9973 113.285 96.8027 113.431L96.3487 113.755L96.1865 113.852C96.1865 113.852 96.2271 113.804 96.3325 113.723L96.7622 113.374C96.9486 113.228 97.1837 113.042 97.4675 112.847C97.7513 112.653 98.0593 112.417 98.4242 112.182C99.1457 111.696 100.046 111.169 101.035 110.626C102.132 110.046 103.261 109.526 104.416 109.069C105.573 108.622 106.753 108.235 107.95 107.91C109.061 107.626 110.066 107.415 110.926 107.277C111.347 107.204 111.737 107.164 112.077 107.115C112.418 107.067 112.718 107.042 112.953 107.026H113.512C113.576 107.013 113.642 107.01 113.707 107.018Z" fill="white"/>
<path d="M171.764 99.3402C171.666 99.2323 171.563 99.1295 171.456 99.0321C171.142 98.7934 170.769 98.6448 170.377 98.6024C169.792 98.5554 169.204 98.6186 168.642 98.7889C167.943 98.9654 167.26 99.1986 166.599 99.4861C165.393 100.008 164.27 100.705 163.267 101.553C162.497 102.202 162.083 102.68 162.059 102.656C162.139 102.533 162.231 102.419 162.335 102.316C162.605 102.031 162.889 101.761 163.186 101.505C164.179 100.621 165.307 99.9014 166.526 99.3726C167.198 99.0762 167.895 98.8428 168.61 98.6754C169.189 98.5093 169.795 98.457 170.394 98.5213C170.802 98.5778 171.185 98.7525 171.496 99.024C171.577 99.1004 171.65 99.1845 171.715 99.2753C171.756 99.2996 171.772 99.3321 171.764 99.3402Z" fill="white"/>
<path d="M276.463 90.7461C276.012 90.856 275.548 90.9051 275.085 90.8921C274.539 90.8789 273.995 90.811 273.463 90.6894C272.756 90.5284 272.062 90.3143 271.388 90.0489C270.642 89.7651 269.839 89.4084 268.955 89.0436L267.609 88.4923C267.139 88.3139 266.653 88.1518 266.158 87.9734C263.99 87.2349 261.778 86.6311 259.534 86.1654C255.455 85.3115 251.311 84.7963 247.146 84.625C246.336 84.5764 245.622 84.5764 244.99 84.5602H243.368H242.339H242.071C242.014 84.5602 241.982 84.5602 241.982 84.5602H242.071H242.339L243.368 84.5034H244.99C245.63 84.5034 246.352 84.5034 247.154 84.5034C251.327 84.6391 255.481 85.1382 259.567 85.9952C261.816 86.4661 264.033 87.0753 266.207 87.8194C266.701 88.0058 267.196 88.168 267.658 88.3544L269.012 88.9139C269.88 89.2868 270.674 89.6516 271.444 89.9435C272.109 90.2107 272.792 90.4301 273.487 90.6002C274.02 90.7248 274.563 90.8008 275.109 90.8272C275.45 90.8348 275.791 90.8212 276.13 90.7867H276.398L276.463 90.7461Z" fill="#263238"/>
<path d="M198.029 181.642C201.322 178.349 201.322 173.011 198.029 169.718C194.736 166.425 189.397 166.425 186.105 169.718C182.812 173.011 182.812 178.349 186.105 181.642C189.397 184.935 194.736 184.935 198.029 181.642Z" fill="#EBEBEB"/>
<path d="M192.283 179.36C192.225 179.36 192.168 179.347 192.115 179.323C192.062 179.3 192.014 179.265 191.975 179.222L187.759 174.261C187.725 174.22 187.699 174.173 187.682 174.123C187.666 174.072 187.659 174.019 187.663 173.966C187.667 173.913 187.682 173.861 187.706 173.813C187.73 173.766 187.764 173.724 187.804 173.689C187.844 173.654 187.891 173.628 187.942 173.612C187.993 173.595 188.046 173.589 188.099 173.593C188.152 173.597 188.204 173.612 188.251 173.636C188.299 173.66 188.341 173.693 188.376 173.734L192.267 178.306L195.753 173.75C195.784 173.704 195.824 173.665 195.871 173.635C195.918 173.606 195.97 173.586 196.025 173.577C196.079 173.568 196.135 173.571 196.189 173.585C196.243 173.598 196.293 173.623 196.337 173.657C196.38 173.69 196.417 173.733 196.444 173.781C196.47 173.83 196.487 173.883 196.492 173.938C196.498 173.993 196.492 174.049 196.475 174.101C196.458 174.154 196.43 174.203 196.394 174.244L192.608 179.174C192.572 179.222 192.526 179.261 192.472 179.288C192.418 179.314 192.359 179.328 192.3 179.328L192.283 179.36Z" fill="#263238"/>
<path d="M354.724 311.982C354.724 312.103 276.844 312.192 180.804 312.192C84.7632 312.192 6.86719 312.136 6.86719 311.982C6.86719 311.828 84.6984 311.771 180.804 311.771C276.909 311.771 354.724 311.868 354.724 311.982Z" fill="#959595"/>
<path d="M284.789 241.836C281.56 239.813 277.91 238.557 274.12 238.163C272.368 237.985 270.463 238.034 269.069 239.088C268.906 239.18 268.773 239.315 268.681 239.478C268.59 239.641 268.544 239.825 268.55 240.012C268.633 240.276 268.808 240.5 269.044 240.644C271.31 242.261 273.975 243.227 276.75 243.437C279.526 243.647 282.306 243.093 284.789 241.836Z" fill="#FFCC33"/>
<path d="M284.521 241.536C282.05 239.719 279.742 237.69 277.622 235.472C275.501 233.233 274.01 230.472 273.301 227.47C273.162 227.026 273.121 226.557 273.18 226.095C273.239 225.633 273.396 225.19 273.641 224.794C279.138 229.091 283.459 234.645 284.521 241.536Z" fill="#FFCC33"/>
<path d="M284.732 241.796C284.224 238.794 284.268 235.725 284.862 232.74C285.478 229.734 287.2 227.07 289.686 225.273C290.634 227.494 290.229 230.048 289.556 232.367C288.524 235.963 286.908 239.365 284.773 242.436" fill="#FFCC33"/>
<path d="M290.124 251.452C286.89 251.974 283.899 253.486 281.562 255.781C279.12 258.021 277.422 260.955 276.698 264.188C279.941 263.994 282.624 261.756 284.602 259.194C286.581 256.632 287.943 253.876 290.107 251.5" fill="#FFCC33"/>
<path d="M291.291 252.992C290 249.725 289.547 246.186 289.972 242.699C290.396 239.211 291.686 235.886 293.723 233.023C295.588 239.647 294.907 247.138 291.291 252.992Z" fill="#FFCC33"/>
<path d="M298.41 261.472C295.42 261.284 292.441 261.981 289.846 263.476C287.25 264.971 285.153 267.199 283.816 269.88C283.698 270.043 283.626 270.236 283.607 270.437C283.589 270.638 283.625 270.84 283.711 271.023C283.839 271.144 283.994 271.233 284.163 271.282C284.332 271.332 284.511 271.34 284.684 271.307C287.562 271.12 290.108 269.385 292.216 267.415C294.324 265.445 296.156 263.167 298.475 261.464" fill="#FFCC33"/>
<path d="M298.182 261.01C296.656 256.073 296.563 250.804 297.915 245.817C298.45 243.863 299.35 241.804 301.158 240.888C301.23 240.841 301.312 240.81 301.397 240.796C301.482 240.782 301.569 240.786 301.652 240.806C301.799 240.882 301.912 241.009 301.969 241.163C302.573 242.534 302.835 244.031 302.731 245.525C302.625 247.011 302.397 248.486 302.05 249.935C301.474 252.635 301.174 255.53 299.698 257.856C299.346 258.412 299.031 258.992 298.758 259.591C298.474 260.183 298.474 260.402 298.215 260.864" fill="#FFCC33"/>
<path d="M317 263.816C316.368 261.044 316.348 258.167 316.94 255.387C317.533 252.606 318.723 249.988 320.429 247.714C320.681 247.398 321.005 247.049 321.41 247.09C322.027 247.147 322.181 247.965 322.156 248.582C321.903 254.043 320.116 259.323 317 263.816Z" fill="#FFCC33"/>
<path d="M318.727 264.983C322.024 265.757 325.45 265.807 328.769 265.13C332.087 264.452 335.219 263.063 337.95 261.059C334.729 259.449 331.052 259.002 327.54 259.794C324.062 260.605 320.883 262.145 318.719 264.983" fill="#FFCC33"/>
<path d="M320.162 261.44C323.778 255.554 330.701 251.711 337.609 251.354C336.798 254.168 334.504 256.348 331.934 257.662C329.269 258.859 326.45 259.678 323.559 260.094C322.448 260.313 320.916 260.548 320.194 261.424" fill="#FFCC33"/>
<path d="M317.389 244.285C318.483 240.966 319.23 237.542 319.618 234.069C320.002 230.57 319.291 227.038 317.583 223.959C314.211 230.494 313.87 238.123 317.292 244.633" fill="#FFCC33"/>
<path d="M328.756 238.536C332.704 231.37 340.755 225.638 348.903 224.835C345.757 232.659 337.188 238.707 328.756 238.536Z" fill="#FFCC33"/>
<path d="M326.275 239.98C332.161 240.871 337.171 244.633 342.676 246.911C343.829 247.466 345.105 247.712 346.381 247.625C346.975 247.618 347.552 247.429 348.035 247.084C348.518 246.739 348.883 246.254 349.082 245.695C349.281 245.135 349.304 244.529 349.147 243.956C348.99 243.384 348.661 242.873 348.205 242.493C347.424 241.776 346.506 241.224 345.506 240.871C339.514 238.374 333.093 238.318 326.778 239.826" fill="#FFCC33"/>
<path d="M322.862 244.074C324.2 244.455 324.654 245.144 325.708 246.044C329.307 249.102 333.563 251.288 338.144 252.433C338.623 252.554 339.247 252.603 339.482 252.173C339.717 251.744 339.425 251.363 339.158 251.006C337.159 248.662 334.566 246.901 331.65 245.906C328.78 244.844 326.291 243.555 322.862 243.831" fill="#FFCC33"/>
<path d="M319.019 219.136C321.433 221.36 324.286 223.056 327.393 224.114C330.501 225.172 333.796 225.57 337.066 225.281C337.363 225.279 337.65 225.172 337.877 224.981C338.331 224.486 337.787 223.724 337.252 223.311C331.95 219.176 325.521 217.457 319.002 219.136" fill="#FFCC33"/>
<path d="M323.575 217.465C326.77 215.113 330.476 213.55 334.391 212.904C338.305 212.259 342.317 212.549 346.098 213.752C343.155 216.485 339.375 218.145 335.372 218.463C331.411 218.825 327.418 218.487 323.575 217.465Z" fill="#FFCC33"/>
<path d="M321.767 206.01C321.248 200.715 321.581 196.532 321.216 191.214C321.216 190.784 321.094 190.273 320.697 190.119C320.146 189.908 319.683 190.589 319.497 191.157C318.721 193.628 318.522 196.245 318.914 198.805C319.306 201.366 320.279 203.802 321.759 205.929" fill="#FFCC33"/>
<path d="M321.386 206.593C324.847 204.36 327.829 201.461 330.158 198.064C331.893 195.697 333.352 192.859 332.955 189.957C331.736 189.988 330.539 190.286 329.447 190.827C328.355 191.369 327.394 192.143 326.631 193.094C325.114 195.009 324.01 197.218 323.388 199.58C322.683 201.907 322.197 204.307 321.37 206.593" fill="#FFCC33"/>
<path d="M329.972 204.202C337.87 201.277 345.182 196.963 351.562 191.465C348.984 190.427 346.033 191.051 343.454 192.089C337.614 194.318 332.79 198.606 329.891 204.145" fill="#FFCC33"/>
<path d="M323.81 209.496C327.786 210.058 331.82 210.077 335.801 209.552C339.684 208.904 343.357 207.363 346.989 205.831C347.306 205.741 347.578 205.536 347.751 205.256C347.81 205.087 347.815 204.905 347.766 204.733C347.717 204.562 347.615 204.41 347.476 204.299C347.201 204.074 346.875 203.921 346.527 203.853C342.579 202.742 338.314 203.261 334.431 204.575C330.727 205.837 327.167 207.486 323.81 209.496Z" fill="#FFCC33"/>
<path d="M301.053 219.322C298.329 213.825 298.507 207.42 300.858 201.769C302.48 204.283 302.715 207.493 302.407 210.493C302.099 213.493 301.191 216.582 301.134 219.589" fill="#FFCC33"/>
<path d="M290.189 213.841C286.784 213.797 283.407 214.464 280.275 215.798C277.142 217.133 274.322 219.106 271.996 221.592C275.431 221.987 278.905 221.331 281.96 219.711C284.988 218.114 287.846 216.213 290.489 214.036" fill="#FFCC33"/>
<path d="M282.884 211.393C279.56 211.125 276.398 210.712 273.155 211.693C271.543 212.146 270.048 212.942 268.771 214.024C267.493 215.107 266.464 216.452 265.753 217.968C268.882 218.217 272.02 217.623 274.841 216.249C277.653 214.873 280.334 213.245 282.851 211.385" fill="#FFCC33"/>
<path d="M293.699 211.506C290.707 209.553 287.643 207.558 284.157 206.747C280.67 205.937 276.649 206.537 274.225 209.18C277.038 210.801 280.46 211.028 283.719 211.028C286.978 211.028 291.016 210.988 294.072 212.074" fill="#FFCC33"/>
<path d="M293.715 211.669C288.608 206.65 286.67 197.643 288.721 190.784C292.756 196.956 294.521 204.339 293.715 211.669Z" fill="#FFCC33"/>
<path d="M307.757 197.456C308.722 195.211 309.379 192.859 310.263 190.581C311.055 188.269 312.267 186.122 313.838 184.249C315.441 182.383 317.711 181.219 320.162 181.006C319.377 184.462 317.88 187.715 315.767 190.559C313.653 193.402 310.969 195.774 307.887 197.521" fill="#FFCC33"/>
<path d="M305.22 200.415C303.598 198.218 301.782 195.243 299.618 193.605C297.453 191.967 294.64 190.978 292.005 191.603C293.37 193.998 295.276 196.043 297.57 197.572C299.864 199.102 302.483 200.076 305.22 200.415Z" fill="#FFCC33"/>
<path d="M305.731 197.635C304.587 195.02 303.743 192.284 303.217 189.479C302.691 186.647 303.14 183.721 304.49 181.177C307.295 186.479 308.203 192.17 305.876 197.699" fill="#FFCC33"/>
<path d="M307.79 181.177C309.371 175.923 314.187 172.056 319.384 170.28C320.024 170.014 320.72 169.908 321.41 169.972C321.756 170.009 322.083 170.147 322.349 170.369C322.616 170.592 322.812 170.888 322.91 171.221C323.105 172.121 322.359 172.915 321.67 173.515C317.607 176.978 312.886 179.584 307.79 181.177Z" fill="#FFCC33"/>
<path d="M307.846 176.88C308.049 173.491 308.26 170.053 309.363 166.843C310.465 163.632 312.606 160.624 315.678 159.222C316.197 162.643 314.689 166.04 312.873 168.991C311.057 171.942 308.819 174.715 307.757 177.998" fill="#FFCC33"/>
<path d="M307.758 179.214C306.444 175.38 306.314 170.515 304.02 167.183C302.399 164.848 299.853 163.259 298.466 160.794C297.636 163.162 297.752 165.759 298.791 168.042C299.831 170.303 301.267 172.36 303.031 174.115C304.733 175.931 306.185 177.293 307.758 179.214Z" fill="#FFCC33"/>
<path d="M307.79 291.989C307.684 291.989 307.595 266.442 307.587 234.937C307.579 203.431 307.66 177.877 307.757 177.877C307.855 177.877 307.952 203.415 307.96 234.937C307.968 266.458 307.887 291.989 307.79 291.989Z" fill="#959595"/>
<path d="M330.109 215.463C329.803 215.615 329.483 215.737 329.153 215.828L326.51 216.72C324.28 217.474 321.216 218.576 317.892 219.962C314.568 221.349 311.503 222.516 309.736 224.016C309.036 224.607 308.481 225.35 308.114 226.189C307.863 226.789 307.822 227.154 307.782 227.146C307.767 227.057 307.767 226.967 307.782 226.878C307.818 226.624 307.881 226.374 307.968 226.132C308.308 225.239 308.866 224.445 309.59 223.822C310.656 222.919 311.85 222.179 313.133 221.625C314.551 220.96 316.116 220.271 317.786 219.59C321.118 218.219 324.207 217.157 326.461 216.46C327.588 216.111 328.504 215.852 329.145 215.649C329.46 215.557 329.783 215.495 330.109 215.463Z" fill="#959595"/>
<path d="M337.431 197.489C337.35 197.593 337.26 197.691 337.163 197.781L336.352 198.543L333.296 201.324L323.113 210.396C319.132 213.939 315.695 217.32 313.319 219.865C312.127 221.138 311.187 222.192 310.546 222.922C310.246 223.262 310.003 223.546 309.801 223.732C309.598 223.919 309.541 224.024 309.525 224.016C309.584 223.899 309.657 223.79 309.744 223.692C309.898 223.481 310.125 223.181 310.433 222.8C311.041 221.989 311.957 220.952 313.125 219.654C316.194 216.294 319.442 213.101 322.853 210.088C326.842 206.561 330.474 203.383 333.117 201.097L336.255 198.405L337.114 197.691C337.212 197.613 337.318 197.545 337.431 197.489Z" fill="#959595"/>
<path d="M318.8 214.036C318.694 213.987 319.529 212.074 320.356 209.642C321.183 207.21 321.58 205.175 321.686 205.191C321.6 206.757 321.269 208.3 320.705 209.763C320.35 210.81 319.936 211.836 319.464 212.836C319.303 213.267 319.079 213.671 318.8 214.036Z" fill="#959595"/>
<path d="M307.806 229.44C307.58 229.224 307.376 228.985 307.198 228.727L305.65 226.732C304.336 225.03 302.512 222.678 300.469 220.1C298.426 217.522 296.545 215.236 295.183 213.549L293.562 211.563C293.353 211.328 293.168 211.073 293.01 210.801C293.255 210.999 293.478 211.221 293.675 211.466C294.08 211.912 294.664 212.56 295.37 213.379C296.78 215.001 298.694 217.295 300.745 219.865C302.796 222.435 304.58 224.819 305.844 226.57C306.477 227.437 306.979 228.151 307.32 228.654C307.512 228.896 307.675 229.16 307.806 229.44Z" fill="#959595"/>
<path d="M302.917 223.173C301.926 222.081 301.222 220.761 300.866 219.33C300.479 218.079 300.32 216.77 300.396 215.463H300.566C300.493 215.755 300.436 215.909 300.404 215.909C300.371 215.909 300.404 215.739 300.404 215.43H300.566C300.645 216.707 300.863 217.971 301.215 219.2C301.682 220.565 302.251 221.893 302.917 223.173Z" fill="#959595"/>
<path d="M296.593 215.22C296.153 214.892 295.674 214.619 295.167 214.409C293.877 214.023 292.52 213.915 291.186 214.093C289.837 214.195 288.5 214.412 287.189 214.741C286.658 214.909 286.116 215.04 285.567 215.13C286.061 214.843 286.593 214.627 287.148 214.49C288.466 214.081 289.826 213.826 291.202 213.728C292.585 213.54 293.992 213.69 295.304 214.166C295.839 214.364 296.293 214.735 296.593 215.22Z" fill="#959595"/>
<path d="M295.11 213.298C295.11 213.355 294.299 212.966 292.921 212.487C289.364 211.281 285.558 211.002 281.862 211.677C280.452 211.936 279.592 212.196 279.576 212.139C279.757 212.026 279.954 211.941 280.16 211.888C280.691 211.703 281.233 211.549 281.781 211.425C285.516 210.606 289.41 210.902 292.978 212.277C293.514 212.481 294.037 212.719 294.542 212.99C294.915 213.16 295.11 213.274 295.11 213.298Z" fill="#959595"/>
<path d="M307.757 205.118C307.103 203.302 306.561 201.447 306.136 199.564C305.602 197.701 305.187 195.805 304.896 193.889C305.55 195.705 306.092 197.56 306.517 199.443C307.056 201.305 307.471 203.2 307.757 205.118Z" fill="#959595"/>
<path d="M307.863 205.118C307.352 203.968 306.758 202.857 306.087 201.794C305.341 200.784 304.463 199.879 303.477 199.102C303.853 199.186 304.202 199.365 304.49 199.621C305.233 200.161 305.877 200.825 306.395 201.583C307.185 202.613 307.691 203.832 307.863 205.118Z" fill="#959595"/>
<path d="M307.79 278.368C307.749 278.368 307.668 277.752 307.384 276.666C306.954 275.139 306.372 273.659 305.649 272.247C303.19 267.623 300.147 263.334 296.593 259.486C294.575 257.176 292.613 254.995 290.918 252.911C289.422 251.073 288.067 249.124 286.865 247.082C286.062 245.703 285.382 244.257 284.83 242.761C284.635 242.225 284.497 241.812 284.424 241.52C284.376 241.378 284.341 241.231 284.319 241.082C284.319 241.082 284.538 241.666 284.959 242.704C285.563 244.169 286.275 245.586 287.092 246.944C288.301 248.954 289.656 250.872 291.145 252.684C292.815 254.751 294.786 256.924 296.82 259.235C300.396 263.103 303.429 267.44 305.836 272.126C306.539 273.562 307.083 275.071 307.457 276.625C307.554 277.048 307.63 277.476 307.684 277.906C307.735 278.056 307.77 278.211 307.79 278.368Z" fill="#959595"/>
<path d="M327.961 255.587C327.619 255.803 327.264 256.001 326.899 256.178C325.945 256.717 325.029 257.321 324.159 257.986C322.874 258.987 321.671 260.088 320.559 261.278C319.294 262.608 317.989 264.164 316.66 265.818C314.008 269.158 311.519 272.109 310.036 274.461C309.274 275.628 308.73 276.617 308.366 277.306C308.199 277.673 308.007 278.028 307.79 278.368C307.79 278.368 307.79 278.263 307.887 278.068C307.985 277.874 308.074 277.59 308.236 277.258C308.701 276.254 309.227 275.28 309.809 274.339C311.831 271.307 314.024 268.392 316.376 265.607C317.705 263.986 319.027 262.364 320.316 261.051C321.452 259.868 322.686 258.783 324.005 257.808C324.896 257.148 325.842 256.568 326.834 256.073C327.183 255.895 327.475 255.789 327.645 255.708C327.815 255.627 327.953 255.57 327.961 255.587Z" fill="#959595"/>
<path d="M328.351 262.972C327.614 263.139 326.866 263.247 326.113 263.297C324.318 263.484 322.543 263.834 320.811 264.342C319.1 264.897 317.496 265.739 316.068 266.831C314.973 267.683 314.446 268.38 314.406 268.339C314.485 268.148 314.597 267.972 314.738 267.82C315.087 267.388 315.475 266.989 315.898 266.629C317.314 265.452 318.944 264.557 320.697 263.994C322.452 263.472 324.261 263.151 326.089 263.037C326.839 262.948 327.596 262.927 328.351 262.972Z" fill="#959595"/>
<path d="M315.062 267.545C314.949 267.472 315.954 265.923 316.74 263.864C317.527 261.805 317.64 259.948 317.77 259.972C317.84 260.369 317.84 260.775 317.77 261.172C317.657 262.134 317.439 263.08 317.121 263.994C316.777 264.9 316.342 265.769 315.824 266.588C315.378 267.188 315.111 267.545 315.062 267.545Z" fill="#959595"/>
<path d="M334.496 235.74C334.382 235.811 334.262 235.873 334.139 235.926L333.085 236.404C332.623 236.599 332.063 236.85 331.463 237.215C330.864 237.58 330.093 237.88 329.323 238.342L328.107 239.031C327.685 239.274 327.296 239.566 326.818 239.842C325.926 240.385 325.026 241.058 324.061 241.747C322.017 243.291 320.09 244.985 318.297 246.814C316.534 248.67 314.909 250.65 313.433 252.741C312.776 253.73 312.135 254.654 311.625 255.57C311.365 256.024 311.09 256.446 310.863 256.884L310.206 258.124C309.776 258.935 309.468 259.656 309.16 260.297C308.852 260.937 308.617 261.505 308.438 261.967L308.001 263.037C307.954 263.162 307.894 263.282 307.822 263.394C307.839 263.26 307.875 263.129 307.928 263.005C308.025 262.721 308.155 262.356 308.301 261.918C308.494 261.339 308.719 260.771 308.974 260.216C309.257 259.559 309.557 258.797 309.979 258.002L310.611 256.746C310.83 256.308 311.106 255.87 311.365 255.416C311.868 254.484 312.5 253.543 313.149 252.554C314.613 250.432 316.239 248.426 318.013 246.555C319.818 244.711 321.764 243.011 323.834 241.471C324.807 240.79 325.723 240.118 326.631 239.582C327.085 239.307 327.507 239.023 327.937 238.772L329.177 238.091C329.988 237.645 330.71 237.32 331.35 237.012C331.99 236.704 332.558 236.469 333.028 236.291L334.107 235.877C334.229 235.814 334.36 235.767 334.496 235.74Z" fill="#959595"/>
<path d="M318.524 246.465C318.675 245.949 318.984 245.493 319.408 245.16C320.389 244.305 321.641 243.826 322.942 243.806C324.218 243.8 325.483 244.046 326.664 244.528C327.166 244.685 327.642 244.917 328.074 245.217C327.563 245.113 327.061 244.967 326.575 244.779C325.409 244.375 324.184 244.169 322.951 244.171C321.729 244.199 320.549 244.613 319.578 245.355C319.203 245.702 318.851 246.073 318.524 246.465Z" fill="#959595"/>
<path d="M316.141 248.898C316.616 247.866 316.954 246.775 317.146 245.655C317.216 244.512 317.14 243.365 316.919 242.242C317.132 242.519 317.274 242.845 317.332 243.19C317.551 244.006 317.611 244.857 317.511 245.695C317.419 246.546 317.166 247.372 316.765 248.128C316.449 248.63 316.189 248.898 316.141 248.898Z" fill="#959595"/>
<path d="M290.14 282.033C290.691 291.762 293.634 301.718 298.158 311.763H317.811C322.132 301.823 324.864 291.908 325.351 282.033H290.14Z" fill="#455A64"/>
<path d="M322.189 297.826C322.189 297.932 315.703 298.013 307.717 298.013C299.731 298.013 293.253 297.932 293.253 297.826C293.253 297.721 299.739 297.64 307.717 297.64C315.695 297.64 322.189 297.729 322.189 297.826Z" fill="#FAFAFA"/>
<path d="M321.751 301.361C321.751 301.466 315.679 301.547 308.187 301.547C300.696 301.547 294.624 301.466 294.624 301.361C294.624 301.256 300.696 301.183 308.187 301.183C315.679 301.183 321.751 301.264 321.751 301.361Z" fill="#FAFAFA"/>
<path d="M102.229 315.906C100.361 316.511 47.0578 315.817 45.0496 314.503C44.2744 314.016 43.9275 306.242 43.765 296.843V296.548C43.7281 294.606 46.2752 262.107 46.2752 262.107L81.934 262.462L78.154 296.607V297.19C78.154 297.19 98.4344 306.581 100.494 308.264C102.554 309.948 104.097 315.315 102.229 315.906Z" fill="#D3766A"/>
<path d="M102.229 315.906C100.362 316.511 47.058 315.817 45.0499 314.503C44.2747 314.016 43.9277 306.242 43.7653 296.843V296.548C43.7284 294.606 44.1861 290.036 44.1787 289.756L78.8777 289.852L78.1395 296.607V297.19C78.1395 297.19 98.4199 306.581 100.48 308.264C102.54 309.948 104.097 315.315 102.229 315.906Z" fill="#EBEBEB"/>
<path d="M102.229 315.906C101.269 316.216 86.7917 316.179 72.6389 315.906C69.7892 315.847 66.9616 315.78 64.2595 315.706C54.1673 315.433 45.8026 315.012 45.0643 314.51C44.3261 314.008 43.9421 306.471 43.7871 297.242C43.7871 297.109 43.7871 296.976 43.7871 296.851C43.7871 296.725 43.7871 296.644 43.7871 296.548H43.8314L78.176 296.615V297.198C78.176 297.198 98.4639 306.581 100.516 308.272C102.569 309.963 104.097 315.308 102.229 315.906Z" fill="#455A64"/>
<path d="M101.653 313.831C92.6684 313.499 56.4116 312.982 47.508 313.329C47.4342 313.329 47.4342 313.388 47.508 313.388C56.4042 313.92 92.661 314.126 101.646 313.979C101.838 313.993 101.838 313.838 101.653 313.831Z" fill="#263238"/>
<path d="M81.9856 296.755C78.4567 296.053 74.123 296.541 71.3914 299.021C71.288 299.117 71.3914 299.265 71.539 299.235C74.931 298.187 78.4259 297.506 81.9635 297.205C82.017 297.198 82.0663 297.173 82.103 297.134C82.1396 297.094 82.1612 297.043 82.1638 296.989C82.1664 296.935 82.15 296.882 82.1175 296.839C82.0849 296.797 82.0382 296.767 81.9856 296.755Z" fill="#263238"/>
<path d="M84.5179 298.327C80.9889 297.589 76.6552 298.106 73.9236 300.594C73.8202 300.69 73.9236 300.837 74.0712 300.801C77.465 299.759 80.9592 299.078 84.4957 298.77C84.5545 298.773 84.612 298.753 84.6556 298.713C84.6992 298.674 84.7253 298.619 84.7283 298.56C84.7312 298.501 84.7107 298.444 84.6712 298.4C84.6318 298.356 84.5766 298.33 84.5179 298.327Z" fill="#263238"/>
<path d="M87.0504 299.9C83.5214 299.162 79.1877 299.678 76.4561 302.166C76.3454 302.262 76.4561 302.41 76.6038 302.373C79.9958 301.324 83.4907 300.644 87.0282 300.343C87.0573 300.344 87.0864 300.34 87.1138 300.33C87.1413 300.32 87.1665 300.305 87.1881 300.286C87.2097 300.266 87.2272 300.243 87.2397 300.216C87.2522 300.19 87.2594 300.161 87.2608 300.132C87.2623 300.103 87.258 300.074 87.2482 300.047C87.2384 300.019 87.2233 299.994 87.2038 299.972C87.1842 299.951 87.1606 299.933 87.1343 299.921C87.108 299.908 87.0795 299.901 87.0504 299.9Z" fill="#263238"/>
<path opacity="0.1" d="M72.639 315.898C69.7892 315.839 66.9616 315.773 64.2595 315.699C54.1673 315.426 45.8026 315.005 45.0643 314.503C44.3261 314.001 43.9421 306.463 43.7871 297.235C43.7871 297.102 43.7871 296.969 43.7871 296.843C43.7871 296.718 43.7871 296.637 43.7871 296.541H43.8314C48.5121 299.841 65.0938 310.878 72.639 315.898Z" fill="black"/>
<path d="M80.4942 295.943H42.1038C42.1038 295.943 49.841 206.294 49.5383 204.729C49.1544 202.72 46.8878 193.654 43.8683 181.79C42.9233 178.099 41.9045 174.105 40.8487 169.978C37.9842 158.823 34.8318 146.634 32.0854 136.017C27.9584 120.122 24.7026 107.778 24.7026 107.778H57.2828C57.2828 107.778 61.0701 119.797 65.8542 135.434C73.6356 160.845 84.0379 195.825 85.0494 204.33C86.7179 218.077 80.4942 295.943 80.4942 295.943Z" fill="#EC615B"/>
<path d="M78.7966 289.394C72.9347 289.276 74.618 289.224 68.7561 289.173C65.8842 289.173 47.0286 288.981 44.3486 289.424C44.333 289.424 44.3179 289.43 44.3069 289.441C44.2958 289.452 44.2896 289.467 44.2896 289.483C44.2896 289.498 44.2958 289.513 44.3069 289.525C44.3179 289.536 44.333 289.542 44.3486 289.542C47.0286 289.985 65.8842 289.822 68.7561 289.793C74.618 289.734 72.9347 289.69 78.7966 289.564C78.8149 289.559 78.8309 289.547 78.8423 289.532C78.8537 289.517 78.8599 289.498 78.8599 289.479C78.8599 289.46 78.8537 289.441 78.8423 289.426C78.8309 289.411 78.8149 289.4 78.7966 289.394Z" fill="#37474F"/>
<path d="M56.759 199.25C55.504 193.699 53.6214 188.257 51.9824 182.816C48.6601 171.747 45.3133 160.685 41.9418 149.631C40.2635 144.099 38.5753 138.574 36.8772 133.057C36.0208 130.266 35.1595 127.478 34.2933 124.692C33.4369 121.968 32.4624 119.265 31.6945 116.519C31.3845 115.397 31.2073 116.017 31.6133 117.435C32.4181 120.299 33.2228 123.164 34.057 126.021C35.7108 131.676 37.3743 137.336 39.0478 143.001C42.3749 154.243 45.7316 165.479 49.1179 176.711C50.811 182.341 52.5041 187.972 54.1972 193.603C55.0538 196.282 55.7465 199.012 56.2718 201.775C56.7242 204.666 56.8382 207.599 56.6114 210.516C56.2422 216.386 55.563 222.255 55.0167 228.11C54.4704 233.964 53.9314 239.856 53.3925 245.725C52.3048 257.414 51.2318 269.101 50.1736 280.786C50.0407 282.262 49.9078 283.739 49.7971 285.215C49.7602 285.71 50.5354 285.673 50.5354 285.215C51.7978 273.661 52.7502 262.07 53.8502 250.516C54.9503 238.962 56.0134 227.482 57.0839 215.972C57.357 213.078 57.6671 210.184 57.6671 207.275C57.6673 204.575 57.3627 201.883 56.759 199.25Z" fill="#37474F"/>
<path d="M53.5915 107.793C51.3323 125.268 47.0282 157.996 43.8831 181.79C36.5521 152.997 24.7544 107.793 24.7544 107.793H53.5915Z" fill="#D0534E"/>
<path d="M60.745 316.142C58.8772 316.755 5.57358 316.26 3.55809 314.953C2.81981 314.466 2.40638 306.692 2.21443 297.294V297.013C2.17013 295.079 2.13321 293.078 2.12583 291.055C2.12583 290.782 2.12583 290.502 2.12583 290.221C2.00032 276.652 2.98223 262.573 2.98223 262.573L37.8215 262.802L36.847 290.192L36.8101 291.277L36.6181 296.947V297.53C36.6181 297.53 56.9355 306.847 59.0027 308.523C61.0698 310.199 62.6128 315.544 60.745 316.142Z" fill="#D3766A"/>
<path d="M60.7452 316.142C58.8773 316.755 5.57373 316.26 3.55824 314.953C2.81996 314.466 2.40653 306.692 2.21458 297.294V297.013C2.17028 295.079 2.13336 293.078 2.12598 291.055C2.12598 290.782 2.12598 290.502 2.12598 290.221H36.825L36.7881 291.306L36.5961 296.976V297.56C36.5961 297.56 56.9135 306.877 58.9807 308.553C61.0478 310.229 62.613 315.544 60.7452 316.142Z" fill="#EBEBEB"/>
<path d="M60.7454 316.142C58.8776 316.755 5.574 316.26 3.5585 314.953C2.82022 314.466 2.4068 306.692 2.21484 297.294V297.013L36.6038 296.947V297.53C36.6038 297.53 56.9211 306.847 58.9883 308.523C61.0555 310.199 62.6133 315.544 60.7454 316.142Z" fill="#455A64"/>
<path d="M60.1625 314.075C51.1777 313.772 14.9209 313.388 6.01728 313.772C5.94346 313.772 5.94346 313.824 6.01728 313.824C14.9135 314.326 51.1703 314.407 60.1625 314.222C60.3471 314.215 60.3471 314.082 60.1625 314.075Z" fill="#263238"/>
<path d="M40.4282 297.065C36.8993 296.378 32.5729 296.88 29.8487 299.368C29.738 299.472 29.8487 299.619 29.9964 299.582C33.3846 298.522 36.877 297.829 40.4134 297.515C40.4666 297.507 40.5154 297.481 40.5512 297.441C40.587 297.401 40.6076 297.35 40.6093 297.296C40.6111 297.242 40.5939 297.19 40.5608 297.148C40.5277 297.105 40.4808 297.076 40.4282 297.065Z" fill="#263238"/>
<path d="M42.9675 298.63C39.4385 297.936 35.1049 298.438 32.3806 300.934C32.2773 301.03 32.3806 301.177 32.5283 301.14C35.9174 300.083 39.4094 299.39 42.9454 299.073C43.0041 299.076 43.0616 299.056 43.1052 299.016C43.1488 298.977 43.175 298.921 43.1779 298.863C43.1809 298.804 43.1604 298.746 43.1209 298.703C43.0814 298.659 43.0262 298.633 42.9675 298.63Z" fill="#263238"/>
<path d="M45.5075 300.195C41.9786 299.501 37.6449 300.003 34.9207 302.498C34.8173 302.594 34.9207 302.742 35.0683 302.705C38.4565 301.645 41.949 300.952 45.4854 300.638C45.5441 300.641 45.6016 300.62 45.6453 300.581C45.6889 300.542 45.715 300.486 45.718 300.428C45.7209 300.369 45.7004 300.311 45.6609 300.268C45.6215 300.224 45.5663 300.198 45.5075 300.195Z" fill="#263238"/>
<path d="M56.2124 107.793C56.2124 107.793 55.4741 123.356 51.9008 135.685C51.6203 136.704 51.3102 137.708 50.9706 138.638C47.7067 139.96 44.5686 141.573 41.5945 143.459C41.5945 143.459 41.2254 156.01 40.8562 169.948C40.4354 185.563 40.0072 202.979 40.118 206.67C40.4428 220.491 38.3904 296.481 38.3904 296.481L0 296.636C0 296.636 6.9398 211.772 6.88812 206.714C6.81429 198.593 8.74858 162.61 10.2399 136.379C11.148 120.225 11.901 107.763 11.901 107.763L56.2124 107.793Z" fill="#EC615B"/>
<path d="M37.0465 289.682C31.1846 289.586 32.8678 289.527 27.0059 289.498C24.134 289.498 5.27844 289.402 2.5985 289.852C2.53943 289.852 2.53943 289.963 2.5985 289.97C5.28582 290.406 24.134 290.162 27.0059 290.118C32.8678 290.037 31.1846 290 37.0465 289.852C37.0648 289.846 37.0808 289.835 37.0922 289.82C37.1036 289.805 37.1098 289.786 37.1098 289.767C37.1098 289.748 37.1036 289.729 37.0922 289.714C37.0808 289.699 37.0648 289.688 37.0465 289.682Z" fill="#37474F"/>
<path d="M15.1126 113.352C14.3744 134.762 13.6361 156.172 12.6985 177.582C11.7609 198.992 10.4467 220.52 8.64533 241.945C7.64127 253.913 6.69628 270.738 5.4043 282.691C5.4043 282.772 5.51504 282.801 5.5298 282.691C8.32049 261.45 9.87826 235.19 11.2588 213.817C12.6394 192.444 13.5623 170.997 14.2932 149.638C14.6992 137.531 15.0314 125.415 15.3784 113.308C15.3858 113.182 15.12 113.182 15.1126 113.352Z" fill="#37474F"/>
<path d="M52.2036 137.745C48.386 139.335 44.715 141.257 41.2328 143.489C41.2025 143.504 41.1796 143.531 41.1692 143.564C41.1588 143.596 41.1618 143.632 41.1774 143.662C41.1931 143.692 41.2202 143.715 41.2527 143.726C41.2852 143.736 41.3206 143.733 41.3509 143.717C45.0423 141.916 48.8297 140.181 52.4251 138.18C52.4828 138.151 52.5266 138.1 52.5466 138.038C52.5667 137.977 52.5615 137.91 52.5321 137.852C52.5028 137.794 52.4516 137.75 52.39 137.73C52.3284 137.71 52.2613 137.715 52.2036 137.745Z" fill="#37474F"/>
<path d="M52.4175 124.537C52.1665 125.903 51.8343 127.254 51.539 128.605C51.2436 129.956 51.0591 131.174 50.7269 132.437C50.448 133.653 49.8282 134.764 48.9402 135.641C48.4456 136.106 47.8919 136.519 47.3603 136.94C47.0724 137.169 46.7623 137.39 46.467 137.627C46.467 137.442 46.5334 137.258 46.5703 137.073L46.8361 135.523C47.0281 134.371 47.2127 133.219 47.3825 132.067C47.7294 129.808 48.0543 127.52 48.5194 125.283C48.5231 125.272 48.524 125.26 48.5222 125.248C48.5204 125.237 48.5159 125.226 48.5091 125.216C48.5022 125.207 48.4932 125.199 48.4828 125.194C48.4724 125.189 48.4609 125.186 48.4493 125.186C48.4376 125.186 48.4261 125.189 48.4157 125.194C48.4053 125.199 48.3963 125.207 48.3895 125.216C48.3826 125.226 48.3781 125.237 48.3763 125.248C48.3745 125.26 48.3755 125.272 48.3791 125.283C47.818 127.498 47.1979 129.712 46.7033 131.927C46.467 133.027 45.6032 138.454 45.5663 138.837C45.5294 139.221 45.4925 139.627 45.4777 140.026C45.426 140.431 45.426 140.84 45.4777 141.244C45.4777 141.34 45.618 141.325 45.6623 141.244C45.8267 140.867 45.9433 140.47 46.0093 140.063C46.1053 139.679 46.1938 139.28 46.2603 138.889C46.2603 138.749 46.3046 138.601 46.3267 138.461C46.8583 138.136 47.3603 137.723 47.855 137.346C48.3496 136.97 48.9476 136.571 49.4496 136.143C50.3838 135.352 51.0557 134.297 51.3765 133.116C51.7052 131.838 51.9201 130.534 52.0188 129.218C52.1886 127.682 52.3141 126.132 52.5282 124.596C52.5725 124.485 52.4397 124.441 52.4175 124.537Z" fill="#37474F"/>
<path d="M33.2666 122.263C32.1591 125.445 32.0632 129.483 29.2282 131.979C27.6876 133.17 25.8264 133.874 23.8831 134.002C21.6191 134.242 19.335 134.219 17.0762 133.935C16.9802 133.935 16.9654 134.046 17.0762 134.075C21.0702 135.412 26.6738 135.552 29.9369 132.865C31.2961 131.65 32.2151 130.02 32.5504 128.228C33.0066 126.286 33.3078 124.312 33.4511 122.322C33.4364 122.211 33.2887 122.189 33.2666 122.263Z" fill="#37474F"/>
<path d="M55.4521 119.627C56.0723 122.832 56.2421 126.87 57.6669 129.447C57.9401 129.966 58.3137 130.426 58.7662 130.8C59.2186 131.174 59.7409 131.454 60.3026 131.624C61.3671 131.926 62.4877 131.971 63.5732 131.757C63.6248 131.757 63.6322 131.875 63.5732 131.898C63.0737 132.25 62.5039 132.489 61.9029 132.6C61.302 132.711 60.6842 132.69 60.0921 132.539C59.4999 132.388 58.9475 132.111 58.4728 131.726C57.998 131.341 57.6123 130.858 57.3421 130.31C56.5851 128.845 56.1117 127.249 55.9468 125.608C55.6662 123.666 55.4595 121.621 55.334 119.65C55.3635 119.568 55.4373 119.554 55.4521 119.627Z" fill="#37474F"/>
<path d="M42.6651 71.3368C44.1859 78.092 61.3287 105.371 68.2021 106.494C78.9735 108.251 104.141 98.4463 106.88 97.2577C112.203 94.9395 103.27 74.2161 98.8406 76.0987C91.4578 79.2585 73.3036 87.3131 70.5055 85.3936C63.6483 80.767 57.1524 75.6261 51.0741 70.0153C45.345 64.8178 40.9892 63.8802 42.6651 71.3368Z" fill="#D3766A"/>
<path d="M104.673 98.114C107.057 97.4865 117.888 93.9797 120.612 92.2078C123.336 90.436 129.471 84.1828 128.866 81.776C128.342 79.79 126.061 80.9417 126.061 80.9417C126.061 80.9417 128.534 78.5571 127.212 76.4235C125.891 74.2899 122.694 76.8443 122.694 76.8443C122.694 76.8443 125.344 73.714 123.868 71.6764C122.391 69.6387 119.232 72.6287 119.232 72.6287C119.232 72.6287 121.793 69.875 119.866 68.7085C117.556 67.3131 113.414 72.9167 110.269 74.6147C109.531 74.9986 95.208 81.3478 95.208 81.3478L104.673 98.114Z" fill="#D3766A"/>
<path d="M119.512 72.4147C116.456 76.5269 114.411 77.8041 109.7 79.6203C109.612 79.6572 109.641 79.8049 109.745 79.7753C114.514 78.4095 117.312 77.184 119.719 72.555C119.837 72.3261 119.652 72.2154 119.512 72.4147Z" fill="#263238"/>
<path d="M122.93 76.549C119.379 80.5431 117.172 81.9458 112.388 84.2123C112.321 84.2493 112.388 84.3674 112.439 84.3379C117.319 82.5069 120.081 81.2223 123.1 76.7631C123.24 76.5564 123.093 76.3645 122.93 76.549Z" fill="#263238"/>
<path d="M125.891 81.0672C122.2 84.6921 119.822 86.3311 114.891 87.9331C114.868 87.941 114.848 87.9575 114.837 87.9793C114.825 88.001 114.823 88.0263 114.829 88.0499C114.836 88.0735 114.851 88.0937 114.872 88.1064C114.893 88.119 114.919 88.123 114.942 88.1177C120.11 86.9734 123.064 84.9505 126.017 81.1927C126.186 80.9343 126.127 80.8383 125.891 81.0672Z" fill="#263238"/>
<path d="M91.2437 80.3364C91.2437 80.3364 94.78 74.9691 96.8472 72.9536C98.9143 70.9381 109.398 66.3091 110.535 68.5239C112.011 71.3737 106.482 75.257 103.529 76.8074C103.529 76.8074 106.932 83.3928 103.573 87.0399C100.214 90.687 91.2437 80.3364 91.2437 80.3364Z" fill="#D3766A"/>
<path d="M110.697 69.4024C110.158 72.9608 106.157 74.7475 103.403 76.4677C103.361 76.4901 103.325 76.5226 103.298 76.5624C103.272 76.6022 103.256 76.648 103.251 76.6956C103.247 76.7433 103.254 76.7912 103.273 76.8352C103.292 76.8792 103.321 76.9178 103.359 76.9475C104.599 79.8047 105.515 84.1974 103.787 86.9955C103.775 87.0112 103.77 87.0308 103.773 87.0502C103.776 87.0696 103.786 87.0871 103.802 87.0988C103.817 87.1106 103.837 87.1156 103.857 87.1129C103.876 87.1101 103.893 87.0997 103.905 87.0841C106.164 84.3303 105.618 79.9449 104.06 76.9032C106.91 75.1904 110.845 73.2119 110.705 69.4024C110.734 69.3802 110.705 69.3802 110.697 69.4024Z" fill="#263238"/>
<path d="M90.7858 78.4168C90.7858 78.4168 73.488 85.9251 71.5389 84.9949C68.3053 83.4445 53.6579 71.6616 48.549 67.2762C43.4401 62.8909 35.7251 61.9606 43.6985 76.955C51.6719 91.9494 59.6748 103.179 67.4267 107.438C72.2551 110.096 98.7666 102.44 98.7666 102.44L90.7858 78.4168Z" fill="#A6A6A6"/>
<path opacity="0.1" d="M41.1146 64.9802C39.9408 66.7447 40.2361 70.4508 43.706 76.9698C51.672 91.9716 59.6823 103.193 67.4268 107.453C68.3866 107.985 70.2175 108.103 72.5357 107.948C65.1086 97.8409 47.198 73.4704 41.1146 64.9802Z" fill="black"/>
<path d="M92.8533 102.293C90.727 93.1307 87.1021 83.8874 86.5853 82.2263C86.5853 82.1451 86.4376 82.2263 86.4598 82.278C87.0578 83.8801 90.0478 94.9468 92.7204 102.352C92.7204 102.44 92.8754 102.381 92.8533 102.293Z" fill="#263238"/>
<path d="M10.4981 128.856L62.6204 124.98C62.6204 124.98 64.8352 119.849 64.2298 116.778C63.4251 112.57 48.1797 72.1121 44.887 65.9106C42.9822 62.3374 33.894 61.8206 30.2986 65.1723C23.787 71.2927 13.4807 102.677 8.94029 121.281C8.22416 124.212 10.4981 128.856 10.4981 128.856Z" fill="#A6A6A6"/>
<path d="M81.348 100.302L74.13 103.926C73.5032 104.241 73.2502 105.004 73.5649 105.63L79.2791 117.012C79.5938 117.639 80.357 117.891 80.9837 117.577L88.2018 113.953C88.8286 113.638 89.0816 112.875 88.7669 112.248L83.0526 100.867C82.7379 100.24 81.9748 99.9872 81.348 100.302Z" fill="#37474F"/>
<path d="M81.7106 101.578L74.9214 104.987L76.1305 107.395L82.9197 103.986L81.7106 101.578Z" fill="#455A64"/>
<path d="M83.2077 104.54L76.4185 107.948L77.6276 110.357L84.4168 106.948L83.2077 104.54Z" fill="#455A64"/>
<path d="M84.6945 107.519L77.9053 110.928L79.1144 113.336L85.9036 109.927L84.6945 107.519Z" fill="#455A64"/>
<path d="M86.1881 110.498L79.3989 113.907L80.608 116.315L87.3972 112.906L86.1881 110.498Z" fill="#455A64"/>
<path d="M80.4058 102.108L76.1238 104.256L75.2969 102.61C75.1708 102.36 75.149 102.071 75.2362 101.805C75.3234 101.539 75.5125 101.319 75.762 101.193L78.1614 99.9892C78.4114 99.8652 78.7002 99.8444 78.9654 99.9314C79.2306 100.018 79.451 100.206 79.5789 100.454L80.4058 102.108ZM76.4117 103.378L79.5272 101.813L78.9957 100.75C78.9467 100.656 78.863 100.584 78.7623 100.551C78.6616 100.518 78.5519 100.526 78.4567 100.572L76.0573 101.776C76.0101 101.799 75.968 101.832 75.9334 101.872C75.8989 101.912 75.8726 101.958 75.8561 102.008C75.8396 102.058 75.8333 102.111 75.8374 102.164C75.8415 102.217 75.856 102.268 75.8801 102.315L76.4117 103.378Z" fill="#37474F"/>
<path d="M71.5244 103.695C70.2102 103.695 68.9256 103.306 67.8329 102.576C66.7402 101.846 65.8886 100.808 65.3857 99.5937C64.8828 98.3796 64.7512 97.0436 65.0076 95.7547C65.2639 94.4658 65.8968 93.2819 66.826 92.3526C67.7553 91.4234 68.9392 90.7905 70.2281 90.5342C71.517 90.2778 72.853 90.4094 74.0671 90.9123C75.2812 91.4152 76.319 92.2668 77.0491 93.3595C77.7792 94.4522 78.1689 95.7368 78.1689 97.051C78.1689 98.8132 77.4688 100.503 76.2227 101.749C74.9767 102.995 73.2866 103.695 71.5244 103.695ZM71.5244 91.1448C70.3458 91.1375 69.1917 91.4808 68.2087 92.131C67.2258 92.7812 66.4583 93.709 66.0039 94.7965C65.5495 95.8839 65.4287 97.0819 65.6569 98.2382C65.885 99.3945 66.4518 100.457 67.2852 101.29C68.1185 102.124 69.1809 102.69 70.3372 102.919C71.4935 103.147 72.6915 103.026 73.7789 102.571C74.8664 102.117 75.7942 101.35 76.4444 100.367C77.0946 99.3836 77.4379 98.2295 77.4306 97.051C77.4268 95.483 76.8042 93.9799 75.6982 92.8684C74.5923 91.757 73.0923 91.1269 71.5244 91.1152V91.1448Z" fill="#EC615B"/>
<path d="M70.3651 109.42L70.0996 110.715L74.0195 111.519L74.285 110.224L70.3651 109.42Z" fill="#EC615B"/>
<path d="M70.712 110.842L73.3772 111.381L73.2443 112.038L72.447 112.274L73.0819 112.798L72.8678 113.876L71.8637 114.275L72.6241 115.035L72.5799 115.279L71.7751 115.515L72.4174 116.047L71.6201 116.276L72.2624 116.807L72.0926 117.664L71.0885 118.062L71.849 118.815L71.7013 119.568L70.0328 120.927L69.0361 119.022L70.712 110.842Z" fill="#EBEBEB"/>
<path d="M71.8114 111.449L70.248 119.071L70.4289 119.108L71.9922 111.486L71.8114 111.449Z" fill="#DBDBDB"/>
<path d="M76.825 103.489L70.6826 102.226C70.48 102.187 70.2702 102.229 70.0988 102.344C69.9273 102.459 69.8081 102.637 69.7671 102.839L68.8886 107.136C68.8261 107.424 68.8219 107.722 68.8761 108.011C68.9303 108.301 69.0417 108.577 69.204 108.824C69.3663 109.07 69.5761 109.281 69.8211 109.445C70.0661 109.609 70.3414 109.722 70.6309 109.779L73.9015 110.451C74.1902 110.513 74.4884 110.517 74.7786 110.462C75.0689 110.408 75.3453 110.295 75.5915 110.132C75.8378 109.969 76.049 109.759 76.2126 109.513C76.3763 109.267 76.4891 108.991 76.5445 108.701L77.423 104.411C77.4648 104.21 77.4254 104 77.3135 103.827C77.2015 103.655 77.026 103.533 76.825 103.489ZM75.629 105.438L71.0074 104.493L71.2511 103.319L75.8727 104.264L75.629 105.438Z" fill="#EC615B"/>
<path opacity="0.1" d="M75.1419 107.187L74.9869 107.963C74.9741 108.165 74.9124 108.36 74.807 108.533C74.7017 108.706 74.5559 108.851 74.3822 108.954C74.2086 109.058 74.0122 109.118 73.8102 109.13C73.6081 109.141 73.4064 109.103 73.2224 109.018L71.6646 108.73C71.382 108.716 71.1119 108.609 70.8958 108.427C70.6798 108.244 70.5297 107.995 70.4686 107.719C70.4466 107.445 70.4792 107.169 70.5646 106.907C70.6605 106.567 70.6384 105.895 71.17 105.918C71.4431 105.954 72.0633 106.117 72.3364 106.169L73.8868 106.516L74.662 106.685C74.9278 106.685 75.2157 106.885 75.1419 107.187ZM75.1419 107.187C75.2083 106.885 74.9278 106.707 74.662 106.693L73.8868 106.545L72.3217 106.25C72.0633 106.213 71.4062 106.073 71.1626 106.043C70.7417 106.043 70.8304 106.611 70.7196 106.936C70.6508 107.176 70.6258 107.426 70.6458 107.675C70.694 107.92 70.8238 108.142 71.0142 108.304C71.2045 108.466 71.4442 108.559 71.6941 108.568L73.2371 108.922C73.4128 109.013 73.6083 109.059 73.8061 109.056C74.0039 109.053 74.1979 109 74.3705 108.904C74.5432 108.807 74.6892 108.669 74.7954 108.503C74.9017 108.336 74.9649 108.145 74.9795 107.948L75.1419 107.173V107.187Z" fill="black"/>
<path d="M24.6213 72.518C13.5471 88.2581 2.03741 113.906 8.85171 118.24C15.0754 122.197 33.7612 115.641 46.1051 108.974C48.4529 107.704 43.2185 88.4648 40.4869 89.2843C35.4592 90.8052 26.4596 95.1462 26.1348 95.2791C25.4482 95.5597 28.7926 84.36 31.8195 73.5369C35.1934 61.503 30.9557 63.5258 24.6213 72.518Z" fill="#D3766A"/>
<path d="M35.8726 91.4621C35.8726 91.4621 42.8345 87.4164 47.493 85.0317C50.0918 83.6955 54.7503 81.8129 57.0906 81.7095C60.6196 81.5545 75.459 83.1491 75.1489 86.7593C74.8683 90.0225 62.2955 87.0325 62.2955 87.0325C62.2955 87.0325 75.2522 88.9298 74.1891 92.7984C73.126 96.667 59.3645 91.3957 59.3645 91.3957C59.3645 91.3957 72.6535 93.6105 70.9112 97.4643C69.6118 100.351 56.8839 96.2757 56.8839 96.2757C56.8839 96.2757 68.2755 98.2912 67.0647 101.311C65.7285 104.655 53.7389 101.636 53.7389 101.636C49.3609 108.804 44.3406 110.428 40.6345 111.159C39.7264 111.337 35.8726 91.4621 35.8726 91.4621Z" fill="#D3766A"/>
<path d="M57.8516 86.0875C59.3798 86.2574 60.9302 86.4124 62.4437 86.7151C63.9571 87.0178 65.4558 87.3795 66.9324 87.8225C68.8719 88.3596 70.7424 89.1202 72.5064 90.089C69.2432 88.6125 63.8538 87.4312 62.3477 87.1359C60.8416 86.8406 59.3429 86.4567 57.8368 86.154C57.7999 86.1392 57.8147 86.0802 57.8516 86.0875Z" fill="#263238"/>
<path d="M56.6556 91.5213C58.6046 91.8166 60.5463 92.0455 62.4806 92.4294C64.4149 92.8133 67.08 93.4409 68.97 93.9576C69.1177 93.9576 69.1177 94.2234 68.97 94.1865C67.0579 93.7509 64.3041 93.2341 62.3846 92.8207C60.4651 92.4073 58.5677 91.9126 56.6482 91.5656C56.6187 91.5582 56.626 91.514 56.6556 91.5213Z" fill="#263238"/>
<path d="M54.7949 96.0026C57.7891 96.3882 60.7355 97.0809 63.5878 98.0698C63.7281 98.1141 63.6321 98.1879 63.4845 98.151C60.5756 97.4127 58.3165 96.8073 54.7876 96.106C54.7285 96.0912 54.7285 95.9952 54.7949 96.0026Z" fill="#263238"/>
<path d="M30.1585 65.5043C21.5798 72.23 1.60937 108.376 7.00617 117.095C12.403 125.814 41.0407 112.341 41.0407 112.341L36.2862 89.3285C36.2862 89.3285 28.2759 92.8944 27.9732 92.5326C27.6705 92.1709 30.9263 80.2256 32.2848 75.3751C33.6432 70.5246 34.7285 61.9237 30.1585 65.5043Z" fill="#A6A6A6"/>
<path d="M37.0837 111.351C36.1682 108.11 32.9198 94.7253 32.3661 91.7722C32.3291 91.5655 32.4546 91.4917 32.5137 91.6984C35.5111 101.355 36.4709 108.096 37.2091 111.322C37.2313 111.388 37.1058 111.433 37.0837 111.351Z" fill="#263238"/>
<path d="M36.3895 89.011C35.4971 89.2686 34.6258 89.5944 33.7833 89.9855C33.0451 90.303 32.2551 90.6204 31.4947 90.9526C29.8409 91.6909 28.2094 92.4292 26.5778 93.1675C24.9462 93.9057 23.3367 94.7105 21.7273 95.5152C20.1178 96.3199 18.5601 97.2132 16.958 98.018C16.8842 98.0549 16.958 98.1656 17.0245 98.1287C18.6487 97.3535 20.3319 96.6521 21.9783 95.9139L26.8214 93.7433L31.6571 91.5876L34.0196 90.5097C34.7579 90.1627 35.4961 89.7714 36.2787 89.3949C36.3434 89.8198 36.4297 90.2412 36.5371 90.6573C36.7069 90.5909 36.6109 88.9593 36.3895 89.011Z" fill="#263238"/>
<path d="M31.9671 80.772C31.5537 81.4438 31.155 82.1083 30.7785 82.8023C30.7047 82.9278 30.6456 83.0607 30.5792 83.1862C30.6604 82.8466 30.749 82.507 30.8376 82.16C31.1831 80.9721 31.4665 79.7671 31.6866 78.5498C31.6866 78.4907 31.6054 78.4833 31.5832 78.5498C31.1271 79.758 30.7377 80.9903 30.4168 82.2412C30.055 83.4446 29.6785 84.648 29.3536 85.8661C29.0288 87.0843 28.6597 88.2877 28.3422 89.5132C27.9908 90.7031 27.7268 91.9171 27.5522 93.1455C27.5522 93.2193 27.6408 93.2341 27.6704 93.1455C28.1688 91.9475 28.5761 90.7135 28.8885 89.4541C29.2429 88.2434 29.5604 87.0178 29.8926 85.8071C30.0329 85.2976 30.1658 84.7808 30.2913 84.2714C30.3651 84.1533 30.4315 84.0278 30.498 83.9097C30.6899 83.5848 30.8671 83.2452 31.0295 82.9056C31.3765 82.1674 31.694 81.4881 32.0041 80.7646C32.0188 80.772 31.9819 80.7499 31.9671 80.772Z" fill="#263238"/>
<path d="M41.0406 111.787C41.0406 111.625 40.9151 111.595 40.9077 111.787C40.9003 111.979 40.9077 112.067 40.9077 112.171C39.9258 112.555 36.3452 114.098 35.474 114.467C33.6357 115.242 31.7826 115.943 29.8926 116.6C28.0026 117.258 26.1052 117.848 24.171 118.358C21.4836 119.096 13.3478 120.572 9.51618 119.148C9.44235 119.148 9.4645 119.236 9.51618 119.273C12.5653 120.823 19.1138 120.011 24.326 118.83C26.2603 118.382 28.17 117.846 30.055 117.221C31.9745 116.586 33.8719 115.862 35.7324 115.065C36.6552 114.666 37.5781 114.238 38.4862 113.795C39.3806 113.431 40.2364 112.979 41.0406 112.444C41.0686 112.42 41.0901 112.389 41.103 112.354C41.1159 112.319 41.1198 112.281 41.1144 112.245C41.0406 112.067 41.0406 111.927 41.0406 111.787Z" fill="#263238"/>
<path d="M45.4708 67.8446H45.4265C45.6775 70.3917 46.0909 76.3127 42.0673 76.0986C40.4505 76.01 38.937 75.0502 37.6746 74.1126C36.384 73.133 35.2033 72.0167 34.153 70.783C32.9276 69.4388 31.814 67.9969 30.8234 66.4714C30.8234 66.405 30.6831 66.4714 30.7274 66.5453C31.7315 68.0661 32.5879 69.6608 33.7396 71.0931C34.8345 72.4921 36.1163 73.7341 37.5491 74.7844C38.9001 75.7516 40.5022 76.6966 42.215 76.7113C42.9607 76.7194 43.6862 76.4696 44.2688 76.0041C44.8514 75.5386 45.2551 74.886 45.4117 74.1569C45.9026 72.0836 45.9228 69.9267 45.4708 67.8446Z" fill="#263238"/>
<path d="M42.1926 73.3742C39.3207 73.7581 34.3374 68.5754 32.7722 64.9136C32.6689 64.6626 33.2816 62.1819 33.887 59.1329C34.2488 57.2872 34.6253 55.22 34.7877 53.3079L46.482 57.3979C45.563 59.7212 44.9332 62.1486 44.6068 64.6256C44.5846 64.8885 44.5846 65.1527 44.6068 65.4156C44.6068 65.4156 44.6068 65.4968 44.6068 65.5485C44.7323 67.062 44.9685 72.9977 42.1926 73.3742Z" fill="#D3766A"/>
<path d="M44.6068 65.4158C44.6068 65.4158 44.6068 65.4896 44.6068 65.5413C44.1929 65.5587 43.7782 65.5439 43.3665 65.497C36.4489 64.6554 35.6515 56.0028 35.5703 53.5886L38.5234 54.6074L46.5042 57.4055C45.5847 59.726 44.9548 62.1511 44.629 64.6259C44.5994 64.8881 44.592 65.1523 44.6068 65.4158Z" fill="#263238"/>
<path d="M48.4976 34.7034C48.4976 34.7034 52.5433 36.3645 53.289 40.4693C54.0346 44.5741 53.1118 48.8709 52.7574 49.085C52.403 49.2991 48.4976 34.7034 48.4976 34.7034Z" fill="#263238"/>
<path d="M32.75 40.093C31.5171 44.3824 33.9608 56.6747 37.0394 59.3768C41.5059 63.2971 48.7189 63.5628 52.019 58.2177C55.2231 53.0498 51.7532 37.0735 48.3276 34.5929C43.2557 31.0196 34.5735 33.7512 32.75 40.093Z" fill="#D3766A"/>
<path d="M44.9534 47.3795C44.9534 47.3426 44.8944 47.4238 44.9018 47.4607C45.0716 48.2876 45.1306 49.2621 44.4219 49.6756C44.4219 49.6756 44.4219 49.7346 44.4219 49.7272C45.3373 49.4319 45.2487 48.1326 44.9534 47.3795Z" fill="#263238"/>
<path d="M44.0605 46.634C42.7095 46.7669 43.0638 49.469 44.3263 49.3509C45.5888 49.2327 45.1975 46.5306 44.0605 46.634Z" fill="#263238"/>
<path d="M49.59 46.6857C49.59 46.6488 49.6564 46.6857 49.6638 46.7447C49.745 47.5864 49.9886 48.5388 50.7786 48.7159V48.7602C49.841 48.7529 49.5309 47.4756 49.59 46.6857Z" fill="#263238"/>
<path d="M50.2175 45.711C51.5538 45.4304 52.0189 48.1104 50.7786 48.3762C49.5383 48.6419 49.1027 45.9472 50.2175 45.711Z" fill="#263238"/>
<path d="M42.835 45.5414C43.176 45.3893 43.5087 45.2193 43.8317 45.0319C44.21 44.8937 44.5319 44.6341 44.7471 44.2937C44.7971 44.1762 44.8061 44.0453 44.7726 43.9221C44.7391 43.7988 44.6651 43.6905 44.5626 43.6144C44.3356 43.487 44.0783 43.4237 43.8181 43.4316C43.558 43.4394 43.3049 43.5179 43.086 43.6587C42.6078 43.8641 42.2234 44.2406 42.0081 44.7145C41.9477 44.8301 41.9258 44.962 41.9455 45.091C41.9653 45.22 42.0257 45.3393 42.1179 45.4315C42.2102 45.5238 42.3295 45.5842 42.4585 45.604C42.5874 45.6237 42.7194 45.6018 42.835 45.5414Z" fill="#263238"/>
<path d="M51.1109 43.7179C50.7372 43.6898 50.3651 43.6429 49.9961 43.5776C49.598 43.5851 49.2085 43.4605 48.8887 43.2232C48.8049 43.1281 48.7539 43.0086 48.7433 42.8823C48.7327 42.756 48.7629 42.6296 48.8296 42.5219C48.9982 42.3299 49.2154 42.1868 49.4583 42.1076C49.7011 42.0284 49.9609 42.0159 50.2102 42.0715C50.7307 42.1001 51.2212 42.3242 51.5834 42.699C51.6624 42.7883 51.7137 42.8986 51.7309 43.0166C51.7482 43.1345 51.7307 43.2549 51.6805 43.3631C51.6304 43.4712 51.5498 43.5623 51.4486 43.6254C51.3474 43.6884 51.2301 43.7205 51.1109 43.7179Z" fill="#263238"/>
<path d="M45.5589 55.0283C45.7361 55.2498 45.8985 55.5451 46.2012 55.6115C46.5146 55.6497 46.8325 55.6169 47.1314 55.5156C47.1314 55.5156 47.1757 55.5156 47.1314 55.5672C46.9905 55.7166 46.8117 55.8249 46.6142 55.8808C46.4166 55.9367 46.2076 55.938 46.0093 55.8847C45.8432 55.8188 45.7004 55.705 45.5992 55.5578C45.498 55.4105 45.4428 55.2365 45.4408 55.0578C45.4369 55.0422 45.4393 55.0256 45.4477 55.0117C45.456 54.9979 45.4694 54.9879 45.4851 54.984C45.5007 54.9801 45.5173 54.9825 45.5312 54.9909C45.545 54.9992 45.555 55.0126 45.5589 55.0283Z" fill="#263238"/>
<path d="M45.847 52.459C46.1041 52.7619 46.4212 53.0081 46.7783 53.1822C47.1353 53.3563 47.5247 53.4545 47.9216 53.4704C48.2661 53.489 48.6115 53.4591 48.9478 53.3818C49.0162 53.3733 49.0832 53.356 49.1471 53.3301L49.3243 53.2784C49.3685 53.2664 49.407 53.2389 49.4327 53.201C49.4584 53.1631 49.4697 53.1172 49.4646 53.0717C49.4646 53.0717 49.4646 53.02 49.4646 52.9905V52.9167C49.3982 52.267 49.1988 51.2999 49.1988 51.2999C49.4572 51.3811 50.727 51.765 50.6754 51.4327C50.2123 48.5365 49.4579 45.6945 48.4236 42.95C48.4177 42.9304 48.4043 42.9139 48.3863 42.9042C48.3683 42.8945 48.3472 42.8924 48.3276 42.8983C48.3081 42.9041 48.2916 42.9176 48.2819 42.9356C48.2722 42.9536 48.2701 42.9747 48.276 42.9942C48.682 45.6668 49.5606 48.2582 50.0183 50.9381C49.5657 50.7991 49.0963 50.7221 48.623 50.7092C48.5344 50.7535 49.029 52.5845 49.0364 52.8798C48.5143 53.0037 47.9727 53.0211 47.4437 52.931C46.9148 52.841 46.4094 52.6453 45.9578 52.3556C45.847 52.3334 45.788 52.3999 45.847 52.459Z" fill="#263238"/>
<path d="M48.4825 53.3375C48.2025 53.7829 47.8104 54.147 47.3456 54.3933C47.0905 54.5226 46.8014 54.569 46.5187 54.5262C45.8985 54.4228 45.8321 53.8691 45.8985 53.3818C45.9352 53.1286 46.0021 52.8808 46.0979 52.6436C46.7999 53.1201 47.6344 53.3629 48.4825 53.3375Z" fill="#263238"/>
<path d="M47.3456 54.3932C47.0905 54.5225 46.8014 54.5689 46.5187 54.5261C45.8985 54.4227 45.8321 53.869 45.8985 53.3817C46.218 53.3645 46.5341 53.4547 46.7964 53.638C47.0587 53.8213 47.252 54.0872 47.3456 54.3932Z" fill="#FF9CBD"/>
<path d="M33.9757 51.2925C35.4153 51.514 36.3898 47.1287 36.6039 45.4675C36.7959 43.991 36.6039 39.4727 36.6039 39.1553C36.6039 38.8378 43.2041 42.2191 46.5338 40.6835C49.8634 39.1479 51.7017 35.6854 51.5614 34.2236C51.4212 32.7618 46.5264 29.698 42.7612 30.0597C38.996 30.4215 34.6401 35.9216 34.6401 35.9216C35.1478 35.1362 35.5922 34.3117 35.969 33.4558C35.8878 33.2934 33.6139 34.6223 33.422 36.4089C33.422 36.4089 33.5844 34.1941 33.422 34.1941C33.2596 34.1941 31.6354 36.3055 32.2629 37.6418C32.2629 37.6418 30.3729 39.8566 30.4763 41.9386C30.5796 44.0205 32.2776 51.0341 33.9757 51.2925Z" fill="#263238"/>
<path d="M48.911 39.5908C47.9615 40.2975 46.9113 40.8574 45.7954 41.2519C44.5314 41.551 43.2133 41.5358 41.9564 41.2076C40.6904 40.9139 39.4809 40.4151 38.3758 39.7311C37.4013 39.1404 36.5005 38.3948 35.4817 37.8928C35.2233 37.7673 35.0018 38.1438 35.179 38.3357C37.0571 40.2831 39.5102 41.5769 42.1779 42.0271C43.418 42.2397 44.692 42.1262 45.875 41.6977C47.058 41.2693 48.1093 40.5407 48.9257 39.5834C48.9257 39.5834 48.9257 39.5834 48.911 39.5908Z" fill="#263238"/>
<path d="M35.5406 50.0967C35.5406 50.0967 32.5875 46.2134 30.8377 47.2691C29.088 48.3248 31.3693 54.0317 33.5251 54.7478C33.7944 54.8589 34.0834 54.9141 34.3747 54.9103C34.666 54.9066 34.9535 54.8438 35.2198 54.7258C35.4861 54.6078 35.7258 54.437 35.9243 54.2239C36.1228 54.0107 36.2761 53.7595 36.3748 53.4854L35.5406 50.0967Z" fill="#D3766A"/>
<path d="M31.5396 48.8931C31.5396 48.8931 31.5396 48.9374 31.5396 48.9447C33.0161 49.4985 33.8873 50.8495 34.4927 52.2596C34.4001 52.1146 34.2774 51.9912 34.1328 51.8979C33.9882 51.8046 33.8252 51.7436 33.6549 51.7191C33.4846 51.6946 33.311 51.7071 33.146 51.7558C32.9809 51.8045 32.8284 51.8882 32.6986 52.0012C32.6543 52.0012 32.6986 52.0898 32.6986 52.075C32.9577 51.9862 33.2376 51.9782 33.5013 52.052C33.7649 52.1258 34 52.278 34.1752 52.4885C34.4628 52.8468 34.7104 53.2354 34.9135 53.6476C34.9873 53.7731 35.2309 53.6992 35.1719 53.5442C35.135 51.6099 33.5846 49.0112 31.5396 48.8931Z" fill="#263238"/>
<path d="M44.6654 65.342L41.5056 72.3039L33.0892 62.9795L30.4609 65.7554C30.4609 65.7554 38.4565 80.3881 38.5377 79.7458L41.7344 73.7583L45.7654 78.188L45.8909 67.4904L44.6654 65.342Z" fill="white"/>
<path d="M46.1277 72.8798C46.0907 71.1153 46.1277 69.3361 45.98 67.5716C45.98 67.5125 45.8766 67.483 45.8619 67.5716C45.4337 69.2622 45.6109 76.0101 45.537 77.6269C45.3746 77.4349 41.794 73.714 41.7571 73.7657C41.0778 74.7107 38.7375 79.0665 38.5751 79.4652C37.3052 77.1396 32.4474 68.679 30.9265 66.4715C30.9231 66.4643 30.9184 66.4577 30.9124 66.4523C30.9065 66.4469 30.8996 66.4427 30.892 66.44C30.8768 66.4344 30.86 66.4352 30.8453 66.442C30.8306 66.4489 30.8193 66.4613 30.8137 66.4765C30.8082 66.4917 30.8089 66.5085 30.8158 66.5232C31.9158 68.9669 38.3462 80.3585 38.4496 80.3364C39.6736 78.2844 40.7899 76.1701 41.794 74.002C42.392 74.8067 45.98 78.9853 46.0095 78.7269C46.1501 76.7812 46.1895 74.8296 46.1277 72.8798Z" fill="#263238"/>
<path d="M112.908 55.2626H110.234V52.6926H112.908C113.309 52.6926 113.635 52.3672 113.635 51.9654C113.635 51.5635 113.309 51.2379 112.908 51.2379H110.234V47.6719C110.234 47.1514 110.131 46.7693 109.928 46.5366C109.735 46.3152 109.482 46.2122 109.131 46.2122C108.796 46.2122 108.552 46.3145 108.363 46.5345C108.163 46.7675 108.061 47.1502 108.061 47.6722V51.2383H103.031L100.892 48.002C100.709 47.7131 100.537 47.4426 100.37 47.1829C100.22 46.949 100.073 46.7586 99.9343 46.6164C99.8115 46.4905 99.6717 46.3931 99.5081 46.3182C99.3538 46.2478 99.1575 46.2124 98.9254 46.2124C98.6293 46.2124 98.3605 46.2935 98.1032 46.4602C97.8485 46.625 97.6724 46.8288 97.5649 47.0833C97.4705 47.3251 97.4206 47.6956 97.4206 48.1739V51.2381H94.7731C94.3714 51.2381 94.0459 51.5637 94.0459 51.9656C94.0459 52.3674 94.3714 52.6928 94.7732 52.6928H97.4206V55.2631H94.7732C94.3714 55.2631 94.0459 55.5886 94.0459 55.9906C94.0459 56.3923 94.3714 56.7176 94.7732 56.7176H97.4206V60.789C97.4206 61.2941 97.5268 61.6723 97.737 61.9126C97.937 62.1418 98.1904 62.2482 98.5347 62.2482C98.8668 62.2482 99.1184 62.1413 99.3269 61.9117C99.5405 61.6765 99.6486 61.2986 99.6486 60.789V56.7176H104.2L106.663 60.4945C106.835 60.7442 107.011 60.9962 107.188 61.2433C107.347 61.4652 107.52 61.6607 107.704 61.824C107.869 61.9717 108.045 62.0799 108.229 62.146C108.418 62.2141 108.64 62.2486 108.885 62.2486C109.551 62.2486 110.233 62.0447 110.233 60.5324V56.7176H112.907C113.309 56.7176 113.635 56.3918 113.635 55.9901C113.635 55.5883 113.309 55.2626 112.908 55.2626ZM108.061 52.6926V55.2625H105.691L103.993 52.6926H108.061ZM99.6486 49.7396L100.626 51.2379H99.6486V49.7396ZM99.6486 55.2626V52.6926H101.575L103.251 55.2626H99.6486ZM108.061 58.8497L106.653 56.7176H108.061V58.8497Z" fill="#263238"/>
</svg>
